<svg width="32" height="32" viewBox="0 0 32 32" fill="none" xmlns="http://www.w3.org/2000/svg">
<path d="M22.625 7.75C23.6406 7.75 24.5 8.60938 24.5 9.625V23.375C24.5 24.4297 23.6406 25.25 22.625 25.25H8.875C7.82031 25.25 7 24.4297 7 23.375V9.625C7 8.60938 7.82031 7.75 8.875 7.75H22.625ZM11.9609 21.5391L12.7031 20.25C12.3125 19.7422 11.7656 19.5859 11.1406 19.7812L10.5938 20.7578C10.3594 21.1094 10.5156 21.6172 10.8672 21.8125C11.2578 22.0469 11.7266 21.9297 11.9609 21.5391ZM17.3516 19.4297C17.7031 18.8047 17.2734 17.8672 16.4922 17.8672H14.0703L17.3906 12.0469C17.625 11.6953 17.5078 11.2266 17.1172 10.9922C16.7656 10.7969 16.2578 10.9141 16.0625 11.2656L15.7109 11.8906L15.3594 11.2656C15.1641 10.9141 14.6562 10.7969 14.3047 10.9922C13.9141 11.2266 13.7969 11.6953 13.9922 12.0469L14.8125 13.4531L12.2734 17.8672H10.2812C9.85156 17.8672 9.5 18.2188 9.5 18.6484C9.5 19.0781 9.85156 19.4297 10.2812 19.4297H17.3516ZM21.2188 19.4297C21.6484 19.4297 22 19.0781 22 18.6484C22 18.2188 21.6484 17.8672 21.2188 17.8672H19.1875C18.1328 16.1094 17.3906 14.7812 16.8828 13.8828C16.4141 14.2734 15.9453 15.4062 16.6094 16.5391C17.2344 17.6328 18.2109 19.3125 19.5 21.5391C19.6953 21.8906 20.1641 22.0469 20.5547 21.8125C20.9062 21.6172 21.0625 21.1484 20.8281 20.7578L20.0859 19.4297H21.2188Z" fill="black"/>
</svg>
