<svg width="163" height="66" viewBox="0 0 163 66" fill="none" xmlns="http://www.w3.org/2000/svg">
<g clip-path="url(#clip0_37_169)">
<path d="M154 0.890625H8.99996C4.52116 0.890625 0.890381 4.52141 0.890381 9.00021V57.0002C0.890381 61.479 4.52116 65.1098 8.99996 65.1098H154C158.479 65.1098 162.109 61.479 162.109 57.0002V9.00021C162.109 4.52141 158.479 0.890625 154 0.890625Z" fill="white"/>
<path d="M154 0.890625H8.99996C4.52116 0.890625 0.890381 4.52141 0.890381 9.00021V57.0002C0.890381 61.479 4.52116 65.1098 8.99996 65.1098H154C158.479 65.1098 162.109 61.479 162.109 57.0002V9.00021C162.109 4.52141 158.479 0.890625 154 0.890625Z" stroke="#171F24" stroke-width="0.219163"/>
<path d="M35.625 24.75C36.6406 24.75 37.5 25.6094 37.5 26.625V40.375C37.5 41.4297 36.6406 42.25 35.625 42.25H21.875C20.8203 42.25 20 41.4297 20 40.375V26.625C20 25.6094 20.8203 24.75 21.875 24.75H35.625ZM24.9609 38.5391L25.7031 37.25C25.3125 36.7422 24.7656 36.5859 24.1406 36.7812L23.5938 37.7578C23.3594 38.1094 23.5156 38.6172 23.8672 38.8125C24.2578 39.0469 24.7266 38.9297 24.9609 38.5391ZM30.3516 36.4297C30.7031 35.8047 30.2734 34.8672 29.4922 34.8672H27.0703L30.3906 29.0469C30.625 28.6953 30.5078 28.2266 30.1172 27.9922C29.7656 27.7969 29.2578 27.9141 29.0625 28.2656L28.7109 28.8906L28.3594 28.2656C28.1641 27.9141 27.6562 27.7969 27.3047 27.9922C26.9141 28.2266 26.7969 28.6953 26.9922 29.0469L27.8125 30.4531L25.2734 34.8672H23.2812C22.8516 34.8672 22.5 35.2188 22.5 35.6484C22.5 36.0781 22.8516 36.4297 23.2812 36.4297H30.3516ZM34.2188 36.4297C34.6484 36.4297 35 36.0781 35 35.6484C35 35.2188 34.6484 34.8672 34.2188 34.8672H32.1875C31.1328 33.1094 30.3906 31.7812 29.8828 30.8828C29.4141 31.2734 28.9453 32.4062 29.6094 33.5391C30.2344 34.6328 31.2109 36.3125 32.5 38.5391C32.6953 38.8906 33.1641 39.0469 33.5547 38.8125C33.9062 38.6172 34.0625 38.1484 33.8281 37.7578L33.0859 36.4297H34.2188Z" fill="black"/>
<path d="M56.125 23.0002H53.8807V15.7275H56.2244C56.9299 15.7275 57.5336 15.8731 58.0355 16.1643C58.5374 16.4531 58.9221 16.8686 59.1896 17.4107C59.4571 17.9505 59.5909 18.5968 59.5909 19.3496C59.5909 20.1072 59.456 20.7594 59.1861 21.3063C58.9162 21.8508 58.5232 22.2698 58.0071 22.5634C57.491 22.8546 56.8636 23.0002 56.125 23.0002ZM54.7614 22.219H56.0682C56.6695 22.219 57.1679 22.1029 57.5632 21.8709C57.9586 21.6389 58.2533 21.3087 58.4474 20.8802C58.6416 20.4517 58.7386 19.9415 58.7386 19.3496C58.7386 18.7625 58.6428 18.2571 58.451 17.8333C58.2592 17.4072 57.9728 17.0805 57.5916 16.8532C57.2105 16.6235 56.7358 16.5087 56.1676 16.5087H54.7614V22.219ZM63.1705 23.1138C62.678 23.1138 62.246 22.9966 61.8743 22.7623C61.505 22.5279 61.2161 22.2 61.0078 21.7786C60.8018 21.3572 60.6989 20.8648 60.6989 20.3013C60.6989 19.7332 60.8018 19.2372 61.0078 18.8134C61.2161 18.3896 61.505 18.0606 61.8743 17.8262C62.246 17.5918 62.678 17.4746 63.1705 17.4746C63.6629 17.4746 64.0938 17.5918 64.4631 17.8262C64.8348 18.0606 65.1236 18.3896 65.3295 18.8134C65.5379 19.2372 65.642 19.7332 65.642 20.3013C65.642 20.8648 65.5379 21.3572 65.3295 21.7786C65.1236 22.2 64.8348 22.5279 64.4631 22.7623C64.0938 22.9966 63.6629 23.1138 63.1705 23.1138ZM63.1705 22.361C63.5445 22.361 63.8523 22.2651 64.0938 22.0734C64.3352 21.8816 64.514 21.6295 64.63 21.317C64.746 21.0045 64.804 20.6659 64.804 20.3013C64.804 19.9368 64.746 19.597 64.63 19.2822C64.514 18.9673 64.3352 18.7128 64.0938 18.5187C63.8523 18.3245 63.5445 18.2275 63.1705 18.2275C62.7964 18.2275 62.4886 18.3245 62.2472 18.5187C62.0057 18.7128 61.8269 18.9673 61.7109 19.2822C61.5949 19.597 61.5369 19.9368 61.5369 20.3013C61.5369 20.6659 61.5949 21.0045 61.7109 21.317C61.8269 21.6295 62.0057 21.8816 62.2472 22.0734C62.4886 22.2651 62.7964 22.361 63.1705 22.361ZM67.9716 23.0002L66.3097 17.5457H67.1903L68.3693 21.7218H68.4261L69.5909 17.5457H70.4858L71.6364 21.7076H71.6932L72.8722 17.5457H73.7528L72.0909 23.0002H71.267L70.0739 18.8099H69.9886L68.7955 23.0002H67.9716ZM75.6989 19.719V23.0002H74.8608V17.5457H75.6705V18.3979H75.7415C75.8693 18.1209 76.0634 17.8984 76.3239 17.7303C76.5843 17.5599 76.9205 17.4746 77.3324 17.4746C77.7017 17.4746 78.0249 17.5504 78.3018 17.7019C78.5788 17.8511 78.7943 18.0783 78.9482 18.3837C79.102 18.6868 79.179 19.0703 79.179 19.5343V23.0002H78.3409V19.5911C78.3409 19.1626 78.2296 18.8288 78.0071 18.5897C77.7846 18.3482 77.4792 18.2275 77.0909 18.2275C76.8234 18.2275 76.5843 18.2855 76.3736 18.4015C76.1652 18.5175 76.0007 18.6868 75.88 18.9093C75.7592 19.1318 75.6989 19.4017 75.6989 19.719ZM81.5485 15.7275V23.0002H80.7104V15.7275H81.5485ZM85.2994 23.1138C84.8069 23.1138 84.3749 22.9966 84.0032 22.7623C83.6339 22.5279 83.3451 22.2 83.1367 21.7786C82.9308 21.3572 82.8278 20.8648 82.8278 20.3013C82.8278 19.7332 82.9308 19.2372 83.1367 18.8134C83.3451 18.3896 83.6339 18.0606 84.0032 17.8262C84.3749 17.5918 84.8069 17.4746 85.2994 17.4746C85.7918 17.4746 86.2227 17.5918 86.592 17.8262C86.9637 18.0606 87.2525 18.3896 87.4585 18.8134C87.6668 19.2372 87.771 19.7332 87.771 20.3013C87.771 20.8648 87.6668 21.3572 87.4585 21.7786C87.2525 22.2 86.9637 22.5279 86.592 22.7623C86.2227 22.9966 85.7918 23.1138 85.2994 23.1138ZM85.2994 22.361C85.6734 22.361 85.9812 22.2651 86.2227 22.0734C86.4641 21.8816 86.6429 21.6295 86.7589 21.317C86.8749 21.0045 86.9329 20.6659 86.9329 20.3013C86.9329 19.9368 86.8749 19.597 86.7589 19.2822C86.6429 18.9673 86.4641 18.7128 86.2227 18.5187C85.9812 18.3245 85.6734 18.2275 85.2994 18.2275C84.9253 18.2275 84.6175 18.3245 84.3761 18.5187C84.1346 18.7128 83.9558 18.9673 83.8398 19.2822C83.7238 19.597 83.6658 19.9368 83.6658 20.3013C83.6658 20.6659 83.7238 21.0045 83.8398 21.317C83.9558 21.6295 84.1346 21.8816 84.3761 22.0734C84.6175 22.2651 84.9253 22.361 85.2994 22.361ZM90.6554 23.128C90.3097 23.128 89.996 23.0629 89.7143 22.9327C89.4326 22.8002 89.2089 22.6096 89.0431 22.361C88.8774 22.11 88.7946 21.807 88.7946 21.4519C88.7946 21.1394 88.8561 20.8861 88.9792 20.692C89.1023 20.4955 89.2669 20.3416 89.4728 20.2303C89.6788 20.119 89.9061 20.0362 90.1547 19.9817C90.4056 19.9249 90.6577 19.8799 90.911 19.8468C91.2425 19.8042 91.5112 19.7722 91.7172 19.7509C91.9255 19.7272 92.077 19.6882 92.1717 19.6337C92.2688 19.5793 92.3173 19.4846 92.3173 19.3496V19.3212C92.3173 18.9708 92.2214 18.6986 92.0297 18.5045C91.8403 18.3103 91.5526 18.2133 91.1667 18.2133C90.7666 18.2133 90.4529 18.3009 90.2257 18.4761C89.9984 18.6512 89.8386 18.8383 89.7463 19.0371L88.9508 18.753C89.0929 18.4216 89.2823 18.1636 89.519 17.9789C89.7581 17.7919 90.0185 17.6617 90.3002 17.5883C90.5843 17.5125 90.8637 17.4746 91.1383 17.4746C91.3135 17.4746 91.5147 17.4959 91.742 17.5386C91.9717 17.5788 92.193 17.6628 92.4061 17.7907C92.6215 17.9185 92.8002 18.1115 92.9423 18.3695C93.0843 18.6276 93.1554 18.9732 93.1554 19.4064V23.0002H92.3173V22.2616H92.2747C92.2179 22.3799 92.1232 22.5066 91.9906 22.6415C91.858 22.7765 91.6816 22.8913 91.4615 22.986C91.2413 23.0807 90.9726 23.128 90.6554 23.128ZM90.7832 22.3752C91.1146 22.3752 91.394 22.3101 91.6213 22.1799C91.8509 22.0497 92.0237 21.8816 92.1397 21.6756C92.2581 21.4697 92.3173 21.253 92.3173 21.0258V20.2587C92.2818 20.3013 92.2037 20.3404 92.0829 20.3759C91.9645 20.4091 91.8272 20.4386 91.671 20.4647C91.5171 20.4884 91.3668 20.5097 91.22 20.5286C91.0756 20.5452 90.9584 20.5594 90.8684 20.5712C90.6506 20.5996 90.447 20.6458 90.2576 20.7097C90.0706 20.7713 89.9191 20.8648 89.8031 20.9903C89.6895 21.1134 89.6326 21.2814 89.6326 21.4945C89.6326 21.7857 89.7404 22.0059 89.9558 22.155C90.1736 22.3018 90.4494 22.3752 90.7832 22.3752ZM96.7447 23.1138C96.2901 23.1138 95.8888 22.999 95.5408 22.7694C95.1928 22.5374 94.9206 22.2107 94.7241 21.7893C94.5276 21.3655 94.4293 20.8648 94.4293 20.2871C94.4293 19.7142 94.5276 19.2171 94.7241 18.7957C94.9206 18.3743 95.194 18.0487 95.5444 17.8191C95.8948 17.5895 96.2996 17.4746 96.7589 17.4746C97.114 17.4746 97.3945 17.5338 97.6005 17.6522C97.8088 17.7682 97.9674 17.9008 98.0763 18.0499C98.1876 18.1967 98.274 18.3174 98.3356 18.4121H98.4066V15.7275H99.2447V23.0002H98.435V22.1621H98.3356C98.274 22.2616 98.1864 22.387 98.0728 22.5386C97.9592 22.6877 97.797 22.8215 97.5863 22.9398C97.3756 23.0558 97.0951 23.1138 96.7447 23.1138ZM96.8583 22.361C97.1945 22.361 97.4786 22.2734 97.7106 22.0982C97.9426 21.9207 98.119 21.6756 98.2397 21.3631C98.3604 21.0483 98.4208 20.6849 98.4208 20.2729C98.4208 19.8657 98.3616 19.5094 98.2433 19.204C98.1249 18.8963 97.9497 18.6572 97.7177 18.4867C97.4857 18.3139 97.1992 18.2275 96.8583 18.2275C96.5032 18.2275 96.2073 18.3186 95.9705 18.5009C95.7362 18.6808 95.5598 18.9259 95.4414 19.236C95.3254 19.5438 95.2674 19.8894 95.2674 20.2729C95.2674 20.6612 95.3266 21.0139 95.445 21.3312C95.5657 21.646 95.7433 21.897 95.9776 22.084C96.2144 22.2687 96.5079 22.361 96.8583 22.361ZM105.924 23.1138C105.432 23.1138 105 22.9966 104.628 22.7623C104.259 22.5279 103.97 22.2 103.762 21.7786C103.556 21.3572 103.453 20.8648 103.453 20.3013C103.453 19.7332 103.556 19.2372 103.762 18.8134C103.97 18.3896 104.259 18.0606 104.628 17.8262C105 17.5918 105.432 17.4746 105.924 17.4746C106.417 17.4746 106.848 17.5918 107.217 17.8262C107.589 18.0606 107.877 18.3896 108.083 18.8134C108.292 19.2372 108.396 19.7332 108.396 20.3013C108.396 20.8648 108.292 21.3572 108.083 21.7786C107.877 22.2 107.589 22.5279 107.217 22.7623C106.848 22.9966 106.417 23.1138 105.924 23.1138ZM105.924 22.361C106.298 22.361 106.606 22.2651 106.848 22.0734C107.089 21.8816 107.268 21.6295 107.384 21.317C107.5 21.0045 107.558 20.6659 107.558 20.3013C107.558 19.9368 107.5 19.597 107.384 19.2822C107.268 18.9673 107.089 18.7128 106.848 18.5187C106.606 18.3245 106.298 18.2275 105.924 18.2275C105.55 18.2275 105.243 18.3245 105.001 18.5187C104.76 18.7128 104.581 18.9673 104.465 19.2822C104.349 19.597 104.291 19.9368 104.291 20.3013C104.291 20.6659 104.349 21.0045 104.465 21.317C104.581 21.6295 104.76 21.8816 105.001 22.0734C105.243 22.2651 105.55 22.361 105.924 22.361ZM110.513 19.719V23.0002H109.675V17.5457H110.485V18.3979H110.556C110.684 18.1209 110.878 17.8984 111.138 17.7303C111.399 17.5599 111.735 17.4746 112.147 17.4746C112.516 17.4746 112.839 17.5504 113.116 17.7019C113.393 17.8511 113.609 18.0783 113.763 18.3837C113.916 18.6868 113.993 19.0703 113.993 19.5343V23.0002H113.155V19.5911C113.155 19.1626 113.044 18.8288 112.822 18.5897C112.599 18.3482 112.294 18.2275 111.905 18.2275C111.638 18.2275 111.399 18.2855 111.188 18.4015C110.98 18.5175 110.815 18.6868 110.694 18.9093C110.574 19.1318 110.513 19.4017 110.513 19.719ZM120.71 17.5457V18.2559H117.883V17.5457H120.71ZM118.707 16.2388H119.545V21.4377C119.545 21.6744 119.579 21.852 119.648 21.9704C119.719 22.0864 119.809 22.1645 119.918 22.2047C120.029 22.2426 120.146 22.2616 120.269 22.2616C120.362 22.2616 120.437 22.2568 120.496 22.2474C120.556 22.2355 120.603 22.2261 120.638 22.219L120.809 22.9718C120.752 22.9931 120.673 23.0144 120.571 23.0357C120.469 23.0594 120.34 23.0712 120.184 23.0712C119.947 23.0712 119.715 23.0203 119.488 22.9185C119.263 22.8167 119.076 22.6617 118.927 22.4533C118.78 22.245 118.707 21.9822 118.707 21.665V16.2388ZM122.925 19.719V23.0002H122.087V15.7275H122.925V18.3979H122.996C123.124 18.1162 123.316 17.8925 123.572 17.7268C123.83 17.5587 124.173 17.4746 124.602 17.4746C124.973 17.4746 125.299 17.5492 125.578 17.6984C125.857 17.8451 126.074 18.0712 126.228 18.3766C126.384 18.6797 126.462 19.0655 126.462 19.5343V23.0002H125.624V19.5911C125.624 19.1579 125.512 18.8229 125.287 18.5861C125.064 18.347 124.755 18.2275 124.36 18.2275C124.085 18.2275 123.839 18.2855 123.621 18.4015C123.406 18.5175 123.236 18.6868 123.11 18.9093C122.987 19.1318 122.925 19.4017 122.925 19.719ZM130.282 23.1138C129.757 23.1138 129.304 22.9978 128.922 22.7658C128.544 22.5314 128.251 22.2047 128.045 21.7857C127.842 21.3643 127.74 20.8743 127.74 20.3155C127.74 19.7568 127.842 19.2644 128.045 18.8383C128.251 18.4098 128.538 18.076 128.905 17.8368C129.274 17.5954 129.705 17.4746 130.197 17.4746C130.481 17.4746 130.762 17.522 131.039 17.6167C131.316 17.7114 131.568 17.8653 131.795 18.0783C132.023 18.289 132.204 18.5684 132.339 18.9164C132.474 19.2644 132.541 19.6929 132.541 20.2019V20.557H128.336V19.8326H131.689C131.689 19.5248 131.627 19.2502 131.504 19.0087C131.383 18.7672 131.211 18.5767 130.986 18.437C130.763 18.2973 130.5 18.2275 130.197 18.2275C129.863 18.2275 129.575 18.3103 129.331 18.4761C129.089 18.6394 128.903 18.8525 128.773 19.1153C128.643 19.378 128.578 19.6598 128.578 19.9604V20.4434C128.578 20.8553 128.649 21.2045 128.791 21.491C128.935 21.7751 129.135 21.9917 129.391 22.1408C129.647 22.2876 129.944 22.361 130.282 22.361C130.503 22.361 130.702 22.3302 130.879 22.2687C131.059 22.2047 131.214 22.11 131.344 21.9846C131.474 21.8567 131.575 21.6981 131.646 21.5087L132.456 21.736C132.371 22.0106 132.227 22.2521 132.026 22.4604C131.825 22.6664 131.576 22.8274 131.28 22.9434C130.984 23.057 130.652 23.1138 130.282 23.1138Z" fill="#171F24"/>
<path d="M56.3026 48.0002H53.4901L58.6108 33.4547H61.8636L66.9915 48.0002H64.179L60.294 36.4377H60.1804L56.3026 48.0002ZM56.3949 42.2971H64.0653V44.4136H56.3949V42.2971ZM68.7937 52.0911V37.0911H71.3221V38.8951H71.4712C71.6038 38.6299 71.7908 38.3482 72.0323 38.0499C72.2738 37.7469 72.6005 37.4888 73.0124 37.2758C73.4244 37.058 73.9499 36.9491 74.5891 36.9491C75.4319 36.9491 76.1919 37.1645 76.869 37.5954C77.5508 38.0215 78.0906 38.6536 78.4883 39.4917C78.8907 40.325 79.092 41.3477 79.092 42.5599C79.092 43.7578 78.8955 44.7758 78.5025 45.6138C78.1095 46.4519 77.5745 47.0911 76.8974 47.5314C76.2203 47.9718 75.4532 48.192 74.5962 48.192C73.9712 48.192 73.4528 48.0878 73.0408 47.8795C72.6289 47.6711 72.2975 47.4202 72.0465 47.1266C71.8003 46.8283 71.6085 46.5466 71.4712 46.2814H71.3647V52.0911H68.7937ZM71.315 42.5457C71.315 43.2511 71.4144 43.869 71.6133 44.3993C71.8169 44.9297 72.1081 45.3439 72.4869 45.6422C72.8704 45.9358 73.3344 46.0826 73.8789 46.0826C74.4471 46.0826 74.9229 45.9311 75.3065 45.628C75.69 45.3203 75.9788 44.9012 76.1729 44.3709C76.3718 43.8359 76.4712 43.2275 76.4712 42.5457C76.4712 41.8686 76.3742 41.2672 76.18 40.7417C75.9859 40.2161 75.6971 39.8042 75.3136 39.5059C74.93 39.2076 74.4518 39.0584 73.8789 39.0584C73.3297 39.0584 72.8633 39.2029 72.4798 39.4917C72.0962 39.7805 71.805 40.1853 71.6062 40.7062C71.4121 41.227 71.315 41.8402 71.315 42.5457ZM81.2937 52.0911V37.0911H83.8221V38.8951H83.9712C84.1038 38.6299 84.2908 38.3482 84.5323 38.0499C84.7738 37.7469 85.1005 37.4888 85.5124 37.2758C85.9244 37.058 86.4499 36.9491 87.0891 36.9491C87.9319 36.9491 88.6919 37.1645 89.369 37.5954C90.0508 38.0215 90.5906 38.6536 90.9883 39.4917C91.3907 40.325 91.592 41.3477 91.592 42.5599C91.592 43.7578 91.3955 44.7758 91.0025 45.6138C90.6095 46.4519 90.0745 47.0911 89.3974 47.5314C88.7203 47.9718 87.9532 48.192 87.0962 48.192C86.4712 48.192 85.9528 48.0878 85.5408 47.8795C85.1289 47.6711 84.7975 47.4202 84.5465 47.1266C84.3003 46.8283 84.1085 46.5466 83.9712 46.2814H83.8647V52.0911H81.2937ZM83.815 42.5457C83.815 43.2511 83.9144 43.869 84.1133 44.3993C84.3169 44.9297 84.6081 45.3439 84.9869 45.6422C85.3704 45.9358 85.8344 46.0826 86.3789 46.0826C86.9471 46.0826 87.4229 45.9311 87.8065 45.628C88.19 45.3203 88.4788 44.9012 88.6729 44.3709C88.8718 43.8359 88.9712 43.2275 88.9712 42.5457C88.9712 41.8686 88.8742 41.2672 88.68 40.7417C88.4859 40.2161 88.1971 39.8042 87.8136 39.5059C87.43 39.2076 86.9518 39.0584 86.3789 39.0584C85.8297 39.0584 85.3633 39.2029 84.9798 39.4917C84.5962 39.7805 84.305 40.1853 84.1062 40.7062C83.9121 41.227 83.815 41.8402 83.815 42.5457ZM106.773 37.4533C106.707 36.8331 106.427 36.3501 105.935 36.0045C105.447 35.6588 104.813 35.486 104.032 35.486C103.482 35.486 103.011 35.5689 102.618 35.7346C102.225 35.9003 101.925 36.1252 101.716 36.4093C101.508 36.6934 101.401 37.0177 101.397 37.3823C101.397 37.6853 101.465 37.9481 101.603 38.1707C101.745 38.3932 101.936 38.5826 102.178 38.7388C102.419 38.8904 102.687 39.0182 102.98 39.1224C103.274 39.2265 103.57 39.3141 103.868 39.3851L105.232 39.7261C105.781 39.8539 106.309 40.0267 106.816 40.2445C107.327 40.4623 107.784 40.7369 108.186 41.0684C108.594 41.3998 108.916 41.7999 109.152 42.2687C109.389 42.7374 109.507 43.2867 109.507 43.9164C109.507 44.7687 109.29 45.5191 108.854 46.1678C108.418 46.8118 107.789 47.316 106.965 47.6806C106.146 48.0404 105.154 48.2204 103.989 48.2204C102.857 48.2204 101.875 48.0452 101.042 47.6948C100.213 47.3444 99.5643 46.8331 99.0955 46.1607C98.6315 45.4884 98.3806 44.6692 98.3427 43.7033H100.935C100.973 44.21 101.129 44.6314 101.404 44.9675C101.678 45.3037 102.036 45.5547 102.476 45.7204C102.921 45.8861 103.418 45.969 103.968 45.969C104.541 45.969 105.042 45.8837 105.473 45.7133C105.909 45.5381 106.25 45.2966 106.496 44.9888C106.742 44.6763 106.868 44.3118 106.873 43.8951C106.868 43.5163 106.757 43.2038 106.539 42.9576C106.321 42.7066 106.016 42.4983 105.623 42.3326C105.234 42.1621 104.78 42.0106 104.259 41.878L102.604 41.4519C101.406 41.1441 100.459 40.6778 99.7631 40.0528C99.0719 39.423 98.7262 38.5873 98.7262 37.5457C98.7262 36.6886 98.9582 35.9382 99.4222 35.2942C99.891 34.6503 100.528 34.1508 101.333 33.7957C102.138 33.4358 103.049 33.2559 104.067 33.2559C105.099 33.2559 106.004 33.4358 106.78 33.7957C107.561 34.1508 108.175 34.6456 108.62 35.28C109.065 35.9098 109.294 36.6342 109.309 37.4533H106.773ZM117.19 37.0911V39.0797H110.919V37.0911H117.19ZM112.467 34.4775H115.038V44.719C115.038 45.0646 115.09 45.3297 115.195 45.5144C115.304 45.6943 115.446 45.8174 115.621 45.8837C115.796 45.95 115.99 45.9832 116.203 45.9832C116.364 45.9832 116.511 45.9713 116.643 45.9476C116.781 45.924 116.885 45.9027 116.956 45.8837L117.389 47.8937C117.252 47.941 117.055 47.9931 116.8 48.0499C116.549 48.1067 116.241 48.1399 115.876 48.1493C115.232 48.1683 114.652 48.0712 114.136 47.8582C113.62 47.6404 113.211 47.3042 112.908 46.8496C112.609 46.3951 112.463 45.8269 112.467 45.1451V34.4775ZM123.982 48.2133C122.917 48.2133 121.993 47.9789 121.212 47.5101C120.431 47.0414 119.825 46.3856 119.394 45.5428C118.968 44.7 118.755 43.7152 118.755 42.5883C118.755 41.4614 118.968 40.4742 119.394 39.6266C119.825 38.7791 120.431 38.1209 121.212 37.6522C121.993 37.1834 122.917 36.9491 123.982 36.9491C125.047 36.9491 125.971 37.1834 126.752 37.6522C127.533 38.1209 128.137 38.7791 128.563 39.6266C128.994 40.4742 129.209 41.4614 129.209 42.5883C129.209 43.7152 128.994 44.7 128.563 45.5428C128.137 46.3856 127.533 47.0414 126.752 47.5101C125.971 47.9789 125.047 48.2133 123.982 48.2133ZM123.996 46.1536C124.574 46.1536 125.057 45.995 125.445 45.6778C125.833 45.3558 126.122 44.9249 126.311 44.3851C126.506 43.8454 126.603 43.244 126.603 42.5812C126.603 41.9136 126.506 41.3099 126.311 40.7701C126.122 40.2256 125.833 39.7923 125.445 39.4704C125.057 39.1484 124.574 38.9874 123.996 38.9874C123.404 38.9874 122.912 39.1484 122.519 39.4704C122.131 39.7923 121.839 40.2256 121.645 40.7701C121.456 41.3099 121.361 41.9136 121.361 42.5812C121.361 43.244 121.456 43.8454 121.645 44.3851C121.839 44.9249 122.131 45.3558 122.519 45.6778C122.912 45.995 123.404 46.1536 123.996 46.1536ZM131.391 48.0002V37.0911H133.884V38.9093H133.998C134.197 38.2796 134.538 37.7942 135.021 37.4533C135.508 37.1077 136.065 36.9349 136.69 36.9349C136.832 36.9349 136.99 36.942 137.165 36.9562C137.345 36.9656 137.495 36.9822 137.613 37.0059V39.3709C137.504 39.3331 137.331 39.2999 137.094 39.2715C136.862 39.2384 136.638 39.2218 136.42 39.2218C135.951 39.2218 135.53 39.3236 135.156 39.5272C134.786 39.7261 134.495 40.003 134.282 40.3582C134.069 40.7133 133.962 41.1228 133.962 41.5868V48.0002H131.391ZM143.701 48.2133C142.608 48.2133 141.663 47.986 140.868 47.5314C140.077 47.0722 139.468 46.4235 139.042 45.5854C138.616 44.7426 138.403 43.7507 138.403 42.6096C138.403 41.4874 138.616 40.5026 139.042 39.655C139.473 38.8028 140.074 38.1399 140.846 37.6664C141.618 37.1882 142.525 36.9491 143.566 36.9491C144.239 36.9491 144.873 37.058 145.47 37.2758C146.071 37.4888 146.601 37.8203 147.061 38.2701C147.525 38.7199 147.889 39.2928 148.154 39.9888C148.42 40.6801 148.552 41.504 148.552 42.4604V43.2488H139.61V41.5158H146.088C146.083 41.0234 145.976 40.5854 145.768 40.2019C145.56 39.8136 145.269 39.5082 144.895 39.2857C144.525 39.0632 144.094 38.9519 143.602 38.9519C143.076 38.9519 142.615 39.0797 142.217 39.3354C141.819 39.5864 141.509 39.9178 141.287 40.3297C141.069 40.7369 140.958 41.1844 140.953 41.6721V43.1849C140.953 43.8193 141.069 44.3638 141.301 44.8184C141.533 45.2682 141.857 45.6138 142.274 45.8553C142.69 46.0921 143.178 46.2104 143.737 46.2104C144.111 46.2104 144.449 46.1583 144.752 46.0542C145.056 45.9453 145.318 45.7867 145.541 45.5783C145.763 45.37 145.931 45.1119 146.045 44.8042L148.446 45.0741C148.294 45.7085 148.005 46.2625 147.579 46.736C147.158 47.2047 146.618 47.5693 145.96 47.8297C145.302 48.0854 144.549 48.2133 143.701 48.2133Z" fill="#171F24"/>
</g>
<defs>
<clipPath id="clip0_37_169">
<rect width="163" height="66" fill="white"/>
</clipPath>
</defs>
</svg>
