<svg width="190" height="67" viewBox="0 0 190 67" fill="none" xmlns="http://www.w3.org/2000/svg">
<path d="M178.127 1.375H11.5011C6.10655 1.375 1.7334 5.18058 1.7334 9.875V57.875C1.7334 62.5694 6.10655 66.375 11.5011 66.375H178.127C183.521 66.375 187.894 62.5694 187.894 57.875V9.875C187.894 5.18058 183.521 1.375 178.127 1.375Z" fill="black"/>
<path d="M178.127 1.375H11.5011C6.10655 1.375 1.7334 5.18058 1.7334 9.875V57.875C1.7334 62.5694 6.10655 66.375 11.5011 66.375H178.127C183.521 66.375 187.894 62.5694 187.894 57.875V9.875C187.894 5.18058 183.521 1.375 178.127 1.375Z" stroke="white"/>
<path d="M36.8584 25.625C37.874 25.625 38.7334 26.4844 38.7334 27.5V41.25C38.7334 42.3047 37.874 43.125 36.8584 43.125H23.1084C22.0537 43.125 21.2334 42.3047 21.2334 41.25V27.5C21.2334 26.4844 22.0537 25.625 23.1084 25.625H36.8584ZM26.1943 39.4141L26.9365 38.125C26.5459 37.6172 25.999 37.4609 25.374 37.6562L24.8271 38.6328C24.5928 38.9844 24.749 39.4922 25.1006 39.6875C25.4912 39.9219 25.96 39.8047 26.1943 39.4141ZM31.585 37.3047C31.9365 36.6797 31.5068 35.7422 30.7256 35.7422H28.3037L31.624 29.9219C31.8584 29.5703 31.7412 29.1016 31.3506 28.8672C30.999 28.6719 30.4912 28.7891 30.2959 29.1406L29.9443 29.7656L29.5928 29.1406C29.3975 28.7891 28.8896 28.6719 28.5381 28.8672C28.1475 29.1016 28.0303 29.5703 28.2256 29.9219L29.0459 31.3281L26.5068 35.7422H24.5146C24.085 35.7422 23.7334 36.0938 23.7334 36.5234C23.7334 36.9531 24.085 37.3047 24.5146 37.3047H31.585ZM35.4521 37.3047C35.8818 37.3047 36.2334 36.9531 36.2334 36.5234C36.2334 36.0938 35.8818 35.7422 35.4521 35.7422H33.4209C32.3662 33.9844 31.624 32.6562 31.1162 31.7578C30.6475 32.1484 30.1787 33.2812 30.8428 34.4141C31.4678 35.5078 32.4443 37.1875 33.7334 39.4141C33.9287 39.7656 34.3975 39.9219 34.7881 39.6875C35.1396 39.4922 35.2959 39.0234 35.0615 38.6328L34.3193 37.3047H35.4521Z" fill="white"/>
<path d="M63.9648 22.8402H61.1141V13.6025H64.0911C64.9872 13.6025 65.754 13.7875 66.3915 14.1574C67.029 14.5242 67.5176 15.0519 67.8574 15.7405C68.1972 16.4262 68.3671 17.2471 68.3671 18.2033C68.3671 19.1656 68.1958 19.994 67.853 20.6886C67.5101 21.3803 67.011 21.9125 66.3554 22.2854C65.6999 22.6553 64.903 22.8402 63.9648 22.8402ZM62.2328 21.8479H63.8927C64.6564 21.8479 65.2894 21.7005 65.7916 21.4058C66.2938 21.1111 66.6681 20.6917 66.9147 20.1474C67.1614 19.6031 67.2846 18.9551 67.2846 18.2033C67.2846 17.4575 67.1629 16.8156 66.9193 16.2773C66.6756 15.7361 66.3119 15.3211 65.8277 15.0324C65.3436 14.7406 64.7406 14.5948 64.0189 14.5948H62.2328V21.8479ZM72.9139 22.9845C72.2883 22.9845 71.7396 22.8356 71.2675 22.538C70.7984 22.2403 70.4314 21.8238 70.1669 21.2886C69.9052 20.7533 69.7745 20.1279 69.7745 19.4121C69.7745 18.6905 69.9052 18.0605 70.1669 17.5222C70.4314 16.9839 70.7984 16.566 71.2675 16.2683C71.7396 15.9705 72.2883 15.8217 72.9139 15.8217C73.5393 15.8217 74.0865 15.9705 74.5557 16.2683C75.0279 16.566 75.3947 16.9839 75.6562 17.5222C75.9209 18.0605 76.0532 18.6905 76.0532 19.4121C76.0532 20.1279 75.9209 20.7533 75.6562 21.2886C75.3947 21.8238 75.0279 22.2403 74.5557 22.538C74.0865 22.8356 73.5393 22.9845 72.9139 22.9845ZM72.9139 22.0283C73.3889 22.0283 73.7799 21.9065 74.0865 21.663C74.3933 21.4194 74.6204 21.0992 74.7677 20.7022C74.9151 20.3053 74.9887 19.8752 74.9887 19.4121C74.9887 18.9491 74.9151 18.5175 74.7677 18.1177C74.6204 17.7177 74.3933 17.3944 74.0865 17.1479C73.7799 16.9012 73.3889 16.778 72.9139 16.778C72.4387 16.778 72.0478 16.9012 71.7411 17.1479C71.4344 17.3944 71.2073 17.7177 71.0599 18.1177C70.9126 18.5175 70.8389 18.9491 70.8389 19.4121C70.8389 19.8752 70.9126 20.3053 71.0599 20.7022C71.2073 21.0992 71.4344 21.4194 71.7411 21.663C72.0478 21.9065 72.4387 22.0283 72.9139 22.0283ZM79.0122 22.8402L76.9013 15.912H78.0198L79.5173 21.2164H79.5895L81.069 15.912H82.2057L83.6671 21.1984H83.7393L85.2368 15.912H86.3554L84.2445 22.8402H83.1979L81.6825 17.5178H81.5741L80.0587 22.8402H79.0122ZM88.8273 18.6725V22.8402H87.7627V15.912H88.7912V16.9944H88.8814C89.0437 16.6426 89.2903 16.36 89.6211 16.1465C89.9519 15.93 90.3789 15.8217 90.9021 15.8217C91.3712 15.8217 91.7817 15.918 92.1334 16.1104C92.4853 16.2999 92.759 16.5885 92.9545 16.9764C93.1498 17.3614 93.2476 17.8485 93.2476 18.4379V22.8402H92.1831V18.51C92.1831 17.9657 92.0417 17.5418 91.7591 17.2381C91.4765 16.9313 91.0886 16.778 90.5954 16.778C90.2556 16.778 89.9519 16.8517 89.6843 16.999C89.4196 17.1464 89.2106 17.3614 89.0573 17.644C88.9039 17.9266 88.8273 18.2694 88.8273 18.6725ZM96.2573 13.6025V22.8402H95.1928V13.6025H96.2573ZM101.022 22.9845C100.396 22.9845 99.8474 22.8356 99.3753 22.538C98.9062 22.2403 98.5394 21.8238 98.2747 21.2886C98.0131 20.7533 97.8823 20.1279 97.8823 19.4121C97.8823 18.6905 98.0131 18.0605 98.2747 17.5222C98.5394 16.9839 98.9062 16.566 99.3753 16.2683C99.8474 15.9705 100.396 15.8217 101.022 15.8217C101.647 15.8217 102.194 15.9705 102.664 16.2683C103.136 16.566 103.502 16.9839 103.764 17.5222C104.029 18.0605 104.161 18.6905 104.161 19.4121C104.161 20.1279 104.029 20.7533 103.764 21.2886C103.502 21.8238 103.136 22.2403 102.664 22.538C102.194 22.8356 101.647 22.9845 101.022 22.9845ZM101.022 22.0283C101.497 22.0283 101.888 21.9065 102.194 21.663C102.501 21.4194 102.728 21.0992 102.876 20.7022C103.023 20.3053 103.097 19.8752 103.097 19.4121C103.097 18.9491 103.023 18.5175 102.876 18.1177C102.728 17.7177 102.501 17.3944 102.194 17.1479C101.888 16.9012 101.497 16.778 101.022 16.778C100.547 16.778 100.156 16.9012 99.8489 17.1479C99.5422 17.3944 99.3151 17.7177 99.1677 18.1177C99.0204 18.5175 98.9467 18.9491 98.9467 19.4121C98.9467 19.8752 99.0204 20.3053 99.1677 20.7022C99.3151 21.0992 99.5422 21.4194 99.8489 21.663C100.156 21.9065 100.547 22.0283 101.022 22.0283ZM107.825 23.0025C107.386 23.0025 106.987 22.9199 106.629 22.7545C106.272 22.5862 105.987 22.3441 105.777 22.0283C105.566 21.7095 105.461 21.3246 105.461 20.8736C105.461 20.4767 105.539 20.1549 105.696 19.9084C105.852 19.6588 106.061 19.4633 106.323 19.3219C106.584 19.1806 106.873 19.0754 107.189 19.0062C107.508 18.934 107.828 18.8769 108.149 18.8348C108.571 18.7807 108.912 18.7401 109.173 18.713C109.438 18.6829 109.63 18.6334 109.751 18.5641C109.874 18.495 109.936 18.3747 109.936 18.2033V18.1672C109.936 17.7221 109.814 17.3764 109.57 17.1298C109.33 16.8832 108.964 16.76 108.474 16.76C107.966 16.76 107.568 16.8712 107.279 17.0938C106.99 17.3162 106.787 17.5538 106.67 17.8063L105.66 17.4455C105.84 17.0245 106.081 16.6968 106.381 16.4622C106.685 16.2247 107.016 16.0593 107.374 15.9661C107.734 15.8698 108.089 15.8217 108.438 15.8217C108.661 15.8217 108.916 15.8487 109.205 15.903C109.497 15.954 109.778 16.0607 110.049 16.2232C110.322 16.3855 110.549 16.6307 110.73 16.9584C110.91 17.2862 111 17.7252 111 18.2754V22.8402H109.936V21.9021H109.882C109.809 22.0523 109.689 22.2132 109.521 22.3846C109.352 22.5561 109.128 22.7019 108.849 22.8222C108.569 22.9425 108.228 23.0025 107.825 23.0025ZM107.987 22.0463C108.408 22.0463 108.763 21.9637 109.052 21.7983C109.343 21.6329 109.563 21.4194 109.71 21.1577C109.861 20.8962 109.936 20.6209 109.936 20.3324V19.358C109.891 19.4121 109.791 19.4618 109.638 19.5069C109.488 19.549 109.313 19.5865 109.115 19.6197C108.919 19.6498 108.728 19.6768 108.542 19.7008C108.359 19.7219 108.21 19.7399 108.095 19.7549C107.819 19.791 107.56 19.8497 107.32 19.9309C107.082 20.0091 106.89 20.1279 106.742 20.2873C106.598 20.4436 106.526 20.657 106.526 20.9277C106.526 21.2976 106.663 21.5773 106.936 21.7666C107.213 21.9531 107.563 22.0463 107.987 22.0463ZM115.559 22.9845C114.982 22.9845 114.472 22.8387 114.03 22.547C113.588 22.2524 113.242 21.8374 112.993 21.3021C112.743 20.7638 112.618 20.1279 112.618 19.3941C112.618 18.6664 112.743 18.035 112.993 17.4997C113.242 16.9645 113.59 16.5509 114.035 16.2593C114.48 15.9676 114.994 15.8217 115.577 15.8217C116.028 15.8217 116.385 15.8969 116.646 16.0473C116.911 16.1946 117.112 16.363 117.251 16.5524C117.392 16.7389 117.502 16.8922 117.58 17.0125H117.67V13.6025H118.735V22.8402H117.706V21.7757H117.58C117.502 21.9021 117.391 22.0613 117.246 22.2539C117.102 22.4433 116.896 22.6132 116.628 22.7635C116.361 22.9108 116.004 22.9845 115.559 22.9845ZM115.704 22.0283C116.131 22.0283 116.492 21.917 116.786 21.6945C117.081 21.469 117.305 21.1577 117.458 20.7608C117.612 20.3609 117.688 19.8994 117.688 19.376C117.688 18.8588 117.613 18.4062 117.463 18.0183C117.312 17.6275 117.09 17.3238 116.795 17.1072C116.501 16.8877 116.137 16.778 115.704 16.778C115.253 16.778 114.877 16.8937 114.576 17.1253C114.278 17.3538 114.054 17.6651 113.904 18.059C113.757 18.4499 113.683 18.8889 113.683 19.376C113.683 19.8692 113.758 20.3172 113.908 20.7203C114.062 21.1201 114.287 21.4389 114.585 21.6765C114.886 21.9111 115.259 22.0283 115.704 22.0283ZM127.219 22.9845C126.593 22.9845 126.045 22.8356 125.573 22.538C125.103 22.2403 124.736 21.8238 124.472 21.2886C124.21 20.7533 124.08 20.1279 124.08 19.4121C124.08 18.6905 124.21 18.0605 124.472 17.5222C124.736 16.9839 125.103 16.566 125.573 16.2683C126.045 15.9705 126.593 15.8217 127.219 15.8217C127.844 15.8217 128.392 15.9705 128.861 16.2683C129.333 16.566 129.7 16.9839 129.962 17.5222C130.226 18.0605 130.358 18.6905 130.358 19.4121C130.358 20.1279 130.226 20.7533 129.962 21.2886C129.7 21.8238 129.333 22.2403 128.861 22.538C128.392 22.8356 127.844 22.9845 127.219 22.9845ZM127.219 22.0283C127.695 22.0283 128.086 21.9065 128.392 21.663C128.699 21.4194 128.925 21.0992 129.073 20.7022C129.22 20.3053 129.294 19.8752 129.294 19.4121C129.294 18.9491 129.22 18.5175 129.073 18.1177C128.925 17.7177 128.699 17.3944 128.392 17.1479C128.086 16.9012 127.695 16.778 127.219 16.778C126.744 16.778 126.353 16.9012 126.046 17.1479C125.74 17.3944 125.512 17.7177 125.365 18.1177C125.218 18.5175 125.144 18.9491 125.144 19.4121C125.144 19.8752 125.218 20.3053 125.365 20.7022C125.512 21.0992 125.74 21.4194 126.046 21.663C126.353 21.9065 126.744 22.0283 127.219 22.0283ZM133.048 18.6725V22.8402H131.984V15.912H133.012V16.9944H133.102C133.264 16.6426 133.511 16.36 133.842 16.1465C134.172 15.93 134.599 15.8217 135.123 15.8217C135.593 15.8217 136.003 15.918 136.355 16.1104C136.707 16.2999 136.98 16.5885 137.175 16.9764C137.371 17.3614 137.469 17.8485 137.469 18.4379V22.8402H136.404V18.51C136.404 17.9657 136.262 17.5418 135.98 17.2381C135.697 16.9313 135.309 16.778 134.816 16.778C134.476 16.778 134.172 16.8517 133.904 16.999C133.64 17.1464 133.432 17.3614 133.278 17.644C133.125 17.9266 133.048 18.2694 133.048 18.6725ZM145.999 15.912V16.8141H142.408V15.912H145.999ZM143.455 14.252H144.519V20.8555C144.519 21.1562 144.563 21.3818 144.65 21.5322C144.74 21.6795 144.855 21.7787 144.993 21.8298C145.134 21.8779 145.283 21.9021 145.44 21.9021C145.557 21.9021 145.654 21.896 145.729 21.884C145.804 21.8689 145.863 21.857 145.909 21.8479L146.125 22.8041C146.054 22.8312 145.952 22.8582 145.823 22.8853C145.694 22.9154 145.53 22.9304 145.331 22.9304C145.031 22.9304 144.737 22.8657 144.447 22.7364C144.161 22.6071 143.924 22.4103 143.734 22.1455C143.548 21.881 143.455 21.5472 143.455 21.1443V14.252ZM148.814 18.6725V22.8402H147.749V13.6025H148.814V16.9944H148.904C149.067 16.6366 149.309 16.3525 149.634 16.142C149.962 15.9285 150.398 15.8217 150.943 15.8217C151.415 15.8217 151.828 15.9164 152.184 16.1059C152.538 16.2923 152.812 16.5795 153.008 16.9674C153.207 17.3524 153.307 17.8424 153.307 18.4379V22.8402H152.242V18.51C152.242 17.9598 152.099 17.5343 151.813 17.2335C151.531 16.9298 151.138 16.778 150.635 16.778C150.287 16.778 149.975 16.8517 149.698 16.999C149.424 17.1464 149.208 17.3614 149.048 17.644C148.891 17.9266 148.814 18.2694 148.814 18.6725ZM158.159 22.9845C157.491 22.9845 156.915 22.8372 156.431 22.5425C155.95 22.2447 155.579 21.8298 155.317 21.2976C155.058 20.7623 154.929 20.1399 154.929 19.4301C154.929 18.7205 155.058 18.0951 155.317 17.5538C155.579 17.0096 155.942 16.5856 156.408 16.2817C156.877 15.9751 157.424 15.8217 158.051 15.8217C158.411 15.8217 158.767 15.8819 159.119 16.0022C159.471 16.1225 159.791 16.3179 160.08 16.5885C160.369 16.8561 160.599 17.211 160.77 17.653C160.942 18.0951 161.027 18.6393 161.027 19.2859V19.7369H155.687V18.8168H159.945C159.945 18.4258 159.867 18.077 159.71 17.7703C159.557 17.4635 159.337 17.2215 159.052 17.0441C158.768 16.8667 158.436 16.778 158.051 16.778C157.626 16.778 157.259 16.8832 156.949 17.0938C156.643 17.3012 156.407 17.5719 156.242 17.9057C156.076 18.2393 155.993 18.5973 155.993 18.9791V19.5926C155.993 20.1158 156.083 20.5593 156.264 20.9232C156.448 21.2841 156.702 21.5592 157.027 21.7486C157.351 21.9351 157.728 22.0283 158.159 22.0283C158.438 22.0283 158.691 21.9892 158.916 21.9111C159.144 21.8298 159.341 21.7095 159.508 21.5502C159.673 21.3878 159.801 21.1863 159.891 20.9457L160.919 21.2344C160.811 21.5832 160.629 21.89 160.373 22.1546C160.117 22.4162 159.802 22.6207 159.426 22.7681C159.05 22.9124 158.627 22.9845 158.159 22.9845Z" fill="white"/>
<path d="M58.3072 48.9182H54.7235L61.2484 30.3842H65.3931L71.9271 48.9182H68.3434L63.3931 34.1851H63.2484L58.3072 48.9182ZM58.4248 41.6512H68.1985V44.3481H58.4248V41.6512ZM74.2235 54.1309V35.0177H77.4452V37.3164H77.6352C77.8042 36.9785 78.0424 36.6195 78.3502 36.2394C78.6579 35.8533 79.0742 35.5245 79.599 35.2531C80.124 34.9755 80.7936 34.8368 81.6081 34.8368C82.682 34.8368 83.6504 35.1112 84.5131 35.6603C85.3819 36.2032 86.0697 37.0087 86.5765 38.0766C87.0892 39.1384 87.3457 40.4415 87.3457 41.9861C87.3457 43.5125 87.0953 44.8096 86.5946 45.8774C86.0938 46.9453 85.4121 47.7598 84.5493 48.3208C83.6866 48.882 82.7091 49.1626 81.6171 49.1626C80.8207 49.1626 80.1602 49.0298 79.6352 48.7644C79.1104 48.4988 78.6881 48.1792 78.3683 47.805C78.0545 47.4249 77.8102 47.066 77.6352 46.7281H77.4995V54.1309H74.2235ZM77.4362 41.968C77.4362 42.8668 77.5628 43.6542 77.8163 44.3299C78.0757 45.0057 78.4467 45.5335 78.9294 45.9136C79.4181 46.2877 80.0093 46.4748 80.7031 46.4748C81.4271 46.4748 82.0334 46.2817 82.5222 45.8955C83.0108 45.5034 83.3788 44.9694 83.6262 44.2937C83.8796 43.612 84.0063 42.8368 84.0063 41.968C84.0063 41.1052 83.8827 40.3389 83.6352 39.6693C83.3879 38.9996 83.0199 38.4748 82.5312 38.0947C82.0424 37.7146 81.4331 37.5245 80.7031 37.5245C80.0033 37.5245 79.409 37.7086 78.9204 38.0766C78.4316 38.4446 78.0605 38.9604 77.8072 39.6241C77.5598 40.2877 77.4362 41.0691 77.4362 41.968ZM90.1511 54.1309V35.0177H93.3728V37.3164H93.5628C93.7318 36.9785 93.9701 36.6195 94.2778 36.2394C94.5855 35.8533 95.0018 35.5245 95.5266 35.2531C96.0516 34.9755 96.7212 34.8368 97.5357 34.8368C98.6096 34.8368 99.578 35.1112 100.441 35.6603C101.31 36.2032 101.997 37.0087 102.504 38.0766C103.017 39.1384 103.273 40.4415 103.273 41.9861C103.273 43.5125 103.023 44.8096 102.522 45.8774C102.021 46.9453 101.34 47.7598 100.477 48.3208C99.6142 48.882 98.6367 49.1626 97.5447 49.1626C96.7484 49.1626 96.0878 49.0298 95.5628 48.7644C95.038 48.4988 94.6157 48.1792 94.2959 47.805C93.9822 47.4249 93.7378 47.066 93.5628 46.7281H93.4271V54.1309H90.1511ZM93.3638 41.968C93.3638 42.8668 93.4905 43.6542 93.7439 44.3299C94.0033 45.0057 94.3744 45.5335 94.857 45.9136C95.3457 46.2877 95.9369 46.4748 96.6307 46.4748C97.3547 46.4748 97.961 46.2817 98.4498 45.8955C98.9385 45.5034 99.3065 44.9694 99.5538 44.2937C99.8072 43.612 99.9339 42.8368 99.9339 41.968C99.9339 41.1052 99.8103 40.3389 99.5628 39.6693C99.3155 38.9996 98.9475 38.4748 98.4588 38.0947C97.9701 37.7146 97.3607 37.5245 96.6307 37.5245C95.9309 37.5245 95.3367 37.7086 94.848 38.0766C94.3592 38.4446 93.9882 38.9604 93.7348 39.6241C93.4874 40.2877 93.3638 41.0691 93.3638 41.968ZM122.617 35.4792C122.532 34.689 122.177 34.0735 121.549 33.6332C120.928 33.1927 120.119 32.9725 119.124 32.9725C118.424 32.9725 117.824 33.0781 117.324 33.2892C116.823 33.5004 116.439 33.787 116.174 34.149C115.908 34.511 115.773 34.9242 115.766 35.3888C115.766 35.7748 115.854 36.1097 116.029 36.3933C116.21 36.6769 116.455 36.9182 116.762 37.1172C117.07 37.3104 117.41 37.4732 117.785 37.606C118.158 37.7387 118.535 37.8503 118.916 37.9407L120.653 38.3753C121.354 38.5381 122.025 38.7583 122.671 39.0358C123.323 39.3133 123.905 39.6632 124.418 40.0856C124.937 40.5079 125.347 41.0177 125.649 41.6151C125.95 42.2123 126.102 42.9122 126.102 43.7146C126.102 44.8006 125.824 45.7567 125.268 46.5833C124.714 47.4039 123.911 48.0464 122.861 48.511C121.818 48.9694 120.554 49.1988 119.069 49.1988C117.628 49.1988 116.376 48.9755 115.314 48.529C114.258 48.0826 113.432 47.4311 112.834 46.5743C112.243 45.7176 111.923 44.6738 111.875 43.443H115.178C115.226 44.0887 115.426 44.6256 115.775 45.0539C116.126 45.4823 116.581 45.8021 117.143 46.0132C117.71 46.2244 118.343 46.33 119.042 46.33C119.773 46.33 120.412 46.2213 120.961 46.0042C121.516 45.781 121.95 45.4732 122.264 45.081C122.578 44.6828 122.738 44.2184 122.744 43.6874C122.738 43.2048 122.596 42.8066 122.318 42.4929C122.041 42.173 121.652 41.9076 121.151 41.6965C120.657 41.4792 120.077 41.2862 119.413 41.1172L117.304 40.5743C115.779 40.1821 114.573 39.5879 113.686 38.7915C112.804 37.989 112.364 36.9242 112.364 35.597C112.364 34.5048 112.659 33.5487 113.251 32.7281C113.847 31.9076 114.659 31.2712 115.685 30.8187C116.711 30.3601 117.873 30.1309 119.17 30.1309C120.485 30.1309 121.637 30.3601 122.627 30.8187C123.622 31.2712 124.403 31.9016 124.97 32.71C125.537 33.5125 125.83 34.4355 125.848 35.4792H122.617ZM135.891 35.0177V37.5516H127.899V35.0177H135.891ZM129.873 31.6874H133.149V44.7373C133.149 45.1776 133.215 45.5154 133.348 45.7508C133.487 45.98 133.668 46.1368 133.891 46.2213C134.114 46.3058 134.361 46.3481 134.634 46.3481C134.839 46.3481 135.025 46.3329 135.194 46.3027C135.369 46.2727 135.501 46.2455 135.592 46.2213L136.145 48.7825C135.969 48.8428 135.719 48.9091 135.393 48.9815C135.073 49.0539 134.681 49.0962 134.217 49.1082C133.396 49.1324 132.657 49.0087 132 48.7373C131.342 48.4597 130.82 48.0313 130.434 47.4521C130.054 46.873 129.867 46.149 129.873 45.2802V31.6874ZM144.544 49.1897C143.187 49.1897 142.011 48.8911 141.015 48.2937C140.02 47.6965 139.248 46.8609 138.698 45.7869C138.156 44.713 137.884 43.4582 137.884 42.0223C137.884 40.5864 138.156 39.3285 138.698 38.2485C139.248 37.1686 140.02 36.3299 141.015 35.7327C142.011 35.1353 143.187 34.8368 144.544 34.8368C145.903 34.8368 147.079 35.1353 148.074 35.7327C149.069 36.3299 149.839 37.1686 150.382 38.2485C150.931 39.3285 151.206 40.5864 151.206 42.0223C151.206 43.4582 150.931 44.713 150.382 45.7869C149.839 46.8609 149.069 47.6965 148.074 48.2937C147.079 48.8911 145.903 49.1897 144.544 49.1897ZM144.562 46.5652C145.299 46.5652 145.914 46.3631 146.409 45.959C146.904 45.5487 147.271 44.9996 147.513 44.3118C147.761 43.6241 147.884 42.8578 147.884 42.0133C147.884 41.1626 147.761 40.3933 147.513 39.7055C147.271 39.0117 146.904 38.4596 146.409 38.0494C145.914 37.6391 145.299 37.434 144.562 37.434C143.809 37.434 143.181 37.6391 142.68 38.0494C142.186 38.4596 141.815 39.0117 141.568 39.7055C141.326 40.3933 141.206 41.1626 141.206 42.0133C141.206 42.8578 141.326 43.6241 141.568 44.3118C141.815 44.9996 142.186 45.5487 142.68 45.959C143.181 46.3631 143.809 46.5652 144.562 46.5652ZM153.986 48.9182V35.0177H157.163V37.3345H157.307C157.561 36.5321 157.995 35.9136 158.61 35.4792C159.232 35.0389 159.941 34.8187 160.737 34.8187C160.918 34.8187 161.121 34.8277 161.344 34.8458C161.573 34.8578 161.763 34.8789 161.913 34.9091V37.9227C161.774 37.8745 161.555 37.8322 161.253 37.796C160.958 37.7538 160.671 37.7327 160.393 37.7327C159.795 37.7327 159.259 37.8624 158.783 38.1218C158.312 38.3753 157.94 38.7281 157.669 39.1807C157.397 39.6332 157.262 40.1549 157.262 40.7462V48.9182H153.986ZM169.672 49.1897C168.278 49.1897 167.074 48.9001 166.061 48.3208C165.053 47.7357 164.278 46.9091 163.735 45.8412C163.193 44.7673 162.92 43.5034 162.92 42.0494C162.92 40.6195 163.193 39.3647 163.735 38.2847C164.285 37.1988 165.05 36.3541 166.034 35.7508C167.016 35.1414 168.172 34.8368 169.5 34.8368C170.356 34.8368 171.165 34.9755 171.925 35.2531C172.692 35.5245 173.367 35.9469 173.952 36.52C174.543 37.0931 175.008 37.8231 175.346 38.71C175.684 39.5909 175.853 40.6407 175.853 41.8593V42.8639H164.459V40.6557H172.712C172.706 40.0283 172.571 39.4702 172.306 38.9815C172.039 38.4867 171.669 38.0976 171.192 37.8141C170.722 37.5306 170.173 37.3888 169.544 37.3888C168.876 37.3888 168.287 37.5516 167.78 37.8774C167.274 38.1972 166.879 38.6195 166.595 39.1444C166.317 39.6632 166.175 40.2334 166.169 40.8549V42.7825C166.169 43.5908 166.317 44.2847 166.613 44.8639C166.908 45.4371 167.322 45.8774 167.852 46.1851C168.384 46.4869 169.005 46.6376 169.716 46.6376C170.193 46.6376 170.625 46.5712 171.011 46.4386C171.397 46.2998 171.732 46.0977 172.015 45.8322C172.299 45.5668 172.513 45.2379 172.657 44.8458L175.717 45.1897C175.524 45.9981 175.156 46.704 174.613 47.3073C174.076 47.9046 173.387 48.3691 172.549 48.7009C171.711 49.0268 170.751 49.1897 169.672 49.1897Z" fill="white"/>
</svg>
