<svg width="52" height="52" viewBox="0 0 52 52" fill="none" xmlns="http://www.w3.org/2000/svg">
<path fill-rule="evenodd" clip-rule="evenodd" d="M25.9999 8.66659C16.427 8.66659 8.66659 16.427 8.66659 25.9999C8.66659 35.5729 16.427 43.3333 25.9999 43.3333C35.5729 43.3333 43.3333 35.5729 43.3333 25.9999C43.3333 16.427 35.5729 8.66659 25.9999 8.66659ZM4.33325 25.9999C4.33325 14.0337 14.0337 4.33325 25.9999 4.33325C37.9661 4.33325 47.6666 14.0337 47.6666 25.9999C47.6666 37.9661 37.9661 47.6666 25.9999 47.6666C14.0337 47.6666 4.33325 37.9661 4.33325 25.9999Z" fill="black"/>
<path fill-rule="evenodd" clip-rule="evenodd" d="M34.032 17.9679C34.6123 18.5482 34.815 19.4066 34.5555 20.1851L31.3055 29.9351C31.0898 30.5821 30.5821 31.0898 29.9351 31.3055L20.1851 34.5555C19.4066 34.815 18.5482 34.6123 17.9679 34.032C17.3876 33.4517 17.185 32.5934 17.4445 31.8148L20.6945 22.0648C20.9102 21.4178 21.4178 20.9102 22.0648 20.6945L31.8148 17.4445C32.5934 17.185 33.4517 17.3876 34.032 17.9679ZM24.4629 24.4629L22.9258 29.0742L27.5371 27.5371L29.0742 22.9258L24.4629 24.4629Z" fill="black"/>
</svg>
