<svg width="46" height="46" viewBox="0 0 46 46" fill="none" xmlns="http://www.w3.org/2000/svg">
<path fill-rule="evenodd" clip-rule="evenodd" d="M22.9998 4.6C23.6001 4.6 24.1946 4.71898 24.7492 4.95015C25.3039 5.18132 25.8078 5.52016 26.2323 5.94731C26.6569 6.37446 26.9936 6.88156 27.2233 7.43965C27.4531 7.99775 27.5713 8.59592 27.5713 9.2C27.5713 9.80408 27.4531 10.4022 27.2233 10.9603C26.9936 11.5184 26.6569 12.0255 26.2323 12.4527C25.8078 12.8798 25.3039 13.2187 24.7492 13.4498C24.1946 13.681 23.6001 13.8 22.9998 13.8C22.3994 13.8 21.8049 13.681 21.2503 13.4498C20.6956 13.2187 20.1917 12.8798 19.7672 12.4527C19.3427 12.0255 19.0059 11.5184 18.7762 10.9603C18.5464 10.4022 18.4282 9.80408 18.4282 9.2C18.4282 8.59592 18.5464 7.99776 18.7762 7.43966C19.0059 6.88156 19.3427 6.37446 19.7672 5.94731C20.1917 5.52016 20.6956 5.18133 21.2503 4.95016C21.8049 4.71898 22.3994 4.6 22.9998 4.6ZM26.4987 0.700307C25.3894 0.237964 24.2004 -5.48361e-07 22.9998 0C21.7991 5.48365e-07 20.6101 0.237966 19.5008 0.70031C18.3915 1.16265 17.3836 1.84032 16.5346 2.69462C15.6856 3.54892 15.0121 4.56312 14.5526 5.67932C14.0931 6.79551 13.8566 7.99184 13.8566 9.20001C13.8566 10.4082 14.0931 11.6045 14.5526 12.7207C15.0121 13.8369 15.6856 14.8511 16.5346 15.7054C17.3836 16.5597 18.3915 17.2373 19.5008 17.6997C20.6101 18.162 21.7991 18.4 22.9998 18.4C24.2005 18.4 25.3894 18.162 26.4987 17.6997C27.608 17.2373 28.6159 16.5597 29.4649 15.7054C30.314 14.8511 30.9874 13.8369 31.4469 12.7207C31.9064 11.6045 32.1429 10.4082 32.1429 9.2C32.1429 7.99184 31.9064 6.7955 31.4469 5.67931C30.9874 4.56311 30.3139 3.54891 29.4649 2.69461C28.6159 1.84032 27.608 1.16265 26.4987 0.700307Z" fill="#33363F"/>
<path fill-rule="evenodd" clip-rule="evenodd" d="M13.102 31.049C13.4022 31.5722 13.597 32.1497 13.6754 32.7486C13.7537 33.3475 13.7141 33.9561 13.5587 34.5396C13.4033 35.1231 13.1352 35.6701 12.7698 36.1493C12.4043 36.6286 11.9486 37.0307 11.4287 37.3327C10.9088 37.6348 10.3348 37.8308 9.73961 37.9097C9.1444 37.9885 8.53958 37.9486 7.95969 37.7923C7.3798 37.6359 6.83619 37.3662 6.3599 36.9985C5.88361 36.6307 5.48397 36.1722 5.1838 35.649C4.88363 35.1259 4.6888 34.5484 4.61044 33.9495C4.53208 33.3505 4.57172 32.742 4.7271 32.1585C4.88248 31.575 5.15056 31.028 5.51603 30.5487C5.88149 30.0695 6.33719 29.6674 6.85711 29.3653C7.37702 29.0633 7.95097 28.8672 8.54618 28.7884C9.1414 28.7095 9.74621 28.7494 10.3261 28.9058C10.906 29.0621 11.4496 29.3319 11.9259 29.6996C12.4022 30.0673 12.8018 30.5259 13.102 31.049ZM18.2078 32.1482C18.0511 30.9504 17.6614 29.7953 17.0611 28.749C16.4607 27.7027 15.6615 26.7857 14.7089 26.0502C13.7563 25.3147 12.6691 24.7752 11.5093 24.4625C10.3495 24.1498 9.13989 24.07 7.94947 24.2277C6.75905 24.3854 5.61115 24.7775 4.57132 25.3816C3.53149 25.9857 2.62009 26.7899 1.88916 27.7484C1.15822 28.7069 0.622063 29.8009 0.311301 30.9679C0.000538748 32.1349 -0.0787451 33.3521 0.0779771 34.5499C0.234699 35.7477 0.624358 36.9027 1.22471 37.949C1.82505 38.9953 2.62433 39.9124 3.57691 40.6479C4.52948 41.3834 5.6167 41.9229 6.77648 42.2355C7.93626 42.5482 9.1459 42.628 10.3363 42.4703C11.5267 42.3126 12.6746 41.9205 13.7145 41.3165C14.7543 40.7124 15.6657 39.9081 16.3966 38.9496C17.1276 37.9911 17.6637 36.8972 17.9745 35.7302C18.2853 34.5632 18.3645 33.346 18.2078 32.1482Z" fill="#33363F"/>
<path fill-rule="evenodd" clip-rule="evenodd" d="M32.8975 31.049C32.5973 31.5722 32.4025 32.1497 32.3242 32.7486C32.2458 33.3475 32.2854 33.9561 32.4408 34.5396C32.5962 35.1231 32.8643 35.6701 33.2297 36.1493C33.5952 36.6286 34.0509 37.0307 34.5708 37.3328C35.0907 37.6348 35.6647 37.8308 36.2599 37.9097C36.8551 37.9885 37.4599 37.9486 38.0398 37.7923C38.6197 37.6359 39.1633 37.3662 39.6396 36.9985C40.1159 36.6307 40.5155 36.1722 40.8157 35.649C41.1159 35.1259 41.3107 34.5484 41.3891 33.9495C41.4674 33.3505 41.4278 32.742 41.2724 32.1585C41.117 31.575 40.849 31.028 40.4835 30.5487C40.118 30.0695 39.6623 29.6674 39.1424 29.3653C38.6225 29.0633 38.0485 28.8672 37.4533 28.7884C36.8581 28.7095 36.2533 28.7494 35.6734 28.9058C35.0935 29.0621 34.5499 29.3319 34.0736 29.6996C33.5973 30.0673 33.1977 30.5259 32.8975 31.049ZM27.7917 32.1482C27.9484 30.9504 28.3381 29.7953 28.9384 28.749C29.5388 27.7027 30.3381 26.7857 31.2906 26.0502C32.2432 25.3147 33.3304 24.7752 34.4902 24.4625C35.65 24.1498 36.8596 24.07 38.05 24.2277C39.2405 24.3854 40.3884 24.7775 41.4282 25.3816C42.468 25.9857 43.3794 26.7899 44.1104 27.7484C44.8413 28.7069 45.3774 29.8009 45.6882 30.9679C45.999 32.1349 46.0783 33.3521 45.9215 34.5499C45.7648 35.7477 45.3752 36.9027 44.7748 37.949C44.1745 38.9953 43.3752 39.9124 42.4226 40.6479C41.47 41.3834 40.3828 41.9229 39.223 42.2356C38.0633 42.5482 36.8536 42.628 35.6632 42.4703C34.4728 42.3126 33.3249 41.9205 32.285 41.3165C31.2452 40.7124 30.3338 39.9081 29.6029 38.9496C28.8719 37.9911 28.3358 36.8972 28.025 35.7302C27.7143 34.5632 27.635 33.346 27.7917 32.1482Z" fill="#33363F"/>
<path fill-rule="evenodd" clip-rule="evenodd" d="M16.3015 10.6793C16.1959 10.1948 16.1422 9.6991 16.1422 9.20069C16.1422 8.29457 16.3196 7.39733 16.6642 6.56018C16.8281 6.16198 17.0284 5.78109 17.2618 5.42218C16.5385 5.63358 15.8258 5.88521 15.1272 6.17639C12.6312 7.21666 10.3634 8.74142 8.4531 10.6636C6.54281 12.5858 5.02748 14.8677 3.99364 17.3792C2.95979 19.8906 2.42769 22.5823 2.42769 25.3007C2.42769 26.9687 2.62804 28.6267 3.02172 30.2392C3.21392 29.8562 3.44165 29.4913 3.70244 29.1493C4.25064 28.4304 4.93419 27.8272 5.71406 27.3741C6.14304 27.1249 6.59653 26.9238 7.06636 26.7736C7.02173 26.2848 6.99926 25.7933 6.99926 25.3007C6.99926 23.1864 7.41312 21.0928 8.21722 19.1395C9.02132 17.1862 10.1999 15.4113 11.6857 13.9163C13.0234 12.5703 14.5865 11.4748 16.3015 10.6793ZM29.6977 10.6792C31.4128 11.4747 32.976 12.5702 34.3138 13.9163C35.7996 15.4113 36.9782 17.1861 37.7823 19.1395C38.5864 21.0928 39.0003 23.1864 39.0003 25.3007C39.0003 25.7933 38.9778 26.2849 38.9331 26.7737C39.4029 26.9239 39.8563 27.125 40.2851 27.3742C41.065 27.8272 41.7486 28.4304 42.2968 29.1493C42.5576 29.4914 42.7854 29.8565 42.9777 30.2396C43.3714 28.627 43.5718 26.9688 43.5718 25.3007C43.5718 22.5823 43.0397 19.8906 42.0059 17.3791C40.972 14.8677 39.4567 12.5857 37.5464 10.6636C35.6361 8.7414 33.3683 7.21665 30.8723 6.17638C30.1736 5.88515 29.4608 5.6335 28.7373 5.42207C28.9708 5.78101 29.171 6.16194 29.335 6.56017C29.6796 7.39732 29.857 8.29457 29.857 9.20069C29.857 9.69905 29.8033 10.1947 29.6977 10.6792ZM37.2409 40.2389C36.8149 40.2629 36.3865 40.247 35.9614 40.1907C35.0686 40.0724 34.2077 39.7784 33.4278 39.3253C32.9991 39.0763 32.5995 38.7818 32.2355 38.4478C31.2672 39.1365 30.2236 39.7164 29.1229 40.1751C27.1816 40.9842 25.101 41.4007 22.9998 41.4007C20.8985 41.4007 18.8179 40.9843 16.8766 40.1752C15.7759 39.7164 14.7322 39.1364 13.7638 38.4477C13.3998 38.7818 13.0002 39.0762 12.5714 39.3253C11.7915 39.7784 10.9306 40.0724 10.0378 40.1907C9.61282 40.247 9.18456 40.2629 8.75863 40.2389C10.6035 42.0196 12.763 43.4396 15.1272 44.425C17.6231 45.4653 20.2982 46.0007 22.9998 46.0007C25.7013 46.0007 28.3764 45.4653 30.8723 44.425C33.2365 43.4396 35.396 42.0196 37.2409 40.2389Z" fill="#33363F"/>
</svg>
