<svg width="53" height="52" viewBox="0 0 53 52" fill="none" xmlns="http://www.w3.org/2000/svg">
<path fill-rule="evenodd" clip-rule="evenodd" d="M26.5002 8.66659C16.9272 8.66659 9.16683 16.427 9.16683 25.9999C9.16683 35.5729 16.9272 43.3333 26.5002 43.3333C36.0731 43.3333 43.8335 35.5729 43.8335 25.9999C43.8335 16.427 36.0731 8.66659 26.5002 8.66659ZM4.8335 25.9999C4.8335 14.0337 14.534 4.33325 26.5002 4.33325C38.4663 4.33325 48.1668 14.0337 48.1668 25.9999C48.1668 37.9661 38.4663 47.6666 26.5002 47.6666C14.534 47.6666 4.8335 37.9661 4.8335 25.9999Z" fill="white"/>
<path fill-rule="evenodd" clip-rule="evenodd" d="M34.5323 17.9679C35.1126 18.5482 35.3152 19.4066 35.0557 20.1851L31.8057 29.9351C31.59 30.5821 31.0824 31.0898 30.4354 31.3055L20.6854 34.5555C19.9068 34.815 19.0485 34.6123 18.4682 34.032C17.8879 33.4517 17.6852 32.5934 17.9447 31.8148L21.1947 22.0648C21.4104 21.4178 21.9181 20.9102 22.5651 20.6945L32.3151 17.4445C33.0936 17.185 33.952 17.3876 34.5323 17.9679ZM24.9631 24.4629L23.426 29.0742L28.0373 27.5371L29.5744 22.9258L24.9631 24.4629Z" fill="white"/>
</svg>
