<svg width="53" height="53" viewBox="0 0 53 53" fill="none" xmlns="http://www.w3.org/2000/svg">
<path fill-rule="evenodd" clip-rule="evenodd" d="M41.4774 3.11932C42.3011 3.39542 42.8989 4.11199 43.0229 4.97177L43.6458 9.29149L48.022 9.91079C48.887 10.0332 49.608 10.6352 49.8829 11.4645C50.1578 12.2938 49.939 13.2072 49.3184 13.8221L41.4959 21.5711C40.8814 22.1799 39.9774 22.3924 39.1561 22.1212L35.2763 20.84L27.5852 28.459C26.6828 29.353 25.2265 29.3461 24.3326 28.4437C23.4386 27.5412 23.4455 26.085 24.3479 25.191L32.0242 17.5868L30.7441 13.7826C30.4643 12.951 30.682 12.0326 31.3053 11.4151L39.1278 3.66607C39.7449 3.05472 40.6538 2.84323 41.4774 3.11932ZM36.4755 16.3917L39.26 17.3112L42.7883 13.816L41.2933 13.6044C40.2812 13.4612 39.485 12.6671 39.3391 11.6554L39.1216 10.1471L35.5611 13.6742L36.4755 16.3917ZM25.9666 10.0353C16.3547 10.0353 8.59975 17.7485 8.59975 27.2177C8.59975 36.6868 16.3547 44.4 25.9666 44.4C35.5785 44.4 43.3334 36.6868 43.3334 27.2177C43.3334 25.9474 44.3631 24.9177 45.6334 24.9177C46.9036 24.9177 47.9334 25.9474 47.9334 27.2177C47.9334 39.2681 38.078 49 25.9666 49C13.8551 49 3.99976 39.2681 3.99976 27.2177C3.99976 15.1672 13.8551 5.43535 25.9666 5.43535C27.2368 5.43535 28.2666 6.4651 28.2666 7.73535C28.2666 9.0056 27.2368 10.0353 25.9666 10.0353ZM25.9666 19.7765C21.7855 19.7765 18.4332 23.1284 18.4332 27.2177C18.4332 31.3069 21.7855 34.6588 25.9666 34.6588C30.1476 34.6588 33.5 31.3069 33.5 27.2177C33.5 25.9474 34.5297 24.9177 35.8 24.9177C37.0702 24.9177 38.1 25.9474 38.1 27.2177C38.1 33.8882 32.6472 39.2588 25.9666 39.2588C19.286 39.2588 13.8332 33.8882 13.8332 27.2177C13.8332 20.5471 19.286 15.1765 25.9666 15.1765C27.2368 15.1765 28.2666 16.2063 28.2666 17.4765C28.2666 18.7468 27.2368 19.7765 25.9666 19.7765Z" fill="black"/>
</svg>
