<svg width="52" height="52" viewBox="0 0 52 52" fill="none" xmlns="http://www.w3.org/2000/svg">
<path fill-rule="evenodd" clip-rule="evenodd" d="M4.33325 15.1666C4.33325 9.1835 9.1835 4.33325 15.1666 4.33325H36.8333C42.8163 4.33325 47.6666 9.1835 47.6666 15.1666V36.8333C47.6666 42.8163 42.8163 47.6666 36.8333 47.6666H15.1666C9.1835 47.6666 4.33325 42.8163 4.33325 36.8333V15.1666ZM15.1666 8.66659C11.5767 8.66659 8.66659 11.5767 8.66659 15.1666V36.8333C8.66659 40.4231 11.5767 43.3333 15.1666 43.3333H36.8333C40.4231 43.3333 43.3333 40.4231 43.3333 36.8333V15.1666C43.3333 11.5767 40.4231 8.66659 36.8333 8.66659H15.1666Z" fill="white"/>
<path fill-rule="evenodd" clip-rule="evenodd" d="M23.8333 25.9999C23.8333 21.2135 27.7135 17.3333 32.4999 17.3333H43.3333C45.7265 17.3333 47.6666 19.2734 47.6666 21.6666V30.3333C47.6666 32.7265 45.7265 34.6666 43.3333 34.6666H32.4999C27.7135 34.6666 23.8333 30.7864 23.8333 25.9999ZM32.4999 21.6666C30.1067 21.6666 28.1666 23.6067 28.1666 25.9999C28.1666 28.3932 30.1067 30.3333 32.4999 30.3333H43.3333V21.6666H32.4999Z" fill="white"/>
<path fill-rule="evenodd" clip-rule="evenodd" d="M30.3333 25.9999C30.3333 24.8033 31.3033 23.8333 32.4999 23.8333L32.7166 23.8333C33.9132 23.8333 34.8833 24.8033 34.8833 25.9999C34.8833 27.1965 33.9132 28.1666 32.7166 28.1666L32.4999 28.1666C31.3033 28.1666 30.3333 27.1965 30.3333 25.9999Z" fill="white"/>
</svg>
