<svg width="52" height="52" viewBox="0 0 52 52" fill="none" xmlns="http://www.w3.org/2000/svg">
<path fill-rule="evenodd" clip-rule="evenodd" d="M14.2397 7.13317C15.6834 6.64111 17.1948 6.50024 18.5313 6.50024C21.7049 6.50024 24.0977 7.85512 26.0011 9.21501C27.9195 7.84469 30.2963 6.50022 33.5072 6.50024C34.9347 6.50024 36.3949 6.69977 37.81 7.17052C46.4538 9.97046 49.238 19.2769 46.8247 26.9215L46.8146 26.9537L46.8034 26.9855C45.4679 30.7979 43.2839 34.2799 40.4187 37.1284L40.4063 37.1407L40.3938 37.1527C36.3924 41.005 31.8991 44.4849 27.1153 47.3574L25.9859 48.0356L24.8641 47.345C20.0907 44.4064 15.6822 41.02 11.6322 37.1363L11.6155 37.1203L11.5992 37.1039C8.75844 34.2608 6.57462 30.8044 5.2192 26.9956L5.20787 26.9638L5.19753 26.9316C2.7376 19.2703 5.53591 9.97503 14.2397 7.13317ZM18.5313 10.8336C17.4625 10.8336 16.4646 10.9513 15.6285 11.238L15.6124 11.2435L15.5962 11.2488C9.77184 13.1437 7.38621 19.5252 9.31323 25.575C10.452 28.7601 12.2791 31.6488 14.6485 34.0249C18.1466 37.3773 21.9309 40.3399 26.0121 42.9498C30.08 40.3948 33.9193 37.3692 37.3756 34.0433C39.7574 31.6717 41.5818 28.7685 42.7024 25.5852C44.6027 19.517 42.2013 13.1439 36.4678 11.2908L36.4485 11.2845L36.4485 11.2844C35.5306 10.9782 34.5373 10.8336 33.5072 10.8336C31.1438 10.8336 29.5099 11.971 27.3106 13.6418L25.9978 14.6392L24.6865 13.6398C22.5222 11.9902 20.8526 10.8336 18.5313 10.8336Z" fill="white"/>
</svg>
