<svg width="28" height="29" viewBox="0 0 28 29" fill="none" xmlns="http://www.w3.org/2000/svg">
<path d="M15.8504 10.676H17.1722C17.3181 10.676 17.4365 10.5576 17.4365 10.4117V8.63075C17.4365 8.49223 17.33 8.37697 17.192 8.36719C16.7714 8.33732 15.9498 8.29688 15.359 8.29688C13.7357 8.29688 12.6783 9.26967 12.6783 11.0376V12.7908H10.8278C10.6819 12.7908 10.5635 12.9092 10.5635 13.0551V14.9056C10.5635 15.0515 10.6819 15.1699 10.8278 15.1699H12.6783V20.1925C12.6783 20.3384 12.7967 20.4569 12.9426 20.4569H14.793C14.939 20.4569 15.0574 20.3384 15.0574 20.1925V15.1699H16.9665C17.1013 15.1699 17.2145 15.0687 17.2293 14.9346L17.4349 13.0842C17.4524 12.9277 17.3297 12.7908 17.1722 12.7908H15.0574V11.469C15.0574 11.031 15.4124 10.676 15.8504 10.676Z" fill="black"/>
</svg>
