<svg width="32" height="33" viewBox="0 0 32 33" fill="none" xmlns="http://www.w3.org/2000/svg">
<g clip-path="url(#clip0_537_22252)">
<path d="M15.9801 32.5001C24.8051 32.5001 31.9602 25.3478 31.9602 16.5261C31.9602 7.70442 24.8051 0.552124 15.9801 0.552124C7.15503 0.552124 0 7.70442 0 16.5261C0 25.3478 7.15503 32.5001 15.9801 32.5001Z" fill="#1A45C2"/>
<path fill-rule="evenodd" clip-rule="evenodd" d="M14.7666 8.46407C16.1394 8.46407 17.552 8.71524 18.9891 9.22065C27.8938 12.3787 31.381 21.6843 26.3066 28.7202C34.5923 21.5986 31.4514 10.1947 21.3915 6.62316C19.9544 6.11775 18.5509 5.86658 17.1689 5.86658C15.2477 5.86658 12.8116 6.6446 12.5879 8.80713C13.2927 8.56821 14.0649 8.46713 14.7666 8.46713V8.46407Z" fill="#42B4E6"/>
<path fill-rule="evenodd" clip-rule="evenodd" d="M26.9409 25.2559C26.9409 19.3135 22.6694 16.9274 18.1802 14.3942C16.4305 13.3864 12.5757 11.3342 12.5757 9.12569C12.5757 6.7181 15.1558 5.86351 17.1721 5.86351C18.551 5.86351 19.9575 6.11468 21.3946 6.62009C30.8325 9.97416 34.1787 20.214 27.7192 27.3449C30.3514 24.4962 31.9632 20.6919 31.9632 16.5261C31.9602 7.72586 24.7837 0.552124 15.9801 0.552124C11.9996 0.552124 8.35622 2.0224 5.55549 4.44224C5.11118 5.49287 4.89055 6.64459 4.89055 7.90658C4.89055 13.849 9.16212 16.2351 13.6513 18.7683C15.4009 19.776 19.2558 21.8283 19.2558 24.0368C19.2558 26.4443 16.6757 27.2989 14.6533 27.2989C13.2805 27.2989 11.874 27.0478 10.4368 26.5424C1.79565 23.4762 -1.73743 14.6331 2.68429 7.68604C0.989754 10.2223 0 13.2608 0 16.5261C0 25.3263 7.17648 32.5001 15.9801 32.5001C19.8962 32.5001 23.4875 31.0788 26.2729 28.7263C26.7203 27.6788 26.9409 26.5209 26.9409 25.2589V25.2559Z" fill="#FD7A09"/>
<path fill-rule="evenodd" clip-rule="evenodd" d="M17.0619 24.7045C15.6861 24.7045 14.2765 24.4503 12.8394 23.9479C3.93465 20.7838 0.450594 11.4781 5.52193 4.44836C-2.76381 11.567 0.377051 22.9708 10.437 26.5424C11.8741 27.0478 13.2776 27.2989 14.6534 27.2989C16.5808 27.2989 19.0169 26.5209 19.2406 24.3645C18.5358 24.6004 17.7636 24.7045 17.0619 24.7045Z" fill="#42B4E6"/>
<path d="M2.57697 7.80548C2.57697 7.80548 -2.44228 15.7481 2.57697 22.931C7.59621 30.1139 15.4928 30.313 15.4928 30.313C15.4928 30.313 24.4833 30.8062 22.6172 22.983C22.6172 22.983 21.2444 18.0484 12.3581 14.048C12.3581 14.048 7.51348 11.2239 9.09463 6.63845C10.6758 2.05302 19.0443 3.45285 19.0443 3.45285C19.0443 3.45285 26.803 4.64438 30.1859 12.2592C33.4493 19.681 29.2942 25.4304 28.047 26.9834C28.047 26.9834 34.911 20.1038 30.5444 9.96496C30.5444 9.96496 27.8387 2.77591 19.2741 0.892111C10.7126 -0.985557 5.52172 4.44835 5.52172 4.44835C5.52172 4.44835 1.85687 13.0035 12.0578 17.8554C12.0578 17.8554 14.4877 19.2369 16.5714 20.554C18.6551 21.8681 19.6694 23.6324 19.1239 24.9281C18.5785 26.2238 17.2639 27.8258 12.5909 27.1151C7.9149 26.4045 2.77614 22.5358 1.38191 17.8064C-0.0123263 13.077 1.4769 9.23901 2.58003 7.80855L2.57697 7.80548Z" fill="#FFB80F"/>
</g>
<defs>
<clipPath id="clip0_537_22252">
<rect width="32" height="32" fill="white" transform="translate(0 0.5)"/>
</clipPath>
</defs>
</svg>
