<svg width="53" height="53" viewBox="0 0 53 53" fill="none" xmlns="http://www.w3.org/2000/svg">
<path fill-rule="evenodd" clip-rule="evenodd" d="M11.4059 7.6576C9.89243 7.58251 9.06515 7.95075 8.62038 8.39552C8.17561 8.8403 7.80737 9.66758 7.88245 11.181C7.95755 12.6946 8.4748 14.6481 9.49715 16.9395C10.297 18.7323 11.3762 20.6657 12.7085 22.6695C14.178 20.8725 15.7987 19.0792 17.5515 17.3264C19.3042 15.5737 21.0975 13.953 22.8943 12.4837C20.8906 11.1514 18.9571 10.0721 17.1644 9.27229C14.8729 8.24995 12.9195 7.73269 11.4059 7.6576ZM26.5335 9.71601C23.9155 7.87376 21.3431 6.38469 18.9325 5.30921C16.3569 4.1601 13.8576 3.43427 11.6209 3.3233C9.38407 3.21232 7.16369 3.71505 5.55179 5.32694C3.9399 6.93884 3.43717 9.15922 3.54815 11.396C3.65912 13.6327 4.38496 16.1321 5.53406 18.7077C6.60955 21.1183 8.09863 23.6907 9.94091 26.3087C8.09883 28.9266 6.60989 31.4988 5.53448 33.9092C4.38537 36.4848 3.65954 38.9842 3.54857 41.2209C3.43759 43.4577 3.94032 45.6781 5.55221 47.29C7.16411 48.9019 9.38449 49.4046 11.6213 49.2936C13.858 49.1826 16.3574 48.4568 18.9329 47.3077C21.3434 46.2323 23.9156 44.7433 26.5335 42.9012C29.1514 44.7432 31.7236 46.2322 34.134 47.3076C36.7095 48.4567 39.2089 49.1825 41.4456 49.2935C43.6824 49.4045 45.9028 48.9017 47.5147 47.2898C49.1266 45.6779 49.6293 43.4576 49.5183 41.2207C49.4074 38.9841 48.6815 36.4847 47.5324 33.9091C46.457 31.4987 44.9681 28.9266 43.1261 26.3087C44.9683 23.6907 46.4574 21.1183 47.5328 18.7078C48.6819 16.1322 49.4078 13.6328 49.5187 11.3962C49.6297 9.15934 49.127 6.93896 47.5151 5.32706C45.9032 3.71517 43.6828 3.21244 41.446 3.32342C39.2093 3.43439 36.7099 4.16023 34.1344 5.30933C31.7239 6.38479 29.1515 7.87381 26.5335 9.71601ZM26.5335 15.1271C24.568 16.675 22.5765 18.4385 20.6201 20.395C18.6636 22.3515 16.8999 24.343 15.352 26.3087C16.8998 28.2742 18.6633 30.2656 20.6197 32.2219C22.5762 34.1785 24.5678 35.9422 26.5335 37.4902C28.4992 35.9422 30.4907 34.1786 32.4472 32.2221C34.4036 30.2657 36.1671 28.2743 37.715 26.3087C36.167 24.343 34.4034 22.3514 32.4468 20.3948C30.4904 18.4385 28.4991 16.675 26.5335 15.1271ZM40.3585 22.6695C38.889 20.8725 37.2682 19.0791 35.5154 17.3262C33.7627 15.5736 31.9696 13.953 30.1727 12.4837C32.1764 11.1514 34.1098 10.0722 35.9025 9.27242C38.194 8.25007 40.1474 7.73282 41.661 7.65772C43.1745 7.58264 44.0018 7.95088 44.4465 8.39565C44.8913 8.84042 45.2595 9.6677 45.1844 11.1811C45.1093 12.6947 44.5921 14.6482 43.5698 16.9396C42.7699 18.7324 41.6907 20.6658 40.3585 22.6695ZM40.3584 29.9479C38.8891 31.7448 37.2685 33.538 35.5158 35.2906C33.763 37.0434 31.9697 38.6641 30.1728 40.1335C32.1763 41.4656 34.1095 42.5447 35.9021 43.3445C38.1936 44.3668 40.147 44.8841 41.6606 44.9592C43.174 45.0343 44.0013 44.666 44.4461 44.2212C44.8909 43.7765 45.2591 42.9492 45.184 41.4358C45.1089 39.9222 44.5917 37.9687 43.5693 35.6773C42.7696 33.8847 41.6905 31.9515 40.3584 29.9479ZM22.8943 40.1335C21.0973 38.6641 19.3039 37.0434 17.5511 35.2905C15.7985 33.5379 14.1779 31.7448 12.7086 29.9479C11.3764 31.9515 10.2973 33.8848 9.49756 35.6774C8.47522 37.9688 7.95797 39.9223 7.88287 41.4359C7.80778 42.9493 8.17602 43.7766 8.6208 44.2214C9.06557 44.6661 9.89285 45.0344 11.4063 44.9593C12.9199 44.8842 14.8733 44.367 17.1648 43.3446C18.9574 42.5448 20.8907 41.4657 22.8943 40.1335ZM26.5328 24.1384C27.7312 24.1384 28.7026 25.1099 28.7026 26.3082V26.504C28.7026 27.7024 27.7312 28.6738 26.5328 28.6738C25.3345 28.6738 24.363 27.7024 24.363 26.504V26.3082C24.363 25.1099 25.3345 24.1384 26.5328 24.1384Z" fill="black"/>
</svg>
