<svg width="28" height="29" viewBox="0 0 28 29" fill="none" xmlns="http://www.w3.org/2000/svg">
<path d="M11.395 8.125C9.38527 8.125 7.75 9.76123 7.75 11.7715V16.9795C7.75 18.9895 9.38623 20.625 11.3965 20.625H16.6045C18.6145 20.625 20.25 18.9888 20.25 16.9785V11.77C20.25 9.76027 18.6138 8.125 16.6035 8.125H11.395ZM17.75 10.125C18.026 10.125 18.25 10.349 18.25 10.625C18.25 10.901 18.026 11.125 17.75 11.125C17.474 11.125 17.25 10.901 17.25 10.625C17.25 10.349 17.474 10.125 17.75 10.125ZM14 11.125C15.7925 11.125 17.25 12.5825 17.25 14.375C17.25 16.1675 15.7922 17.625 14 17.625C12.2075 17.625 10.75 16.1672 10.75 14.375C10.75 12.5827 12.2075 11.125 14 11.125ZM14 12.125C12.7572 12.125 11.75 13.1322 11.75 14.375C11.75 15.6178 12.7572 16.625 14 16.625C15.2428 16.625 16.25 15.6178 16.25 14.375C16.25 13.1322 15.2428 12.125 14 12.125Z" fill="black"/>
</svg>
