<svg width="28" height="29" viewBox="0 0 28 29" fill="none" xmlns="http://www.w3.org/2000/svg">
<path d="M10.8005 20.5068H8.13379V12.5068H10.8005V20.5068ZM9.46766 11.4401C8.73006 11.4401 8.13379 10.8422 8.13379 10.1062C8.13379 9.37024 8.73112 8.77344 9.46766 8.77344C10.2026 8.77344 10.8005 9.3713 10.8005 10.1062C10.8005 10.8422 10.2026 11.4401 9.46766 11.4401ZM20.4005 20.5068H17.8367V16.6134C17.8367 15.6849 17.8191 14.4908 16.5039 14.4908C15.169 14.4908 14.9637 15.502 14.9637 16.5462V20.5068H12.4005V12.5009H14.8613V13.5948H14.8959C15.2383 12.9654 16.0751 12.302 17.3231 12.302C19.9205 12.302 20.4005 13.9601 20.4005 16.1158V20.5068Z" fill="black"/>
</svg>
