<svg width="52" height="52" viewBox="0 0 52 52" fill="none" xmlns="http://www.w3.org/2000/svg">
<path fill-rule="evenodd" clip-rule="evenodd" d="M5.4149 22.8923C4.66903 17.6712 8.72038 13 13.9945 13H38.0053C43.2794 13 47.3308 17.6712 46.5849 22.8923L44.3745 38.3654C43.612 43.7024 39.0412 47.6667 33.65 47.6667H18.3498C12.9586 47.6667 8.38778 43.7024 7.62535 38.3654L5.4149 22.8923ZM13.9945 17.3333C11.3574 17.3333 9.33175 19.6689 9.70469 22.2795L11.9151 37.7526C12.3726 40.9548 15.1151 43.3333 18.3498 43.3333H33.65C36.8847 43.3333 39.6272 40.9548 40.0847 37.7526L42.2951 22.2795C42.6681 19.6689 40.6424 17.3333 38.0053 17.3333H13.9945Z" fill="black"/>
<path fill-rule="evenodd" clip-rule="evenodd" d="M20.4692 4.56198C21.5395 5.09712 21.9733 6.39858 21.4381 7.46887L17.5623 15.2206C17.0271 16.2909 15.7257 16.7247 14.6554 16.1895C13.5851 15.6544 13.1513 14.3529 13.6864 13.2826L17.5623 5.53094C18.0974 4.46066 19.3989 4.02684 20.4692 4.56198Z" fill="black"/>
<path fill-rule="evenodd" clip-rule="evenodd" d="M31.5312 4.56204C32.6015 4.0269 33.9029 4.46072 34.4381 5.53101L38.3139 13.2827C38.8491 14.353 38.4153 15.6545 37.345 16.1896C36.2747 16.7247 34.9732 16.2909 34.4381 15.2206L30.5622 7.46893C30.0271 6.39864 30.4609 5.09719 31.5312 4.56204Z" fill="black"/>
<path fill-rule="evenodd" clip-rule="evenodd" d="M26.0002 21.6667C27.1968 21.6667 28.1668 22.6368 28.1668 23.8334V28.1667H32.5002C33.6968 28.1667 34.6668 29.1368 34.6668 30.3334C34.6668 31.53 33.6968 32.5001 32.5002 32.5001H28.1668V36.8334C28.1668 38.03 27.1968 39.0001 26.0002 39.0001C24.8035 39.0001 23.8335 38.03 23.8335 36.8334L23.8335 32.5001H19.5002C18.3035 32.5001 17.3335 31.53 17.3335 30.3334C17.3335 29.1368 18.3035 28.1667 19.5002 28.1667H23.8335V23.8334C23.8335 22.6368 24.8035 21.6667 26.0002 21.6667Z" fill="black"/>
</svg>
