<svg width="52" height="52" viewBox="0 0 52 52" fill="none" xmlns="http://www.w3.org/2000/svg">
<path fill-rule="evenodd" clip-rule="evenodd" d="M4.3335 15.1668C4.3335 9.18375 9.18375 4.3335 15.1668 4.3335H36.8335C42.8166 4.3335 47.6668 9.18375 47.6668 15.1668V36.8335C47.6668 42.8166 42.8166 47.6668 36.8335 47.6668H15.1668C9.18375 47.6668 4.3335 42.8166 4.3335 36.8335V15.1668ZM15.1668 8.66683C11.577 8.66683 8.66683 11.577 8.66683 15.1668V36.8335C8.66683 40.4233 11.577 43.3335 15.1668 43.3335H36.8335C40.4233 43.3335 43.3335 40.4233 43.3335 36.8335V15.1668C43.3335 11.577 40.4233 8.66683 36.8335 8.66683H15.1668Z" fill="black"/>
<path fill-rule="evenodd" clip-rule="evenodd" d="M17.3332 21.6665C18.5298 21.6665 19.4998 22.6366 19.4998 23.8332L19.4998 34.6665C19.4998 35.8631 18.5298 36.8332 17.3332 36.8332C16.1366 36.8332 15.1665 35.8631 15.1665 34.6665L15.1665 23.8332C15.1665 22.6366 16.1366 21.6665 17.3332 21.6665Z" fill="black"/>
<path fill-rule="evenodd" clip-rule="evenodd" d="M34.6667 26C35.8633 26 36.8333 26.97 36.8333 28.1667V34.6667C36.8333 35.8633 35.8633 36.8333 34.6667 36.8333C33.47 36.8333 32.5 35.8633 32.5 34.6667L32.5 28.1667C32.5 26.97 33.47 26 34.6667 26Z" fill="black"/>
<path fill-rule="evenodd" clip-rule="evenodd" d="M26.0002 15.1665C27.1968 15.1665 28.1668 16.1366 28.1668 17.3332L28.1668 34.6665C28.1668 35.8631 27.1968 36.8332 26.0002 36.8332C24.8035 36.8332 23.8335 35.8631 23.8335 34.6665L23.8335 17.3332C23.8335 16.1366 24.8035 15.1665 26.0002 15.1665Z" fill="black"/>
</svg>
