<svg width="188" height="67" viewBox="0 0 188 67" fill="none" xmlns="http://www.w3.org/2000/svg">
<path d="M177.766 1.375H10.2334C5.53898 1.375 1.7334 5.18058 1.7334 9.875V57.875C1.7334 62.5694 5.53898 66.375 10.2334 66.375H177.766C182.461 66.375 186.266 62.5694 186.266 57.875V9.875C186.266 5.18058 182.461 1.375 177.766 1.375Z" fill="black"/>
<path d="M177.766 1.375H10.2334C5.53898 1.375 1.7334 5.18058 1.7334 9.875V57.875C1.7334 62.5694 5.53898 66.375 10.2334 66.375H177.766C182.461 66.375 186.266 62.5694 186.266 57.875V9.875C186.266 5.18058 182.461 1.375 177.766 1.375Z" stroke="white"/>
<path d="M32.9287 33.5547L35.2725 31.2109L24.2959 24.8828L32.9287 33.5547ZM22.0693 24.375L32.0693 34.375L22.0693 44.375C21.5615 44.1406 21.21 43.6328 21.21 43.0078V25.7812C21.21 25.1562 21.5615 24.6484 22.0693 24.375ZM38.6709 33.2031C39.4131 33.75 39.4131 35.0391 38.71 35.5859L36.3662 36.9141L33.7881 34.375L36.3662 31.875L38.6709 33.2031ZM24.2959 43.8672L32.9287 35.2344L35.2725 37.5781L24.2959 43.8672Z" fill="white"/>
<path d="M61.4928 14.5102C61.3936 14.2071 61.2632 13.9355 61.1011 13.6953C60.942 13.4523 60.7514 13.2452 60.5293 13.0742C60.3102 12.903 60.0611 12.7726 59.782 12.6824C59.5029 12.5924 59.1968 12.5474 58.8636 12.5474C58.3174 12.5474 57.8207 12.6885 57.3735 12.9706C56.9263 13.2527 56.5707 13.6683 56.3066 14.2177C56.0424 14.7668 55.9104 15.4406 55.9104 16.2389C55.9104 17.0373 56.0439 17.7111 56.311 18.2603C56.5782 18.8095 56.9398 19.2252 57.396 19.5074C57.8522 19.7895 58.3654 19.9306 58.9356 19.9306C59.4639 19.9306 59.929 19.818 60.3313 19.5928C60.7364 19.3648 61.0516 19.0437 61.2766 18.6295C61.5047 18.2123 61.6188 17.7215 61.6188 17.1574L61.961 17.2294H59.1878V16.2389H62.6993V17.2294C62.6993 17.9887 62.5371 18.649 62.2131 19.2102C61.8919 19.7715 61.4478 20.2067 60.8805 20.5158C60.3162 20.8219 59.668 20.9749 58.9356 20.9749C58.1193 20.9749 57.4021 20.7829 56.7838 20.3987C56.1686 20.0146 55.6883 19.4684 55.3431 18.7601C55.001 18.0518 54.83 17.2114 54.83 16.2389C54.83 15.5097 54.9274 14.8539 55.1225 14.2717C55.3207 13.6863 55.5997 13.1881 55.9599 12.777C56.32 12.3659 56.7463 12.0507 57.2384 11.8317C57.7307 11.6126 58.2724 11.5029 58.8636 11.5029C59.3498 11.5029 59.803 11.5765 60.2233 11.7235C60.6464 11.8677 61.0231 12.0733 61.3532 12.3404C61.6864 12.6045 61.964 12.921 62.186 13.2902C62.4081 13.6564 62.5612 14.0631 62.6453 14.5102H61.4928ZM67.3666 20.9929C66.7003 20.9929 66.1256 20.8459 65.6423 20.5518C65.1621 20.2546 64.7916 19.8404 64.5304 19.3093C64.2723 18.775 64.1432 18.1538 64.1432 17.4454C64.1432 16.7371 64.2723 16.1129 64.5304 15.5727C64.7916 15.0295 65.1546 14.6063 65.6199 14.3031C66.0881 13.9971 66.6343 13.8439 67.2586 13.8439C67.6187 13.8439 67.9743 13.904 68.3255 14.0241C68.6767 14.1441 68.9962 14.3392 69.2844 14.6093C69.5726 14.8764 69.8021 15.2306 69.9732 15.6717C70.1443 16.1129 70.2297 16.6561 70.2297 17.3014V17.7516H64.8996V16.8332H69.1494C69.1494 16.443 69.0713 16.0949 68.9152 15.7888C68.7622 15.4826 68.543 15.2411 68.2579 15.064C67.9758 14.8869 67.6427 14.7984 67.2586 14.7984C66.8354 14.7984 66.4693 14.9034 66.1601 15.1136C65.8539 15.3206 65.6184 15.5907 65.4533 15.9239C65.2883 16.2569 65.2057 16.6142 65.2057 16.9953V17.6076C65.2057 18.1298 65.2957 18.5724 65.4757 18.9357C65.6589 19.2958 65.9125 19.5704 66.2366 19.7594C66.5608 19.9455 66.9374 20.0386 67.3666 20.0386C67.6457 20.0386 67.8979 19.9995 68.1229 19.9216C68.351 19.8404 68.5476 19.7204 68.7127 19.5614C68.8777 19.3993 69.0052 19.1982 69.0954 18.9581L70.1217 19.2462C70.0137 19.5944 69.8322 19.9005 69.577 20.1646C69.3219 20.4257 69.0068 20.6298 68.6316 20.7769C68.2565 20.9209 67.8347 20.9929 67.3666 20.9929ZM74.8533 13.9341V14.8344H71.2698V13.9341H74.8533ZM72.3142 12.2773H73.3766V18.8681C73.3766 19.1682 73.4201 19.3933 73.5072 19.5434C73.5972 19.6905 73.7113 19.7895 73.8494 19.8404C73.9904 19.8885 74.1389 19.9126 74.295 19.9126C74.412 19.9126 74.5081 19.9065 74.5831 19.8946C74.6582 19.8795 74.7182 19.8676 74.7632 19.8586L74.9793 20.8129C74.9073 20.8399 74.8068 20.8669 74.6777 20.8939C74.5487 20.924 74.385 20.9389 74.187 20.9389C73.8868 20.9389 73.5927 20.8744 73.3046 20.7453C73.0195 20.6163 72.7823 20.4198 72.5933 20.1556C72.4072 19.8915 72.3142 19.5584 72.3142 19.1562V12.2773ZM81.2774 11.6291V20.8489H80.1609V11.6291H81.2774ZM86.3793 13.9341V14.8344H82.7957V13.9341H86.3793ZM83.8401 12.2773H84.9026V18.8681C84.9026 19.1682 84.9461 19.3933 85.0332 19.5434C85.1232 19.6905 85.2372 19.7895 85.3752 19.8404C85.5163 19.8885 85.6649 19.9126 85.821 19.9126C85.938 19.9126 86.0341 19.9065 86.1091 19.8946C86.1842 19.8795 86.2441 19.8676 86.2891 19.8586L86.5053 20.8129C86.4333 20.8399 86.3328 20.8669 86.2037 20.8939C86.0746 20.924 85.911 20.9389 85.713 20.9389C85.4128 20.9389 85.1186 20.8744 84.8306 20.7453C84.5455 20.6163 84.3083 20.4198 84.1193 20.1556C83.9332 19.8915 83.8401 19.5584 83.8401 19.1562V12.2773ZM94.3521 20.9929C93.7278 20.9929 93.18 20.8444 92.7089 20.5473C92.2406 20.2502 91.8745 19.8345 91.6105 19.3003C91.3493 18.766 91.2187 18.1418 91.2187 17.4274C91.2187 16.7072 91.3493 16.0784 91.6105 15.5412C91.8745 15.0039 92.2406 14.5868 92.7089 14.2897C93.18 13.9925 93.7278 13.8439 94.3521 13.8439C94.9763 13.8439 95.5226 13.9925 95.9907 14.2897C96.4619 14.5868 96.8281 15.0039 97.0892 15.5412C97.3533 16.0784 97.4854 16.7072 97.4854 17.4274C97.4854 18.1418 97.3533 18.766 97.0892 19.3003C96.8281 19.8345 96.4619 20.2502 95.9907 20.5473C95.5226 20.8444 94.9763 20.9929 94.3521 20.9929ZM94.3521 20.0386C94.8263 20.0386 95.2164 19.917 95.5226 19.674C95.8287 19.4308 96.0553 19.1112 96.2023 18.7151C96.3494 18.3189 96.4229 17.8896 96.4229 17.4274C96.4229 16.9653 96.3494 16.5346 96.2023 16.1355C96.0553 15.7363 95.8287 15.4136 95.5226 15.1676C95.2164 14.9214 94.8263 14.7984 94.3521 14.7984C93.8779 14.7984 93.4877 14.9214 93.1816 15.1676C92.8754 15.4136 92.6489 15.7363 92.5018 16.1355C92.3547 16.5346 92.2812 16.9653 92.2812 17.4274C92.2812 17.8896 92.3547 18.3189 92.5018 18.7151C92.6489 19.1112 92.8754 19.4308 93.1816 19.674C93.4877 19.917 93.8779 20.0386 94.3521 20.0386ZM100.17 16.6892V20.8489H99.1072V13.9341H100.134V15.0144H100.224C100.386 14.6633 100.632 14.3812 100.962 14.1681C101.292 13.9521 101.718 13.8439 102.241 13.8439C102.709 13.8439 103.118 13.94 103.47 14.1321C103.821 14.3212 104.094 14.6093 104.289 14.9964C104.484 15.3807 104.582 15.8668 104.582 16.4551V20.8489H103.519V16.5271C103.519 15.9839 103.378 15.5607 103.096 15.2576C102.814 14.9514 102.427 14.7984 101.934 14.7984C101.595 14.7984 101.292 14.8719 101.025 15.019C100.761 15.166 100.552 15.3807 100.399 15.6627C100.246 15.9448 100.17 16.287 100.17 16.6892Z" fill="white"/>
<path d="M92.4357 36.5042C89.1194 36.5042 86.4164 39.0254 86.4164 42.4979C86.4164 45.9492 89.1194 48.4916 92.4357 48.4916C95.7534 48.4916 98.4564 45.9492 98.4564 42.4979C98.455 39.0254 95.752 36.5042 92.4357 36.5042ZM92.4357 46.1324C90.6182 46.1324 89.0517 44.6344 89.0517 42.4993C89.0517 40.3417 90.6196 38.8662 92.4357 38.8662C94.2532 38.8662 95.8197 40.3417 95.8197 42.4993C95.8197 44.633 94.2532 46.1324 92.4357 46.1324ZM79.303 36.5042C75.9867 36.5042 73.2838 39.0254 73.2838 42.4979C73.2838 45.9492 75.9867 48.4916 79.303 48.4916C82.6208 48.4916 85.3237 45.9492 85.3237 42.4979C85.3237 39.0254 82.6208 36.5042 79.303 36.5042ZM79.303 46.1324C77.4856 46.1324 75.9191 44.6344 75.9191 42.4993C75.9191 40.3417 77.487 38.8662 79.303 38.8662C81.1205 38.8662 82.687 40.3417 82.687 42.4993C82.6884 44.633 81.1205 46.1324 79.303 46.1324ZM63.6832 38.3448V40.8871H69.7715C69.5896 42.3175 69.113 43.3618 68.3855 44.0876C67.5 44.9726 66.114 45.9492 63.6832 45.9492C59.9354 45.9492 57.0054 42.9291 57.0054 39.1833C57.0054 35.4374 59.9354 32.4173 63.6832 32.4173C65.7051 32.4173 67.1814 33.2122 68.2713 34.2339L70.0662 32.4399C68.5434 30.9869 66.5229 29.875 63.6832 29.875C58.5494 29.875 54.2334 34.0521 54.2334 39.1833C54.2334 44.3145 58.5494 48.4916 63.6832 48.4916C66.4538 48.4916 68.5448 47.5826 70.179 45.8802C71.8597 44.2003 72.3828 41.8384 72.3828 39.9316C72.3828 39.3425 72.3377 38.7971 72.246 38.3433L63.6832 38.3448ZM127.567 40.3192C127.068 38.9803 125.545 36.5042 122.433 36.5042C119.344 36.5042 116.776 38.9338 116.776 42.4979C116.776 45.8576 119.321 48.4916 122.728 48.4916C125.476 48.4916 127.067 46.8117 127.726 45.8351L125.682 44.4723C125.001 45.4715 124.069 46.1296 122.728 46.1296C121.388 46.1296 120.434 45.5166 119.821 44.313L127.839 40.9984L127.567 40.3192ZM119.389 42.3175C119.321 40.0007 121.184 38.8211 122.525 38.8211C123.57 38.8211 124.455 39.3439 124.751 40.0923L119.389 42.3175ZM112.871 48.1294H115.505V30.512H112.871V48.1294ZM108.553 37.8445H108.463C107.872 37.1398 106.736 36.5042 105.306 36.5042C102.307 36.5042 99.559 39.1382 99.559 42.5219C99.559 45.8816 102.307 48.493 105.306 48.493C106.737 48.493 107.872 47.8574 108.463 47.1316H108.553V47.9941C108.553 50.287 107.327 51.5131 105.351 51.5131C103.738 51.5131 102.739 50.356 102.33 49.3794L100.036 50.3335C100.694 51.9217 102.442 53.875 105.351 53.875C108.441 53.875 111.053 52.0584 111.053 47.6305V36.8692H108.555L108.553 37.8445ZM105.533 46.1324C103.716 46.1324 102.194 44.6104 102.194 42.5219C102.194 40.4094 103.716 38.8662 105.533 38.8662C107.327 38.8662 108.735 40.4094 108.735 42.5219C108.735 44.6104 107.327 46.1324 105.533 46.1324ZM139.91 30.512H133.606V48.1294H136.236V41.455H139.909C142.825 41.455 145.692 39.3453 145.692 35.9842C145.692 32.6231 142.826 30.512 139.91 30.512ZM139.978 39.0029H136.236V32.9641H139.978C141.945 32.9641 143.061 34.5919 143.061 35.9842C143.061 37.3484 141.945 39.0029 139.978 39.0029ZM156.238 36.4732C154.333 36.4732 152.36 37.3118 151.544 39.1706L153.879 40.1444C154.378 39.1706 155.309 38.8521 156.283 38.8521C157.644 38.8521 159.027 39.6681 159.049 41.1182V41.3C158.573 41.028 157.552 40.6207 156.305 40.6207C153.789 40.6207 151.225 42.0032 151.225 44.5864C151.225 46.9442 153.29 48.462 155.602 48.462C157.37 48.462 158.346 47.6685 158.958 46.7384H159.048V48.0984H161.589V41.3437C161.59 38.2179 159.252 36.4732 156.238 36.4732ZM155.919 46.1282C155.059 46.1282 153.856 45.697 153.856 44.6315C153.856 43.2716 155.354 42.7502 156.647 42.7502C157.801 42.7502 158.347 42.9996 159.049 43.3392C158.845 44.9726 157.439 46.1282 155.919 46.1282ZM170.841 36.858L167.825 44.4963H167.735L164.605 36.858H161.771L166.464 47.5332L163.788 53.4719H166.532L173.767 36.858H170.841ZM147.145 48.1294H149.774V30.512H147.145V48.1294Z" fill="white"/>
</svg>
