<svg width="185" height="66" viewBox="0 0 185 66" fill="none" xmlns="http://www.w3.org/2000/svg">
<g clip-path="url(#clip0_37_163)">
<path d="M176.534 0.890625H8.99996C4.52116 0.890625 0.890381 4.52141 0.890381 9.00021V57.0002C0.890381 61.479 4.52116 65.1098 8.99996 65.1098H176.534C181.013 65.1098 184.643 61.479 184.643 57.0002V9.00021C184.643 4.52141 181.013 0.890625 176.534 0.890625Z" fill="white"/>
<path d="M176.534 0.890625H8.99996C4.52116 0.890625 0.890381 4.52141 0.890381 9.00021V57.0002C0.890381 61.479 4.52116 65.1098 8.99996 65.1098H176.534C181.013 65.1098 184.643 61.479 184.643 57.0002V9.00021C184.643 4.52141 181.013 0.890625 176.534 0.890625Z" stroke="#171F24" stroke-width="0.219163"/>
<path d="M31.6953 32.6797L34.0391 30.3359L23.0625 24.0078L31.6953 32.6797ZM20.8359 23.5L30.8359 33.5L20.8359 43.5C20.3281 43.2656 19.9766 42.7578 19.9766 42.1328V24.9062C19.9766 24.2812 20.3281 23.7734 20.8359 23.5ZM37.4375 32.3281C38.1797 32.875 38.1797 34.1641 37.4766 34.7109L35.1328 36.0391L32.5547 33.5L35.1328 31L37.4375 32.3281ZM23.0625 42.9922L31.6953 34.3594L34.0391 36.7031L23.0625 42.9922Z" fill="black"/>
<path d="M58.8523 18.0001C58.7741 17.761 58.6712 17.5467 58.5433 17.3573C58.4179 17.1656 58.2675 17.0022 58.0923 16.8673C57.9195 16.7323 57.723 16.6294 57.5028 16.5583C57.2827 16.4873 57.0412 16.4518 56.7784 16.4518C56.3475 16.4518 55.9557 16.5631 55.603 16.7856C55.2502 17.0081 54.9697 17.336 54.7614 17.7693C54.553 18.2025 54.4489 18.734 54.4489 19.3637C54.4489 19.9935 54.5542 20.525 54.7649 20.9582C54.9756 21.3914 55.2609 21.7193 55.6207 21.9419C55.9806 22.1644 56.3854 22.2757 56.8352 22.2757C57.2519 22.2757 57.6188 22.1869 57.9361 22.0093C58.2557 21.8294 58.5043 21.5761 58.6818 21.2494C58.8617 20.9203 58.9517 20.5332 58.9517 20.0882L59.2216 20.145H57.0341V19.3637H59.804V20.145C59.804 20.7439 59.6761 21.2648 59.4205 21.7075C59.1671 22.1502 58.8168 22.4935 58.3693 22.7373C57.9242 22.9788 57.4129 23.0995 56.8352 23.0995C56.1913 23.0995 55.6255 22.948 55.1378 22.645C54.6525 22.342 54.2737 21.9111 54.0014 21.3524C53.7315 20.7937 53.5966 20.1308 53.5966 19.3637C53.5966 18.7885 53.6735 18.2712 53.8274 17.8119C53.9837 17.3502 54.2038 16.9572 54.4879 16.6329C54.772 16.3086 55.1082 16.06 55.4964 15.8872C55.8847 15.7144 56.312 15.6279 56.7784 15.6279C57.1619 15.6279 57.5194 15.6859 57.8509 15.8019C58.1847 15.9156 58.4818 16.0778 58.7422 16.2885C59.005 16.4968 59.224 16.7465 59.3991 17.0377C59.5743 17.3266 59.6951 17.6474 59.7614 18.0001H58.8523ZM63.4856 23.1137C62.96 23.1137 62.5067 22.9977 62.1255 22.7657C61.7467 22.5313 61.4544 22.2046 61.2484 21.7856C61.0448 21.3642 60.943 20.8742 60.943 20.3154C60.943 19.7567 61.0448 19.2643 61.2484 18.8382C61.4544 18.4097 61.7408 18.0759 62.1078 17.8367C62.4771 17.5953 62.908 17.4745 63.4004 17.4745C63.6845 17.4745 63.965 17.5219 64.242 17.6166C64.519 17.7113 64.7711 17.8652 64.9984 18.0782C65.2257 18.2889 65.4068 18.5683 65.5417 18.9163C65.6767 19.2643 65.7441 19.6928 65.7441 20.2018V20.5569H61.5396V19.8325H64.8919C64.8919 19.5247 64.8303 19.2501 64.7072 19.0086C64.5865 18.7671 64.4136 18.5766 64.1887 18.4369C63.9662 18.2972 63.7034 18.2274 63.4004 18.2274C63.0666 18.2274 62.7778 18.3102 62.5339 18.476C62.2924 18.6393 62.1066 18.8524 61.9764 19.1152C61.8462 19.3779 61.7811 19.6597 61.7811 19.9603V20.4433C61.7811 20.8552 61.8521 21.2044 61.9941 21.4909C62.1386 21.775 62.3386 21.9916 62.5943 22.1407C62.85 22.2875 63.1471 22.3609 63.4856 22.3609C63.7058 22.3609 63.9047 22.3301 64.0822 22.2686C64.2621 22.2046 64.4172 22.1099 64.5474 21.9845C64.6776 21.8566 64.7782 21.698 64.8493 21.5086L65.6589 21.7359C65.5737 22.0105 65.4305 22.252 65.2292 22.4603C65.028 22.6663 64.7794 22.8273 64.4835 22.9433C64.1876 23.0569 63.8549 23.1137 63.4856 23.1137ZM69.3912 17.5456V18.2558H66.5645V17.5456H69.3912ZM67.3883 16.2387H68.2264V21.4376C68.2264 21.6743 68.2607 21.8519 68.3294 21.9703C68.4004 22.0863 68.4904 22.1644 68.5993 22.2046C68.7105 22.2425 68.8277 22.2615 68.9508 22.2615C69.0431 22.2615 69.1189 22.2567 69.1781 22.2473C69.2373 22.2354 69.2846 22.226 69.3201 22.2189L69.4906 22.9717C69.4338 22.993 69.3545 23.0143 69.2527 23.0356C69.1509 23.0593 69.0218 23.0711 68.8656 23.0711C68.6288 23.0711 68.3968 23.0202 68.1696 22.9184C67.9447 22.8166 67.7576 22.6616 67.6085 22.4532C67.4617 22.2449 67.3883 21.9821 67.3883 21.6649V16.2387ZM74.4586 15.7274V23.0001H73.5779V15.7274H74.4586ZM78.483 17.5456V18.2558H75.6562V17.5456H78.483ZM76.4801 16.2387H77.3182V21.4376C77.3182 21.6743 77.3525 21.8519 77.4212 21.9703C77.4922 22.0863 77.5821 22.1644 77.6911 22.2046C77.8023 22.2425 77.9195 22.2615 78.0426 22.2615C78.1349 22.2615 78.2107 22.2567 78.2699 22.2473C78.3291 22.2354 78.3764 22.226 78.4119 22.2189L78.5824 22.9717C78.5256 22.993 78.4463 23.0143 78.3445 23.0356C78.2427 23.0593 78.1136 23.0711 77.9574 23.0711C77.7206 23.0711 77.4886 23.0202 77.2614 22.9184C77.0365 22.8166 76.8494 22.6616 76.7003 22.4532C76.5535 22.2449 76.4801 21.9821 76.4801 21.6649V16.2387ZM84.772 23.1137C84.2796 23.1137 83.8475 22.9965 83.4759 22.7622C83.1065 22.5278 82.8177 22.1999 82.6094 21.7785C82.4034 21.3571 82.3004 20.8647 82.3004 20.3012C82.3004 19.7331 82.4034 19.2371 82.6094 18.8133C82.8177 18.3895 83.1065 18.0605 83.4759 17.8261C83.8475 17.5917 84.2796 17.4745 84.772 17.4745C85.2644 17.4745 85.6953 17.5917 86.0646 17.8261C86.4363 18.0605 86.7251 18.3895 86.9311 18.8133C87.1394 19.2371 87.2436 19.7331 87.2436 20.3012C87.2436 20.8647 87.1394 21.3571 86.9311 21.7785C86.7251 22.1999 86.4363 22.5278 86.0646 22.7622C85.6953 22.9965 85.2644 23.1137 84.772 23.1137ZM84.772 22.3609C85.1461 22.3609 85.4538 22.265 85.6953 22.0733C85.9368 21.8815 86.1155 21.6294 86.2315 21.3169C86.3475 21.0044 86.4055 20.6658 86.4055 20.3012C86.4055 19.9367 86.3475 19.5969 86.2315 19.2821C86.1155 18.9672 85.9368 18.7127 85.6953 18.5186C85.4538 18.3244 85.1461 18.2274 84.772 18.2274C84.398 18.2274 84.0902 18.3244 83.8487 18.5186C83.6072 18.7127 83.4285 18.9672 83.3125 19.2821C83.1965 19.5969 83.1385 19.9367 83.1385 20.3012C83.1385 20.6658 83.1965 21.0044 83.3125 21.3169C83.4285 21.6294 83.6072 21.8815 83.8487 22.0733C84.0902 22.265 84.398 22.3609 84.772 22.3609ZM89.361 19.7189V23.0001H88.5229V17.5456H89.3326V18.3978H89.4036C89.5314 18.1208 89.7256 17.8983 89.986 17.7302C90.2464 17.5598 90.5826 17.4745 90.9945 17.4745C91.3638 17.4745 91.687 17.5503 91.964 17.7018C92.2409 17.851 92.4564 18.0782 92.6103 18.3836C92.7641 18.6867 92.8411 19.0702 92.8411 19.5342V23.0001H92.003V19.591C92.003 19.1625 91.8917 18.8287 91.6692 18.5896C91.4467 18.3481 91.1413 18.2274 90.753 18.2274C90.4855 18.2274 90.2464 18.2854 90.0357 18.4014C89.8274 18.5174 89.6628 18.6867 89.5421 18.9092C89.4213 19.1317 89.361 19.4016 89.361 19.7189Z" fill="#171F24"/>
<path d="M91.2023 35.6292C87.886 35.6292 85.183 38.1504 85.183 41.6229C85.183 45.0742 87.886 47.6166 91.2023 47.6166C94.52 47.6166 97.223 45.0742 97.223 41.6229C97.2216 38.1504 94.5186 35.6292 91.2023 35.6292ZM91.2023 45.2574C89.3848 45.2574 87.8183 43.7594 87.8183 41.6243C87.8183 39.4667 89.3862 37.9912 91.2023 37.9912C93.0198 37.9912 94.5863 39.4667 94.5863 41.6243C94.5863 43.758 93.0198 45.2574 91.2023 45.2574ZM78.0696 35.6292C74.7533 35.6292 72.0504 38.1504 72.0504 41.6229C72.0504 45.0742 74.7533 47.6166 78.0696 47.6166C81.3874 47.6166 84.0903 45.0742 84.0903 41.6229C84.0903 38.1504 81.3874 35.6292 78.0696 35.6292ZM78.0696 45.2574C76.2522 45.2574 74.6857 43.7594 74.6857 41.6243C74.6857 39.4667 76.2536 37.9912 78.0696 37.9912C79.8871 37.9912 81.4536 39.4667 81.4536 41.6243C81.455 43.758 79.8871 45.2574 78.0696 45.2574ZM62.4498 37.4698V40.0121H68.5381C68.3562 41.4425 67.8796 42.4868 67.1521 43.2126C66.2666 44.0976 64.8806 45.0742 62.4498 45.0742C58.702 45.0742 55.772 42.0541 55.772 38.3083C55.772 34.5624 58.702 31.5423 62.4498 31.5423C64.4717 31.5423 65.948 32.3372 67.0379 33.3589L68.8328 31.5649C67.31 30.1119 65.2895 29 62.4498 29C57.316 29 53 33.1771 53 38.3083C53 43.4395 57.316 47.6166 62.4498 47.6166C65.2204 47.6166 67.3114 46.7076 68.9456 45.0052C70.6263 43.3253 71.1494 40.9634 71.1494 39.0566C71.1494 38.4675 71.1043 37.9221 71.0126 37.4683L62.4498 37.4698ZM126.334 39.4442C125.835 38.1053 124.312 35.6292 121.2 35.6292C118.111 35.6292 115.543 38.0588 115.543 41.6229C115.543 44.9826 118.088 47.6166 121.495 47.6166C124.243 47.6166 125.833 45.9367 126.493 44.9601L124.448 43.5973C123.767 44.5965 122.835 45.2546 121.495 45.2546C120.155 45.2546 119.201 44.6416 118.587 43.438L126.606 40.1234L126.334 39.4442ZM118.156 41.4425C118.088 39.1257 119.951 37.9461 121.292 37.9461C122.336 37.9461 123.222 38.4689 123.518 39.2173L118.156 41.4425ZM111.637 47.2544H114.271V29.637H111.637V47.2544ZM107.32 36.9695H107.23C106.639 36.2648 105.502 35.6292 104.073 35.6292C101.074 35.6292 98.3256 38.2632 98.3256 41.6469C98.3256 45.0066 101.074 47.618 104.073 47.618C105.504 47.618 106.639 46.9824 107.23 46.2566H107.32V47.1191C107.32 49.412 106.093 50.6381 104.118 50.6381C102.505 50.6381 101.505 49.481 101.096 48.5044L98.8022 49.4585C99.4606 51.0467 101.209 53 104.118 53C107.207 53 109.82 51.1834 109.82 46.7555V35.9942H107.321L107.32 36.9695ZM104.3 45.2574C102.482 45.2574 100.961 43.7354 100.961 41.6469C100.961 39.5344 102.482 37.9912 104.3 37.9912C106.093 37.9912 107.502 39.5344 107.502 41.6469C107.502 43.7354 106.093 45.2574 104.3 45.2574ZM138.677 29.637H132.373V47.2544H135.002V40.58H138.675C141.591 40.58 144.459 38.4703 144.459 35.1092C144.459 31.7481 141.593 29.637 138.677 29.637ZM138.744 38.1279H135.002V32.0891H138.744C140.711 32.0891 141.828 33.7169 141.828 35.1092C141.828 36.4734 140.711 38.1279 138.744 38.1279ZM155.004 35.5982C153.1 35.5982 151.127 36.4368 150.311 38.2956L152.646 39.2694C153.145 38.2956 154.075 37.9771 155.05 37.9771C156.41 37.9771 157.793 38.7931 157.816 40.2432V40.425C157.339 40.153 156.319 39.7457 155.072 39.7457C152.555 39.7457 149.992 41.1282 149.992 43.7114C149.992 46.0692 152.056 47.587 154.369 47.587C156.137 47.587 157.112 46.7935 157.724 45.8634H157.815V47.2234H160.355V40.4687C160.357 37.3429 158.019 35.5982 155.004 35.5982ZM154.686 45.2532C153.826 45.2532 152.623 44.822 152.623 43.7565C152.623 42.3966 154.12 41.8752 155.413 41.8752C156.568 41.8752 157.114 42.1246 157.816 42.4642C157.611 44.0976 156.206 45.2532 154.686 45.2532ZM169.608 35.983L166.592 43.6213H166.501L163.371 35.983H160.537L165.231 46.6582L162.555 52.5969H165.299L172.533 35.983H169.608ZM145.911 47.2544H148.541V29.637H145.911V47.2544Z" fill="black"/>
</g>
<defs>
<clipPath id="clip0_37_163">
<rect width="185" height="66" fill="white"/>
</clipPath>
</defs>
</svg>
