<svg width="262" height="272" viewBox="0 0 262 272" fill="none" xmlns="http://www.w3.org/2000/svg">
<rect x="64.0002" y="125" width="80" height="80" rx="40" fill="#FF8D07" fill-opacity="0.2"/>
<path fill-rule="evenodd" clip-rule="evenodd" d="M83.4153 161.892C82.6695 156.671 86.7208 152 91.9949 152H116.006C121.28 152 125.331 156.671 124.585 161.892L123.956 166.298C123.787 167.483 122.689 168.306 121.505 168.137C120.32 167.967 119.497 166.87 119.666 165.685L120.296 161.279C120.668 158.669 118.643 156.333 116.006 156.333H91.9949C89.3578 156.333 87.3322 158.669 87.7051 161.279L89.9156 176.753C90.373 179.955 93.1155 182.333 96.3502 182.333H99.6669C100.864 182.333 101.834 183.303 101.834 184.5C101.834 185.697 100.864 186.667 99.6669 186.667H96.3502C90.959 186.667 86.3882 182.702 85.6258 177.365L83.4153 161.892Z" fill="black"/>
<path fill-rule="evenodd" clip-rule="evenodd" d="M98.4692 143.562C99.5395 144.097 99.9733 145.399 99.4382 146.469L95.5623 154.221C95.0272 155.291 93.7257 155.725 92.6554 155.19C91.5851 154.654 91.1513 153.353 91.6865 152.283L95.5623 144.531C96.0975 143.461 97.3989 143.027 98.4692 143.562Z" fill="black"/>
<path fill-rule="evenodd" clip-rule="evenodd" d="M109.531 143.562C110.602 143.027 111.903 143.461 112.438 144.531L116.314 152.283C116.849 153.353 116.415 154.654 115.345 155.19C114.275 155.725 112.973 155.291 112.438 154.221L108.562 146.469C108.027 145.399 108.461 144.097 109.531 143.562Z" fill="black"/>
<path fill-rule="evenodd" clip-rule="evenodd" d="M112.667 173.667C110.274 173.667 108.334 175.607 108.334 178C108.334 180.393 110.274 182.333 112.667 182.333C115.06 182.333 117 180.393 117 178C117 175.607 115.06 173.667 112.667 173.667ZM104 178C104 173.213 107.88 169.333 112.667 169.333C117.453 169.333 121.334 173.213 121.334 178C121.334 182.786 117.453 186.667 112.667 186.667C107.88 186.667 104 182.786 104 178Z" fill="black"/>
<path d="M105.745 0.0825195H101.591V5.06774H105.745V0.0825195Z" fill="#707070"/>
<path d="M105.745 43.1132H101.591V33.6016H105.745V43.1132ZM105.745 24.0905H101.591V14.5789H105.745V24.0905Z" fill="#707070"/>
<path d="M105.745 52.6248H101.591V57.61H105.745V52.6248Z" fill="#707070"/>
<path d="M103.668 241.678C88.1244 241.661 72.9461 236.963 60.1104 228.196C47.2747 219.43 37.3766 207.001 31.7056 192.528H0.620483C12.993 237.823 54.5042 271.221 103.668 271.221C127.09 271.19 149.856 263.476 168.471 249.261C187.087 235.046 200.525 215.116 206.723 192.529H175.638C169.966 207.002 160.067 219.431 147.23 228.198C134.393 236.965 119.213 241.662 103.668 241.678Z" fill="#FF8D07"/>
<path d="M261.974 131.833L237.808 117.881V127.364H203.845C195.995 106.144 181.609 87.9639 162.761 75.4461C143.913 62.9283 121.577 56.7189 98.9729 57.7131C76.3687 58.7073 54.664 66.8537 36.9879 80.978C19.3118 95.1022 6.57739 114.475 0.620483 136.303H31.7056C37.3631 121.82 47.2583 109.382 60.0978 100.613C72.9373 91.8445 88.1236 87.1536 103.672 87.1536C119.22 87.1536 134.406 91.8445 147.246 100.613C160.085 109.382 169.98 121.82 175.638 136.303H237.808V145.786L261.974 131.833Z" fill="#FF8D07"/>
</svg>
