<svg width="262" height="272" viewBox="0 0 262 272" fill="none" xmlns="http://www.w3.org/2000/svg">
<rect x="63" y="125" width="80" height="80" rx="40" fill="#FF8D07" fill-opacity="0.2"/>
<path fill-rule="evenodd" clip-rule="evenodd" d="M103 147.667C93.427 147.667 85.6666 155.427 85.6666 165C85.6666 174.573 93.427 182.333 103 182.333C112.573 182.333 120.333 174.573 120.333 165C120.333 155.427 112.573 147.667 103 147.667ZM81.3333 165C81.3333 153.034 91.0338 143.333 103 143.333C114.966 143.333 124.667 153.034 124.667 165C124.667 176.966 114.966 186.667 103 186.667C91.0338 186.667 81.3333 176.966 81.3333 165Z" fill="black"/>
<path fill-rule="evenodd" clip-rule="evenodd" d="M111.032 156.968C111.612 157.548 111.815 158.407 111.555 159.185L108.305 168.935C108.09 169.582 107.582 170.09 106.935 170.305L97.1851 173.555C96.4066 173.815 95.5482 173.612 94.9679 173.032C94.3876 172.452 94.185 171.593 94.4445 170.815L97.6945 161.065C97.9102 160.418 98.4178 159.91 99.0648 159.694L108.815 156.444C109.593 156.185 110.452 156.388 111.032 156.968ZM101.463 163.463L99.9258 168.074L104.537 166.537L106.074 161.926L101.463 163.463Z" fill="black"/>
<path d="M105.192 0.0825195H101.038V5.06774H105.192V0.0825195Z" fill="#707070"/>
<path d="M105.192 43.1132H101.038V33.6016H105.192V43.1132ZM105.192 24.0905H101.038V14.5789H105.192V24.0905Z" fill="#707070"/>
<path d="M105.192 52.6248H101.038V57.61H105.192V52.6248Z" fill="#707070"/>
<path d="M103.116 241.678C87.5719 241.661 72.3935 236.963 59.5578 228.196C46.7221 219.43 36.8241 207.001 31.153 192.528H0.0681152C12.4398 237.823 53.9516 271.221 103.116 271.221C126.538 271.19 149.303 263.476 167.919 249.261C186.535 235.046 199.972 215.116 206.17 192.529H175.085C169.414 207.002 159.514 219.431 146.677 228.198C133.84 236.965 118.66 241.662 103.116 241.678Z" fill="#FF8D07"/>
<path d="M261.167 131.834L237.001 117.881V127.364H203.292C195.442 106.144 181.056 87.9647 162.208 75.447C143.36 62.9294 121.024 56.7201 98.4203 57.7143C75.8162 58.7085 54.1117 66.8548 36.4357 80.9789C18.7596 95.103 6.02517 114.475 0.0681152 136.303H31.1532C36.8107 121.821 46.7059 109.382 59.5454 100.613C72.3849 91.8448 87.5713 87.1539 103.119 87.1539C118.667 87.1539 133.854 91.8448 146.693 100.613C159.533 109.382 169.428 121.821 175.086 136.303H237.001V145.786L261.167 131.834Z" fill="#FF8D07"/>
</svg>
