<svg width="262" height="272" viewBox="0 0 262 272" fill="none" xmlns="http://www.w3.org/2000/svg">
<rect x="63.0002" y="68" width="80" height="80" rx="40" fill="#FF8D07" fill-opacity="0.2"/>
<path fill-rule="evenodd" clip-rule="evenodd" d="M94.3336 86.3333C95.5302 86.3333 96.5002 87.3033 96.5002 88.4999H113.834C119.817 88.4999 124.667 93.3502 124.667 99.3333V118.833C124.667 124.816 119.817 129.667 113.834 129.667H92.1669C86.1838 129.667 81.3336 124.816 81.3336 118.833V99.3333C81.3336 93.3502 86.1838 88.4999 92.1669 88.4999C92.1669 87.3033 93.1369 86.3333 94.3336 86.3333ZM92.1669 92.8333C88.577 92.8333 85.6669 95.7434 85.6669 99.3333V118.833C85.6669 122.423 88.577 125.333 92.1669 125.333H113.834C117.423 125.333 120.334 122.423 120.334 118.833V99.3333C120.334 95.7434 117.423 92.8333 113.834 92.8333H96.5002V94.9999C96.5002 96.1965 95.5302 97.1666 94.3336 97.1666C93.1369 97.1666 92.1669 96.1965 92.1669 94.9999V92.8333Z" fill="black"/>
<path fill-rule="evenodd" clip-rule="evenodd" d="M111.667 86.3333C112.864 86.3333 113.834 87.3033 113.834 88.4999V94.9999C113.834 96.1965 112.864 97.1666 111.667 97.1666C110.47 97.1666 109.5 96.1965 109.5 94.9999V88.4999C109.5 87.3033 110.47 86.3333 111.667 86.3333Z" fill="black"/>
<path fill-rule="evenodd" clip-rule="evenodd" d="M110.982 104.253C111.855 105.071 111.899 106.442 111.081 107.315L102.956 115.982C102.18 116.81 100.896 116.899 100.013 116.185L95.1384 112.246C94.2077 111.494 94.0629 110.13 94.815 109.199C95.5671 108.268 96.9313 108.123 97.862 108.875L101.171 111.55L107.92 104.352C108.738 103.479 110.109 103.434 110.982 104.253Z" fill="black"/>
<path d="M105.468 214.221H101.314V219.206H105.468V214.221Z" fill="#707070"/>
<path d="M105.468 257.251H101.314V247.74H105.468V257.251ZM105.468 238.229H101.314V228.717H105.468V238.229Z" fill="#707070"/>
<path d="M105.468 266.763H101.314V271.748H105.468V266.763Z" fill="#707070"/>
<path d="M103.392 30.1529C118.937 30.169 134.117 34.8663 146.954 43.633C159.791 52.3996 169.69 64.8293 175.362 79.3025H206.447C200.277 56.6998 186.847 36.7523 168.226 22.5326C149.605 8.31295 126.825 0.609863 103.395 0.609863C79.9658 0.609863 57.186 8.31295 38.5648 22.5326C19.9435 36.7523 6.51383 56.6998 0.344238 79.3025H31.4292C37.0994 64.8296 46.9973 52.4001 59.8332 43.6333C72.6691 34.8666 87.8478 30.1691 103.392 30.1529Z" fill="#FF8D07"/>
<path d="M261.571 139.997L237.404 126.045V135.528H175.362C169.704 150.01 159.809 162.449 146.97 171.218C134.13 179.986 118.944 184.677 103.396 184.677C87.8475 184.677 72.6611 179.986 59.8216 171.218C46.9821 162.449 37.0869 150.01 31.4294 135.528H0.344238C12.7165 180.823 54.2279 214.221 103.392 214.221C125.21 214.194 146.499 207.499 164.404 195.031C182.309 182.564 195.974 164.92 203.569 144.467H237.404V153.95L261.571 139.997Z" fill="#FF8D07"/>
</svg>
