<svg width="262" height="272" viewBox="0 0 262 272" fill="none" xmlns="http://www.w3.org/2000/svg">
<rect x="65.0002" y="68" width="80" height="80" rx="40" fill="#FF8D07" fill-opacity="0.2"/>
<path fill-rule="evenodd" clip-rule="evenodd" d="M88.1622 95.3094C87.1707 95.3094 86.3669 96.1132 86.3669 97.1046V114.933C86.3669 115.925 87.1707 116.728 88.1622 116.728H90.0541C90.6147 113.356 93.5454 110.786 97.0764 110.786C100.608 110.786 103.538 113.356 104.099 116.728H105.991C106.982 116.728 107.786 115.925 107.786 114.933V97.1046C107.786 96.1132 106.982 95.3094 105.991 95.3094H88.1622ZM112.007 95.9285C111.458 93.1064 108.973 90.9761 105.991 90.9761H88.1622C84.7774 90.9761 82.0336 93.7199 82.0336 97.1046V114.933C82.0336 118.318 84.7774 121.062 88.1622 121.062H90.1431C90.3224 121.062 90.4966 121.04 90.6632 120.999C91.8145 123.381 94.2536 125.024 97.0764 125.024C99.8993 125.024 102.338 123.381 103.49 120.999C103.656 121.04 103.83 121.062 104.01 121.062H105.991C107.202 121.062 108.331 120.71 109.282 120.104C109.892 120.611 110.65 120.947 111.482 121.037C112.641 123.398 115.069 125.024 117.876 125.024C120.684 125.024 123.112 123.398 124.271 121.037C126.349 120.812 127.967 119.052 127.967 116.914V108.695C127.967 107.753 127.646 106.839 127.058 106.104L120.163 97.4851C119.376 96.5012 118.184 95.9285 116.924 95.9285H112.007ZM112.119 100.262V113.716C113.414 111.94 115.51 110.786 117.876 110.786C120.243 110.786 122.339 111.94 123.634 113.716V108.76L116.835 100.262H112.119ZM123.674 108.811C123.674 108.811 123.674 108.811 123.674 108.811ZM97.0764 115.119C95.5379 115.119 94.2907 116.366 94.2907 117.905C94.2907 119.443 95.5379 120.69 97.0764 120.69C98.6149 120.69 99.8622 119.443 99.8622 117.905C99.8622 116.366 98.6149 115.119 97.0764 115.119ZM117.876 115.119C116.338 115.119 115.091 116.366 115.091 117.905C115.091 119.443 116.338 120.69 117.876 120.69C119.415 120.69 120.662 119.443 120.662 117.905C120.662 116.366 119.415 115.119 117.876 115.119Z" fill="black"/>
<path d="M105.284 214.221H101.13V219.206H105.284V214.221Z" fill="#707070"/>
<path d="M105.284 257.251H101.13V247.74H105.284V257.251ZM105.284 238.229H101.13V228.717H105.284V238.229Z" fill="#707070"/>
<path d="M105.284 266.763H101.13V271.748H105.284V266.763Z" fill="#707070"/>
<path d="M103.208 30.1529C118.753 30.1689 133.933 34.8662 146.77 43.6329C159.607 52.3996 169.506 64.8292 175.178 79.3025H206.263C200.094 56.6998 186.664 36.7523 168.043 22.5326C149.422 8.31295 126.642 0.609863 103.212 0.609863C79.7825 0.609863 57.0027 8.31295 38.3815 22.5326C19.7602 36.7523 6.33054 56.6998 0.16095 79.3025H31.2459C36.9161 64.8297 46.8139 52.4001 59.6498 43.6333C72.4856 34.8666 87.6644 30.1691 103.208 30.1529Z" fill="#FF8D07"/>
<path d="M261.641 139.997L237.475 126.045V135.528H175.178C169.52 150.01 159.625 162.449 146.786 171.218C133.946 179.986 118.76 184.677 103.212 184.677C87.6635 184.677 72.4772 179.986 59.6377 171.218C46.7982 162.449 36.9029 150.01 31.2454 135.528H0.1604C12.5325 180.823 54.044 214.221 103.208 214.221C125.026 214.194 146.315 207.499 164.22 195.031C182.125 182.564 195.791 164.92 203.385 144.466H237.475V153.95L261.641 139.997Z" fill="#FF8D07"/>
</svg>
