<svg width="33" height="32" viewBox="0 0 33 32" fill="none" xmlns="http://www.w3.org/2000/svg">
<path fill-rule="evenodd" clip-rule="evenodd" d="M6.90003 5.33317C5.8691 5.33317 5.03337 6.16891 5.03337 7.19984V18.3998C5.03337 19.4308 5.8691 20.2665 6.90003 20.2665H13.2693C13.2899 20.266 13.3105 20.266 13.3312 20.2665H26.1C27.131 20.2665 27.9667 19.4308 27.9667 18.3998V7.19984C27.9667 6.16891 27.131 5.33317 26.1 5.33317H6.90003ZM11.376 22.9332L9.65159 27.5317C9.39303 28.2212 9.74237 28.9897 10.4319 29.2483C11.1214 29.5068 11.8899 29.1575 12.1485 28.468L14.224 22.9332H18.8976L21.411 28.4627C21.7157 29.1331 22.5062 29.4295 23.1766 29.1248C23.847 28.8201 24.1434 28.0296 23.8387 27.3592L21.8268 22.9332H26.1C28.6037 22.9332 30.6334 20.9035 30.6334 18.3998V7.19984C30.6334 4.69615 28.6037 2.6665 26.1 2.6665H6.90003C4.39634 2.6665 2.3667 4.69615 2.3667 7.19984V18.3998C2.3667 20.9035 4.39634 22.9332 6.90003 22.9332H11.376ZM22.9 7.4665C23.6364 7.4665 24.2334 8.06346 24.2334 8.79984V15.1998C24.2334 15.9362 23.6364 16.5332 22.9 16.5332C22.1637 16.5332 21.5667 15.9362 21.5667 15.1998V8.79984C21.5667 8.06346 22.1637 7.4665 22.9 7.4665ZM16.5 10.6665C17.2364 10.6665 17.8334 11.2635 17.8334 11.9998V15.1998C17.8334 15.9362 17.2364 16.5332 16.5 16.5332C15.7637 16.5332 15.1667 15.9362 15.1667 15.1998V11.9998C15.1667 11.2635 15.7637 10.6665 16.5 10.6665ZM10.1 12.2665C10.8364 12.2665 11.4334 12.8635 11.4334 13.5998V15.1998C11.4334 15.9362 10.8364 16.5332 10.1 16.5332C9.36365 16.5332 8.7667 15.9362 8.7667 15.1998V13.5998C8.7667 12.8635 9.36365 12.2665 10.1 12.2665Z" fill="#FF8D07"/>
</svg>
