<svg width="52" height="52" viewBox="0 0 52 52" fill="none" xmlns="http://www.w3.org/2000/svg">
<path fill-rule="evenodd" clip-rule="evenodd" d="M25.9892 9.09654C25.757 9.2101 25.4482 9.39992 24.8517 9.77272L12.7547 17.3333L26 25.6116L36.3056 19.1706C37.6863 18.3077 38.5086 17.7869 39.0168 17.3537C39.0249 17.3468 39.0328 17.34 39.0405 17.3333C39.0328 17.3266 39.0249 17.3198 39.0168 17.3129C38.5086 16.8797 37.6863 16.3589 36.3056 15.496L27.1483 9.77272C26.5519 9.39992 26.243 9.2101 26.0108 9.09654C26.0071 9.09474 26.0035 9.093 26 9.0913C25.9965 9.093 25.9929 9.09474 25.9892 9.09654ZM29.445 6.09806C29.4219 6.08359 29.3987 6.0691 29.3755 6.0546C28.8777 5.74332 28.3744 5.42865 27.9143 5.20367C27.3873 4.94598 26.757 4.72168 26 4.72168C25.243 4.72168 24.6127 4.94598 24.0857 5.20367C23.6256 5.42865 23.1224 5.74333 22.6245 6.05461C22.6013 6.06911 22.5782 6.08359 22.555 6.09806L7.51835 15.496C6.88486 15.8919 6.50002 16.5863 6.50002 17.3333V32.2649C6.50002 32.2895 6.50001 32.3141 6.50001 32.3388C6.49991 32.8615 6.49981 33.3935 6.54382 33.8534C6.59431 34.381 6.71315 34.9709 7.04323 35.5664C7.37332 36.162 7.8106 36.5754 8.23118 36.8978C8.59786 37.1789 9.04905 37.4608 9.49239 37.7377L9.55502 37.7769L22.7464 46.0215C22.7876 46.0473 22.829 46.0731 22.8703 46.0989L23.1942 46.3014C23.2167 46.3155 23.24 46.3301 23.264 46.3451C23.5629 46.5324 23.9645 46.784 24.3353 46.9458C24.501 47.0181 24.7599 47.1174 25.0784 47.172C25.2815 47.2205 25.4971 47.2551 25.7262 47.2696C25.9086 47.2812 26.0915 47.2812 26.2739 47.2696C26.9428 47.2273 27.4966 47.014 27.9602 46.7806C28.367 46.5759 28.8128 46.2971 29.2537 46.0215L31.4817 44.629C32.4964 43.9948 32.8049 42.658 32.1707 41.6433C31.5365 40.6286 30.1998 40.3201 29.185 40.9543L28.1667 41.5908V29.3675L38.6022 22.8453C38.6454 22.8183 38.6885 22.7914 38.7315 22.7645C39.63 22.2031 40.4719 21.6771 41.1667 21.1695V26C41.1667 27.1966 42.1367 28.1666 43.3334 28.1666C44.53 28.1666 45.5 27.1966 45.5 26L45.5 19.6612C45.5001 19.1385 45.5002 18.6064 45.4562 18.1465C45.4057 17.619 45.2869 17.0291 44.9568 16.4335C44.6267 15.838 44.1894 15.4245 43.7689 15.1021C43.4022 14.821 42.951 14.5392 42.5076 14.2622L38.988 12.0624C38.903 12.0093 38.8175 11.9558 38.7314 11.902C38.6885 11.8752 38.6454 11.8483 38.6022 11.8213L29.445 6.09806ZM23.8334 29.3675L10.8334 21.2425V32.2649C10.8334 32.8927 10.8356 33.2127 10.8574 33.4406C10.8578 33.4445 10.8582 33.4482 10.8585 33.4518C10.8614 33.454 10.8644 33.4563 10.8675 33.4587C11.0492 33.598 11.3193 33.7695 11.8517 34.1022L23.8334 41.5908V29.3675ZM37.9167 32.5C36.1218 32.5 34.6667 33.955 34.6667 35.75C34.6667 37.5449 36.1218 39 37.9167 39C39.7116 39 41.1667 37.5449 41.1667 35.75C41.1667 33.955 39.7116 32.5 37.9167 32.5ZM30.3334 35.75C30.3334 31.5618 33.7285 28.1666 37.9167 28.1666C42.1048 28.1666 45.5 31.5618 45.5 35.75C45.5 37.056 45.1699 38.2848 44.5885 39.3577L47.0321 41.8012C47.8782 42.6474 47.8782 44.0192 47.0321 44.8654C46.1859 45.7115 44.8141 45.7115 43.968 44.8654L41.5244 42.4218C40.4515 43.0032 39.2227 43.3333 37.9167 43.3333C33.7285 43.3333 30.3334 39.9381 30.3334 35.75Z" fill="#33363F"/>
</svg>
