<svg width="32" height="32" viewBox="0 0 32 32" fill="none" xmlns="http://www.w3.org/2000/svg">
<path d="M14.3999 28.8001H6.39994C4.63262 28.8001 3.19994 27.3674 3.19995 25.6001L3.20007 6.40018C3.20009 4.63287 4.63277 3.2002 6.40007 3.2002H20.8004C22.5677 3.2002 24.0004 4.63288 24.0004 6.40019V12.8002M23.1999 23.1322V23.048M8.80045 9.60019H18.4004M8.80045 14.4002H18.4004M8.80045 19.2002H13.6004M28.7999 23.2002C28.7999 23.2002 27.4717 27.1197 23.1999 27.0513C18.9282 26.9828 17.5999 23.2002 17.5999 23.2002C17.5999 23.2002 18.8743 19.2122 23.1999 19.2122C27.5256 19.2122 28.7999 23.2002 28.7999 23.2002Z" stroke="#FF8D07" stroke-width="2" stroke-linecap="round" stroke-linejoin="round"/>
</svg>
