<svg width="184" height="42" viewBox="0 0 184 42" fill="none" xmlns="http://www.w3.org/2000/svg">
<mask id="mask0_4_2" style="mask-type:luminance" maskUnits="userSpaceOnUse" x="5" y="4" width="32" height="34">
<path d="M37 4.60976H5V37.3902H37V4.60976Z" fill="white"/>
</mask>
<g mask="url(#mask0_4_2)">
<path d="M20.9801 37.3899C29.8051 37.3899 36.9602 30.0632 36.9602 21.0263C36.9602 11.9895 29.8051 4.66278 20.9801 4.66278C12.155 4.66278 5 11.9895 5 21.0263C5 30.0632 12.155 37.3899 20.9801 37.3899Z" fill="#1A45C2"/>
<path fill-rule="evenodd" clip-rule="evenodd" d="M19.7666 12.7677C21.1394 12.7677 22.552 13.0249 23.9891 13.5426C32.8938 16.7778 36.381 26.3103 31.3066 33.5178C39.5923 26.2225 36.4514 14.5405 26.3915 10.8819C24.9544 10.3641 23.5509 10.1068 22.1689 10.1068C20.2477 10.1068 17.8116 10.9038 17.5879 13.1191C18.2927 12.8743 19.0649 12.7708 19.7666 12.7708V12.7677Z" fill="#42B4E6"/>
<path fill-rule="evenodd" clip-rule="evenodd" d="M31.9409 29.9691C31.9409 23.8817 27.6694 21.4374 23.1802 18.8424C21.4305 17.8101 17.5757 15.7078 17.5757 13.4454C17.5757 10.9791 20.1558 10.1037 22.1721 10.1037C23.551 10.1037 24.9575 10.361 26.3946 10.8787C35.8325 14.3146 39.1787 24.8042 32.7192 32.109C35.3514 29.1908 36.9632 25.2937 36.9632 21.0263C36.9602 12.0115 29.7837 4.66278 20.9801 4.66278C16.9996 4.66278 13.3562 6.16892 10.5555 8.64778C10.1112 9.72404 9.89055 10.9038 9.89055 12.1966C9.89055 18.2839 14.1621 20.7282 18.6513 23.3232C20.4009 24.3555 24.2558 26.4579 24.2558 28.7202C24.2558 31.1864 21.6757 32.0619 19.6533 32.0619C18.2805 32.0619 16.874 31.8047 15.4368 31.2869C6.79565 28.1459 3.26257 19.0872 7.68429 11.9706C5.98975 14.5688 5 17.6814 5 21.0263C5 30.0412 12.1765 37.3899 20.9801 37.3899C24.8962 37.3899 28.4875 35.934 31.2729 33.5241C31.7203 32.451 31.9409 31.2649 31.9409 29.9721V29.9691Z" fill="#FD7A09"/>
<path fill-rule="evenodd" clip-rule="evenodd" d="M22.0619 29.4045C20.6861 29.4045 19.2765 29.1441 17.8394 28.6295C8.93465 25.3882 5.45059 15.8555 10.5219 8.6543C2.23619 15.9466 5.37705 27.6285 15.437 31.2872C16.8741 31.805 18.2776 32.0622 19.6534 32.0622C21.5808 32.0622 24.0169 31.2652 24.2406 29.0562C23.5358 29.2979 22.7636 29.4045 22.0619 29.4045Z" fill="#42B4E6"/>
<path d="M7.57697 12.093C7.57697 12.093 2.55772 20.2293 7.57697 27.5874C12.5962 34.9455 20.4928 35.1495 20.4928 35.1495C20.4928 35.1495 29.4833 35.6547 27.6172 27.6407C27.6172 27.6407 26.2444 22.5857 17.3581 18.4878C17.3581 18.4878 12.5135 15.5948 14.0946 10.8975C15.6758 6.20023 24.0443 7.6342 24.0443 7.6342C24.0443 7.6342 31.803 8.85479 35.1859 16.6553C38.4493 24.2581 34.2942 30.1478 33.047 31.7387C33.047 31.7387 39.911 24.6913 35.5444 14.3052C35.5444 14.3052 32.8387 6.94075 24.2741 5.011C15.7126 3.08754 10.5217 8.65398 10.5217 8.65398C10.5217 8.65398 6.85687 17.4178 17.0578 22.388C17.0578 22.388 19.4877 23.8032 21.5714 25.1524C23.6551 26.4986 24.6694 28.3059 24.1239 29.6332C23.5785 30.9605 22.2639 32.6016 17.5909 31.8736C12.9149 31.1456 7.77614 27.1826 6.38191 22.3378C4.98767 17.4931 6.4769 13.5615 7.58003 12.0961L7.57697 12.093Z" fill="#FFB80F"/>
</g>
<path d="M51.6662 17.7195C51.589 17.0474 51.2707 16.5266 50.7113 16.1573C50.152 15.7834 49.4479 15.5964 48.599 15.5964C47.9914 15.5964 47.4657 15.6911 47.022 15.8805C46.5784 16.065 46.2335 16.3207 45.9876 16.6474C45.7465 16.9692 45.6259 17.3361 45.6259 17.748C45.6259 18.0934 45.7078 18.3917 45.8718 18.6426C46.0406 18.8935 46.26 19.1042 46.5301 19.2746C46.8051 19.4403 47.0991 19.58 47.4127 19.6935C47.7261 19.8024 48.0276 19.8923 48.3169 19.9633L49.7636 20.3325C50.2364 20.4462 50.721 20.6 51.2176 20.7941C51.7144 20.9882 52.1749 21.2439 52.5994 21.561C53.0238 21.8782 53.3662 22.2711 53.6266 22.7397C53.8919 23.2083 54.0244 23.7693 54.0244 24.4226C54.0244 25.2463 53.8075 25.9777 53.3734 26.6166C52.9442 27.2556 52.3197 27.7598 51.4998 28.129C50.6848 28.4984 49.6986 28.6829 48.5411 28.6829C47.4319 28.6829 46.4723 28.5102 45.6621 28.1646C44.8518 27.8192 44.2177 27.3291 43.7595 26.6948C43.3015 26.0557 43.0483 25.2982 43 24.4226H45.2425C45.2859 24.948 45.4596 25.3859 45.7634 25.7362C46.072 26.0818 46.465 26.3397 46.9424 26.5101C47.4248 26.6758 47.9528 26.7586 48.5267 26.7586C49.1585 26.7586 49.7203 26.6617 50.2122 26.4676C50.709 26.2687 51.0995 25.9942 51.3841 25.6439C51.6686 25.2888 51.8109 24.8746 51.8109 24.4013C51.8109 23.9705 51.6854 23.6177 51.4347 23.3433C51.1888 23.0688 50.8536 22.8415 50.4292 22.6616C50.0097 22.4818 49.5346 22.3231 49.0041 22.1858L47.2535 21.7172C46.0672 21.4 45.1268 20.9338 44.4323 20.3184C43.7427 19.7029 43.3978 18.8888 43.3978 17.8758C43.3978 17.0379 43.6293 16.3065 44.0923 15.6817C44.5553 15.0568 45.1823 14.5715 45.9731 14.226C46.7641 13.8757 47.6563 13.7006 48.6496 13.7006C49.6527 13.7006 50.5377 13.8734 51.3045 14.2188C52.0761 14.5645 52.6837 15.0403 53.1274 15.6461C53.5712 16.2472 53.8027 16.9384 53.8219 17.7195H51.6662ZM61.7086 17.5348V19.2391H55.6394V17.5348H61.7086ZM57.267 14.9219H59.4299V25.2391C59.4299 25.651 59.4926 25.9611 59.618 26.1694C59.7435 26.3728 59.905 26.5125 60.1027 26.5883C60.3053 26.6592 60.5247 26.6948 60.761 26.6948C60.9346 26.6948 61.0865 26.6829 61.2167 26.6592C61.3469 26.6357 61.4482 26.6166 61.5205 26.6025L61.9112 28.3562C61.7858 28.4037 61.6074 28.451 61.3759 28.4984C61.1444 28.5504 60.855 28.5788 60.5078 28.5836C59.9387 28.5931 59.4082 28.4937 58.9164 28.2853C58.4245 28.0771 58.0265 27.7551 57.7227 27.3197C57.4189 26.8842 57.267 26.3375 57.267 25.6794V14.9219ZM64.1012 28.4416V17.5348H66.2641V28.4416H64.1012ZM65.1936 15.852C64.8173 15.852 64.4943 15.729 64.2243 15.4827C63.959 15.232 63.8263 14.9337 63.8263 14.588C63.8263 14.2379 63.959 13.9397 64.2243 13.6934C64.4943 13.4425 64.8173 13.3171 65.1936 13.3171C65.5697 13.3171 65.8904 13.4425 66.1557 13.6934C66.4257 13.9397 66.5608 14.2379 66.5608 14.588C66.5608 14.9337 66.4257 15.232 66.1557 15.4827C65.8904 15.729 65.5697 15.852 65.1936 15.852ZM73.8543 28.6616C72.7789 28.6616 71.8529 28.4225 71.0765 27.9445C70.3049 27.4616 69.7117 26.7965 69.297 25.9492C68.8821 25.1019 68.6748 24.1314 68.6748 23.0379C68.6748 21.9302 68.8871 20.9527 69.3114 20.1054C69.7358 19.2533 70.3338 18.5882 71.1055 18.11C71.8771 17.632 72.786 17.3929 73.8326 17.3929C74.6766 17.3929 75.4288 17.5467 76.0896 17.8545C76.7503 18.1574 77.2831 18.5835 77.6882 19.1325C78.0982 19.6816 78.3417 20.3231 78.4189 21.0567H76.3138C76.1981 20.5456 75.9328 20.1054 75.5182 19.7361C75.1081 19.3668 74.5584 19.1822 73.8687 19.1822C73.2659 19.1822 72.7379 19.3384 72.2846 19.651C71.836 19.9586 71.4864 20.3988 71.2357 20.9716C70.9848 21.5396 70.8594 22.212 70.8594 22.9882C70.8594 23.7835 70.9825 24.4699 71.2284 25.0475C71.4743 25.6249 71.8216 26.0723 72.2701 26.3894C72.7235 26.7067 73.2563 26.8651 73.8687 26.8651C74.2788 26.8651 74.6501 26.7918 74.9829 26.6451C75.3204 26.4936 75.6026 26.2782 75.8291 25.9989C76.0606 25.7196 76.2223 25.3836 76.3138 24.9906H78.4189C78.3417 25.696 78.1078 26.3256 77.7172 26.8793C77.3266 27.4332 76.8033 27.8688 76.1475 28.1859C75.4963 28.5031 74.732 28.6616 73.8543 28.6616ZM82.7212 24.7421L82.7068 22.1504H83.0829L87.51 17.5348H90.0997L85.0506 22.7894H84.7105L82.7212 24.7421ZM80.7319 28.4416V13.8993H82.8948V28.4416H80.7319ZM87.7488 28.4416L83.7701 23.258L85.2603 21.774L90.4035 28.4416H87.7488ZM100.397 20.1977L98.4368 20.5384C98.3549 20.2923 98.2247 20.058 98.0462 19.8355C97.8726 19.6131 97.6363 19.4308 97.3372 19.2888C97.0382 19.1468 96.6646 19.0758 96.216 19.0758C95.6036 19.0758 95.0924 19.2106 94.6824 19.4805C94.2725 19.7456 94.0676 20.0888 94.0676 20.51C94.0676 20.8745 94.205 21.168 94.4798 21.3906C94.7548 21.6131 95.1985 21.7953 95.8109 21.9373L97.576 22.3349C98.5983 22.5669 99.3603 22.9243 99.8619 23.4071C100.363 23.89 100.614 24.5172 100.614 25.2888C100.614 25.9421 100.421 26.5244 100.035 27.0356C99.6546 27.5422 99.1216 27.9398 98.4368 28.2286C97.7569 28.5173 96.9684 28.6616 96.0714 28.6616C94.8272 28.6616 93.812 28.4013 93.0258 27.8805C92.2398 27.3551 91.7576 26.6096 91.5791 25.6439L93.6697 25.3314C93.7999 25.8664 94.0676 26.2712 94.4727 26.5456C94.8778 26.8155 95.4058 26.9505 96.0568 26.9505C96.7659 26.9505 97.3324 26.806 97.7569 26.5173C98.1812 26.2238 98.3935 25.8664 98.3935 25.445C98.3935 25.1043 98.2632 24.8178 98.0028 24.5859C97.7471 24.3538 97.3541 24.1788 96.8236 24.0604L94.9428 23.6556C93.906 23.4237 93.1392 23.0545 92.6426 22.5481C92.1506 22.0414 91.9046 21.4 91.9046 20.6237C91.9046 19.9799 92.0879 19.4166 92.4544 18.9337C92.8209 18.4509 93.3273 18.0745 93.9735 17.8048C94.6198 17.5301 95.36 17.3929 96.1943 17.3929C97.3952 17.3929 98.3404 17.6485 99.03 18.1597C99.7196 18.6663 100.175 19.3456 100.397 20.1977ZM102.964 28.4416V26.851L107.977 21.7527C108.512 21.1988 108.953 20.7137 109.3 20.2971C109.652 19.8757 109.915 19.4757 110.089 19.0971C110.262 18.7183 110.349 18.316 110.349 17.8899C110.349 17.4071 110.233 16.9905 110.002 16.6402C109.77 16.2851 109.455 16.0131 109.054 15.8237C108.654 15.6295 108.203 15.5324 107.702 15.5324C107.171 15.5324 106.708 15.639 106.313 15.852C105.917 16.065 105.613 16.3657 105.401 16.7539C105.189 17.1419 105.083 17.5964 105.083 18.1172H102.949C102.949 17.2319 103.156 16.458 103.571 15.7953C103.986 15.1325 104.555 14.619 105.278 14.2544C106.002 13.8851 106.824 13.7006 107.745 13.7006C108.676 13.7006 109.496 13.8828 110.204 14.2473C110.918 14.6071 111.475 15.0994 111.876 15.7243C112.276 16.3443 112.476 17.0449 112.476 17.826C112.476 18.3657 112.372 18.8935 112.165 19.4094C111.962 19.9254 111.608 20.5006 111.102 21.1349C110.595 21.7645 109.891 22.529 108.989 23.4285L106.045 26.4534V26.5599H112.715V28.4416H102.964ZM123.739 17.7195C123.662 17.0474 123.344 16.5266 122.784 16.1573C122.225 15.7834 121.521 15.5964 120.672 15.5964C120.064 15.5964 119.539 15.6911 119.095 15.8805C118.651 16.065 118.306 16.3207 118.061 16.6474C117.819 16.9692 117.699 17.3361 117.699 17.748C117.699 18.0934 117.781 18.3917 117.945 18.6426C118.114 18.8935 118.333 19.1042 118.603 19.2746C118.878 19.4403 119.172 19.58 119.486 19.6935C119.799 19.8024 120.101 19.8923 120.39 19.9633L121.837 20.3325C122.309 20.4462 122.794 20.6 123.291 20.7941C123.787 20.9882 124.248 21.2439 124.672 21.561C125.097 21.8782 125.438 22.2711 125.699 22.7397C125.965 23.2083 126.098 23.7693 126.098 24.4226C126.098 25.2463 125.881 25.9777 125.446 26.6166C125.017 27.2556 124.392 27.7598 123.573 28.129C122.758 28.4984 121.771 28.6829 120.614 28.6829C119.505 28.6829 118.545 28.5102 117.735 28.1646C116.925 27.8192 116.291 27.3291 115.832 26.6948C115.374 26.0557 115.121 25.2982 115.073 24.4226H117.315C117.359 24.948 117.533 25.3859 117.836 25.7362C118.145 26.0818 118.538 26.3397 119.015 26.5101C119.498 26.6758 120.026 26.7586 120.6 26.7586C121.231 26.7586 121.793 26.6617 122.285 26.4676C122.782 26.2687 123.172 25.9942 123.457 25.6439C123.742 25.2888 123.885 24.8746 123.885 24.4013C123.885 23.9705 123.758 23.6177 123.508 23.3433C123.262 23.0688 122.926 22.8415 122.502 22.6616C122.083 22.4818 121.608 22.3231 121.077 22.1858L119.326 21.7172C118.14 21.4 117.2 20.9338 116.505 20.3184C115.816 19.7029 115.471 18.8888 115.471 17.8758C115.471 17.0379 115.702 16.3065 116.165 15.6817C116.628 15.0568 117.255 14.5715 118.046 14.226C118.837 13.8757 119.729 13.7006 120.723 13.7006C121.726 13.7006 122.611 13.8734 123.377 14.2188C124.149 14.5645 124.756 15.0403 125.2 15.6461C125.644 16.2472 125.875 16.9384 125.895 17.7195H123.739ZM133.782 17.5348V19.2391H127.713V17.5348H133.782ZM129.339 14.9219H131.503V25.2391C131.503 25.651 131.566 25.9611 131.691 26.1694C131.816 26.3728 131.977 26.5125 132.175 26.5883C132.378 26.6592 132.597 26.6948 132.834 26.6948C133.008 26.6948 133.159 26.6829 133.29 26.6592C133.419 26.6357 133.521 26.6166 133.594 26.6025L133.984 28.3562C133.859 28.4037 133.68 28.451 133.448 28.4984C133.217 28.5504 132.928 28.5788 132.581 28.5836C132.012 28.5931 131.481 28.4937 130.989 28.2853C130.498 28.0771 130.099 27.7551 129.796 27.3197C129.492 26.8842 129.339 26.3375 129.339 25.6794V14.9219ZM140.735 28.6616C139.694 28.6616 138.784 28.4274 138.009 27.9587C137.232 27.49 136.629 26.8345 136.2 25.9918C135.771 25.1492 135.555 24.1645 135.555 23.0379C135.555 21.9066 135.771 20.9172 136.2 20.0698C136.629 19.2225 137.232 18.5645 138.009 18.0959C138.784 17.6273 139.694 17.3929 140.735 17.3929C141.777 17.3929 142.687 17.6273 143.462 18.0959C144.239 18.5645 144.841 19.2225 145.271 20.0698C145.7 20.9172 145.914 21.9066 145.914 23.0379C145.914 24.1645 145.7 25.1492 145.271 25.9918C144.841 26.8345 144.239 27.49 143.462 27.9587C142.687 28.4274 141.777 28.6616 140.735 28.6616ZM140.743 26.8793C141.418 26.8793 141.977 26.7042 142.42 26.354C142.864 26.0036 143.193 25.5373 143.404 24.9551C143.621 24.3729 143.73 23.7314 143.73 23.0307C143.73 22.3349 143.621 21.6959 143.404 21.1136C143.193 20.5266 142.864 20.0557 142.42 19.7007C141.977 19.3456 141.418 19.1681 140.743 19.1681C140.062 19.1681 139.499 19.3456 139.049 19.7007C138.607 20.0557 138.275 20.5266 138.058 21.1136C137.847 21.6959 137.741 22.3349 137.741 23.0307C137.741 23.7314 137.847 24.3729 138.058 24.9551C138.275 25.5373 138.607 26.0036 139.049 26.354C139.499 26.7042 140.062 26.8793 140.743 26.8793ZM150.491 21.9657V28.4416H148.329V17.5348H150.406V19.3101H150.542C150.798 18.7326 151.199 18.2687 151.743 17.9183C152.293 17.568 152.985 17.3929 153.819 17.3929C154.577 17.3929 155.239 17.5491 155.808 17.8615C156.377 18.1693 156.819 18.6284 157.132 19.2391C157.447 19.8497 157.602 20.6047 157.602 21.5042V28.4416H155.44V21.7598C155.44 20.9693 155.23 20.3515 154.81 19.9065C154.391 19.4569 153.815 19.2319 153.081 19.2319C152.579 19.2319 152.134 19.3384 151.743 19.5515C151.357 19.7645 151.052 20.077 150.825 20.4887C150.602 20.8959 150.491 21.3882 150.491 21.9657ZM165.292 28.6616C164.198 28.6616 163.255 28.4322 162.464 27.9729C161.678 27.5091 161.07 26.8581 160.64 26.0202C160.217 25.1776 160.004 24.1907 160.004 23.0592C160.004 21.942 160.217 20.9574 160.64 20.1054C161.07 19.2533 161.668 18.5882 162.434 18.11C163.207 17.632 164.108 17.3929 165.141 17.3929C165.768 17.3929 166.375 17.4947 166.964 17.6983C167.552 17.9017 168.08 18.2212 168.547 18.6567C169.016 19.0924 169.384 19.6579 169.654 20.3539C169.925 21.0451 170.059 21.8853 170.059 22.8746V23.6274H161.227V22.0367H167.94C167.94 21.4781 167.824 20.9835 167.593 20.5527C167.361 20.1171 167.035 19.7739 166.616 19.5231C166.202 19.2722 165.714 19.1468 165.155 19.1468C164.547 19.1468 164.016 19.2935 163.564 19.587C163.115 19.8757 162.768 20.2545 162.522 20.7231C162.28 21.1871 162.159 21.6912 162.159 22.2355V23.4782C162.159 24.2072 162.29 24.8273 162.551 25.3385C162.816 25.8499 163.185 26.2404 163.658 26.5101C164.13 26.7752 164.682 26.9078 165.314 26.9078C165.724 26.9078 166.098 26.851 166.436 26.7374C166.773 26.6191 167.064 26.4438 167.31 26.2119C167.556 25.98 167.745 25.6935 167.875 25.3528L169.922 25.7149C169.758 26.3066 169.464 26.8249 169.039 27.27C168.62 27.7102 168.092 28.0533 167.456 28.2996C166.823 28.5409 166.103 28.6616 165.292 28.6616Z" fill="white"/>
<path d="M181.135 20.2184L179.174 20.5592C179.092 20.3131 178.962 20.0788 178.783 19.8563C178.61 19.6339 178.374 19.4516 178.075 19.3095C177.776 19.1676 177.402 19.0966 176.953 19.0966C176.341 19.0966 175.83 19.2314 175.42 19.5013C175.01 19.7664 174.805 20.1096 174.805 20.5308C174.805 20.8953 174.942 21.1888 175.217 21.4113C175.492 21.6338 175.936 21.816 176.548 21.958L178.313 22.3557C179.336 22.5876 180.098 22.9451 180.599 23.4279C181.101 23.9107 181.351 24.538 181.351 25.3096C181.351 25.9629 181.159 26.5451 180.773 27.0563C180.392 27.563 179.859 27.9605 179.174 28.2494C178.494 28.538 177.706 28.6824 176.809 28.6824C175.565 28.6824 174.549 28.422 173.763 27.9013C172.977 27.3758 172.495 26.6303 172.316 25.6647L174.407 25.3521C174.537 25.8872 174.805 26.2919 175.21 26.5664C175.615 26.8363 176.143 26.9712 176.794 26.9712C177.503 26.9712 178.07 26.8268 178.494 26.5381C178.919 26.2445 179.131 25.8872 179.131 25.4658C179.131 25.125 179.001 24.8386 178.74 24.6066C178.484 24.3747 178.091 24.1996 177.561 24.0812L175.68 23.6764C174.643 23.4444 173.877 23.0752 173.38 22.5688C172.888 22.0622 172.642 21.4207 172.642 20.6444C172.642 20.0006 172.825 19.4373 173.192 18.9544C173.558 18.4717 174.065 18.0953 174.711 17.8255C175.357 17.5509 176.097 17.4136 176.932 17.4136C178.132 17.4136 179.078 17.6693 179.767 18.1805C180.457 18.687 180.913 19.3663 181.135 20.2184Z" fill="white"/>
</svg>
