<svg width="20" height="21" viewBox="0 0 20 21" fill="none" xmlns="http://www.w3.org/2000/svg">
<path d="M13.1291 12.5168H12.4707L12.2374 12.2918C13.0541 11.3418 13.5457 10.1084 13.5457 8.76676C13.5457 5.7751 11.1207 3.3501 8.12907 3.3501C5.1374 3.3501 2.7124 5.7751 2.7124 8.76676C2.7124 11.7584 5.1374 14.1834 8.12907 14.1834C9.47074 14.1834 10.7041 13.6918 11.6541 12.8751L11.8791 13.1084V13.7668L16.0457 17.9251L17.2874 16.6834L13.1291 12.5168ZM8.12907 12.5168C6.05407 12.5168 4.37907 10.8418 4.37907 8.76676C4.37907 6.69176 6.05407 5.01676 8.12907 5.01676C10.2041 5.01676 11.8791 6.69176 11.8791 8.76676C11.8791 10.8418 10.2041 12.5168 8.12907 12.5168Z" fill="white"/>
</svg>
