<svg width="32" height="32" viewBox="0 0 32 32" fill="none" xmlns="http://www.w3.org/2000/svg">
<path d="M10.4104 26.3324C9.88603 26.5057 9.60142 27.0713 9.77472 27.5957C9.94802 28.1201 10.5136 28.4047 11.038 28.2314L10.4104 26.3324ZM18.4829 27.7947L18.393 26.7988L18.4829 27.7947ZM23.1381 26.7691L23.5737 27.6692L23.1381 26.7691ZM27.5863 22.7573L26.8118 22.1246L27.5863 22.7573ZM24.544 20.247L25.2481 20.9572L24.544 20.247ZM22.4954 22.2781L23.1994 22.9883L22.4954 22.2781ZM16.9312 22.1793C16.3789 22.1793 15.9312 22.627 15.9312 23.1793C15.9312 23.7316 16.3789 24.1793 16.9312 24.1793V22.1793ZM27.1133 19.9948L26.5619 20.829L27.1133 19.9948ZM12.2987 19.3219L12.7428 20.2179H12.7428L12.2987 19.3219ZM17.8668 18.8169L18.1278 17.8516L17.8668 18.8169ZM20.0412 19.4049L19.7802 20.3702L20.0412 19.4049ZM20.7301 21.977L20.0261 21.2668V21.2668L20.7301 21.977ZM18.8133 22.4692C18.4211 22.858 18.4184 23.4912 18.8073 23.8834C19.1961 24.2756 19.8293 24.2783 20.2215 23.8895L18.8133 22.4692ZM11.038 28.2314C11.2325 28.1671 11.5871 28.1357 12.1569 28.176C12.7064 28.2149 13.3444 28.31 14.0618 28.4217C15.4382 28.636 17.1296 28.921 18.5729 28.7907L18.393 26.7988C17.25 26.902 15.838 26.6742 14.3695 26.4455C13.6644 26.3357 12.9446 26.2267 12.298 26.181C11.6717 26.1367 10.9917 26.1403 10.4104 26.3324L11.038 28.2314ZM18.5729 28.7907C20.5874 28.6087 21.5296 28.6582 23.5737 27.6692L22.7026 25.8689C21.044 26.6713 20.4814 26.6101 18.393 26.7988L18.5729 28.7907ZM23.5737 27.6692C25.4064 26.7825 27.2447 24.756 28.3607 23.3899L26.8118 22.1246C25.6861 23.5026 24.093 25.1962 22.7026 25.8689L23.5737 27.6692ZM23.8399 19.5369L21.7913 21.568L23.1994 22.9883L25.2481 20.9572L23.8399 19.5369ZM20.3009 22.1793H16.9312V24.1793H20.3009V22.1793ZM21.7913 21.568C21.3975 21.9584 20.8615 22.1793 20.3009 22.1793V24.1793C21.3864 24.1793 22.4292 23.7519 23.1994 22.9883L21.7913 21.568ZM27.6647 19.1606C26.463 18.3663 24.8634 18.5222 23.8399 19.5369L25.2481 20.9572C25.5973 20.6109 26.1484 20.5557 26.5619 20.829L27.6647 19.1606ZM28.3607 23.3899C29.4803 22.0194 29.0602 20.0829 27.6647 19.1606L26.5619 20.829C27.0536 21.154 27.1198 21.7476 26.8118 22.1246L28.3607 23.3899ZM5.03449 19.0511H9.17247V17.0511H5.03449V19.0511ZM9.20696 19.0768V28.3075H11.207V19.0768H9.20696ZM9.17247 28.3332H5.03449V30.3332H9.17247V28.3332ZM5 28.3075V19.0768H3V28.3075H5ZM5.03449 28.3332C5.02666 28.3332 5.02189 28.3318 5.01854 28.3304C5.01455 28.3287 5.01053 28.3261 5.00706 28.3226C5.00359 28.3192 5.00184 28.3161 5.00109 28.3144C5.00064 28.3133 5 28.3117 5 28.3075H3C3 29.4344 3.919 30.3332 5.03449 30.3332V28.3332ZM9.20696 28.3075C9.20696 28.3117 9.20633 28.3133 9.20587 28.3144C9.20512 28.3161 9.20337 28.3192 9.19991 28.3226C9.19644 28.3261 9.19242 28.3287 9.18842 28.3304C9.18507 28.3318 9.18031 28.3332 9.17247 28.3332V30.3332C10.288 30.3332 11.207 29.4344 11.207 28.3075H9.20696ZM9.17247 19.0511C9.18031 19.0511 9.18507 19.0525 9.18842 19.0539C9.19242 19.0556 9.19644 19.0582 9.19991 19.0617C9.20337 19.0651 9.20512 19.0682 9.20587 19.0699C9.20633 19.071 9.20696 19.0726 9.20696 19.0768H11.207C11.207 17.9499 10.288 17.0511 9.17247 17.0511V19.0511ZM5.03449 17.0511C3.91899 17.0511 3 17.9499 3 19.0768H5C5 19.0726 5.00064 19.071 5.00109 19.0699C5.00184 19.0682 5.00359 19.0651 5.00706 19.0617C5.01053 19.0582 5.01455 19.0556 5.01854 19.0539C5.02189 19.0525 5.02666 19.0511 5.03449 19.0511V17.0511ZM11.1684 20.9984L12.7428 20.2179L11.8545 18.4259L10.2801 19.2064L11.1684 20.9984ZM15.5372 19.5639H15.9614V17.5639H15.5372V19.5639ZM17.6057 19.7823L19.7802 20.3702L20.3022 18.4395L18.1278 17.8516L17.6057 19.7823ZM20.0261 21.2668L18.8133 22.4692L20.2215 23.8895L21.4342 22.6871L20.0261 21.2668ZM19.7802 20.3702C20.1939 20.4821 20.3152 20.9802 20.0261 21.2668L21.4342 22.6871C22.8301 21.3032 22.1874 18.9493 20.3022 18.4395L19.7802 20.3702ZM15.9614 19.5639C16.5169 19.5639 17.0699 19.6374 17.6057 19.7823L18.1278 17.8516C17.4217 17.6607 16.6932 17.5639 15.9614 17.5639V19.5639ZM12.7428 20.2179C13.6101 19.788 14.5668 19.5639 15.5372 19.5639V17.5639C14.2592 17.5639 12.9984 17.8589 11.8545 18.4259L12.7428 20.2179ZM22.6554 10.8716C22.6554 12.577 21.2586 13.9742 19.5174 13.9742V15.9742C22.3469 15.9742 24.6554 13.6978 24.6554 10.8716H22.6554ZM19.5174 13.9742C17.7762 13.9742 16.3794 12.577 16.3794 10.8716H14.3794C14.3794 13.6978 16.6879 15.9742 19.5174 15.9742V13.9742ZM16.3794 10.8716C16.3794 9.16622 17.7762 7.76907 19.5174 7.76907V5.76907C16.6879 5.76907 14.3794 8.04548 14.3794 10.8716H16.3794ZM19.5174 7.76907C21.2586 7.76907 22.6554 9.16622 22.6554 10.8716H24.6554C24.6554 8.04548 22.3469 5.76907 19.5174 5.76907V7.76907ZM15.3794 9.87163C13.6383 9.87163 12.2415 8.47448 12.2415 6.76907H10.2415C10.2415 9.59522 12.5499 11.8716 15.3794 11.8716V9.87163ZM12.2415 6.76907C12.2415 5.06365 13.6383 3.6665 15.3794 3.6665V1.6665C12.5499 1.6665 10.2415 3.94291 10.2415 6.76907H12.2415ZM15.3794 3.6665C17.1206 3.6665 18.5174 5.06365 18.5174 6.76907H20.5174C20.5174 3.94291 18.2089 1.6665 15.3794 1.6665V3.6665Z" fill="#FF8D07"/>
</svg>
