<svg width="52" height="52" viewBox="0 0 52 52" fill="none" xmlns="http://www.w3.org/2000/svg">
<path fill-rule="evenodd" clip-rule="evenodd" d="M17.3335 36.8332C17.3335 35.6366 18.3035 34.6665 19.5002 34.6665H32.5002C33.6968 34.6665 34.6668 35.6366 34.6668 36.8332C34.6668 38.0298 33.6968 38.9998 32.5002 38.9998H19.5002C18.3035 38.9998 17.3335 38.0298 17.3335 36.8332Z" fill="black"/>
<path fill-rule="evenodd" clip-rule="evenodd" d="M17.3335 28.1667C17.3335 26.97 18.3035 26 19.5002 26H32.5002C33.6968 26 34.6668 26.97 34.6668 28.1667C34.6668 29.3633 33.6968 30.3333 32.5002 30.3333H19.5002C18.3035 30.3333 17.3335 29.3633 17.3335 28.1667Z" fill="black"/>
<path fill-rule="evenodd" clip-rule="evenodd" d="M17.3335 19.5002C17.3335 18.3035 18.3035 17.3335 19.5002 17.3335H21.6668C22.8634 17.3335 23.8335 18.3035 23.8335 19.5002C23.8335 20.6968 22.8634 21.6668 21.6668 21.6668H19.5002C18.3035 21.6668 17.3335 20.6968 17.3335 19.5002Z" fill="black"/>
<path fill-rule="evenodd" clip-rule="evenodd" d="M17.3332 8.66683C14.9399 8.66683 12.9998 10.6069 12.9998 13.0002V39.0002C12.9998 41.3934 14.9399 43.3335 17.3332 43.3335H34.6665C37.0597 43.3335 38.9998 41.3934 38.9998 39.0002V19.1284C38.9998 18.5538 38.7716 18.0027 38.3652 17.5964L30.0703 9.30143C29.664 8.8951 29.1129 8.66683 28.5382 8.66683H17.3332ZM8.6665 13.0002C8.6665 8.2137 12.5467 4.3335 17.3332 4.3335H28.5382C30.2621 4.3335 31.9155 5.01832 33.1344 6.2373L41.4294 14.5322C42.6483 15.7512 43.3332 17.4045 43.3332 19.1284V39.0002C43.3332 43.7866 39.453 47.6668 34.6665 47.6668H17.3332C12.5467 47.6668 8.6665 43.7866 8.6665 39.0002V13.0002Z" fill="black"/>
<path fill-rule="evenodd" clip-rule="evenodd" d="M30.3333 6.5V10.8333C30.3333 14.4232 33.2435 17.3333 36.8333 17.3333H41.1667V21.6667H36.8333C30.8502 21.6667 26 16.8164 26 10.8333V6.5H30.3333Z" fill="black"/>
</svg>
