<svg width="320" height="216" viewBox="0 0 320 216" fill="none" xmlns="http://www.w3.org/2000/svg">
<rect width="320" height="216" fill="#0DBA48"/>
<path d="M160 54.5C163.656 54.5 166.906 56.6328 168.531 59.7812C171.883 58.6641 175.641 59.4766 178.383 62.1172C181.023 64.7578 181.734 68.6172 180.719 71.9688C183.867 73.5938 186 76.8437 186 80.5C186 84.2578 183.867 87.5078 180.719 89.1328C181.836 92.4844 181.023 96.2422 178.383 98.8828C175.641 101.523 171.883 102.336 168.531 101.32C166.906 104.469 163.656 106.5 160 106.5C156.242 106.5 152.992 104.469 151.367 101.32C148.016 102.336 144.258 101.523 141.516 98.8828C138.875 96.2422 138.164 92.4844 139.18 89.1328C136.031 87.5078 134 84.2578 134 80.5C134 76.8437 136.031 73.5938 139.18 71.9688C138.062 68.6172 138.875 64.7578 141.516 62.1172C144.258 59.4766 148.016 58.6641 151.367 59.7812C152.992 56.6328 156.242 54.5 160 54.5ZM169.75 77.3516C170.766 76.4375 170.766 74.9141 169.75 73.8984C168.836 72.9844 167.312 72.9844 166.398 73.8984L156.75 83.6484L152.687 79.5859C151.773 78.6719 150.25 78.6719 149.336 79.5859C148.32 80.6016 148.32 82.125 149.336 83.0391L155.023 88.7266C155.937 89.7422 157.461 89.7422 158.375 88.7266L169.75 77.3516Z" fill="white"/>
<path d="M112.139 132.045C112.003 130.894 111.45 130 110.48 129.364C109.51 128.727 108.321 128.409 106.912 128.409C105.882 128.409 104.98 128.576 104.207 128.909C103.442 129.242 102.844 129.701 102.412 130.284C101.988 130.867 101.776 131.53 101.776 132.273C101.776 132.894 101.923 133.428 102.219 133.875C102.522 134.314 102.908 134.682 103.378 134.977C103.848 135.265 104.34 135.504 104.855 135.693C105.37 135.875 105.844 136.023 106.276 136.136L108.639 136.773C109.245 136.932 109.92 137.152 110.662 137.432C111.412 137.712 112.128 138.095 112.81 138.58C113.499 139.057 114.067 139.67 114.514 140.42C114.961 141.17 115.185 142.091 115.185 143.182C115.185 144.439 114.855 145.576 114.196 146.591C113.545 147.606 112.59 148.413 111.332 149.011C110.082 149.61 108.563 149.909 106.776 149.909C105.109 149.909 103.666 149.64 102.446 149.102C101.234 148.564 100.279 147.814 99.5824 146.852C98.893 145.89 98.5028 144.773 98.4119 143.5H101.321C101.397 144.379 101.692 145.106 102.207 145.682C102.73 146.25 103.389 146.674 104.185 146.955C104.988 147.227 105.851 147.364 106.776 147.364C107.851 147.364 108.817 147.189 109.673 146.841C110.529 146.485 111.207 145.992 111.707 145.364C112.207 144.727 112.457 143.985 112.457 143.136C112.457 142.364 112.241 141.735 111.81 141.25C111.378 140.765 110.81 140.371 110.105 140.068C109.401 139.765 108.639 139.5 107.821 139.273L104.957 138.455C103.139 137.932 101.7 137.186 100.639 136.216C99.5786 135.246 99.0483 133.977 99.0483 132.409C99.0483 131.106 99.4006 129.97 100.105 129C100.817 128.023 101.772 127.265 102.969 126.727C104.173 126.182 105.518 125.909 107.003 125.909C108.503 125.909 109.836 126.178 111.003 126.716C112.17 127.246 113.094 127.973 113.776 128.898C114.465 129.822 114.829 130.871 114.866 132.045H112.139ZM130.455 142.364V132.045H133.136V149.5H130.455V146.545H130.273C129.864 147.432 129.227 148.186 128.364 148.807C127.5 149.42 126.409 149.727 125.091 149.727C124 149.727 123.03 149.489 122.182 149.011C121.333 148.527 120.667 147.799 120.182 146.83C119.697 145.852 119.455 144.621 119.455 143.136V132.045H122.136V142.955C122.136 144.227 122.492 145.242 123.205 146C123.924 146.758 124.841 147.136 125.955 147.136C126.621 147.136 127.299 146.966 127.989 146.625C128.686 146.284 129.269 145.761 129.739 145.057C130.216 144.352 130.455 143.455 130.455 142.364ZM145.139 149.864C143.503 149.864 142.094 149.477 140.912 148.705C139.73 147.932 138.821 146.867 138.185 145.511C137.548 144.155 137.23 142.606 137.23 140.864C137.23 139.091 137.556 137.527 138.207 136.17C138.866 134.807 139.783 133.742 140.957 132.977C142.139 132.205 143.518 131.818 145.094 131.818C146.321 131.818 147.427 132.045 148.412 132.5C149.397 132.955 150.204 133.591 150.832 134.409C151.461 135.227 151.851 136.182 152.003 137.273H149.321C149.116 136.477 148.662 135.773 147.957 135.159C147.26 134.538 146.321 134.227 145.139 134.227C144.094 134.227 143.177 134.5 142.389 135.045C141.609 135.583 140.999 136.345 140.56 137.33C140.128 138.307 139.912 139.455 139.912 140.773C139.912 142.121 140.124 143.295 140.548 144.295C140.98 145.295 141.586 146.072 142.366 146.625C143.154 147.178 144.079 147.455 145.139 147.455C145.836 147.455 146.469 147.333 147.037 147.091C147.605 146.848 148.086 146.5 148.48 146.045C148.874 145.591 149.154 145.045 149.321 144.409H152.003C151.851 145.439 151.476 146.367 150.878 147.193C150.287 148.011 149.503 148.663 148.526 149.148C147.556 149.625 146.427 149.864 145.139 149.864ZM163.014 149.864C161.378 149.864 159.969 149.477 158.787 148.705C157.605 147.932 156.696 146.867 156.06 145.511C155.423 144.155 155.105 142.606 155.105 140.864C155.105 139.091 155.431 137.527 156.082 136.17C156.741 134.807 157.658 133.742 158.832 132.977C160.014 132.205 161.393 131.818 162.969 131.818C164.196 131.818 165.302 132.045 166.287 132.5C167.272 132.955 168.079 133.591 168.707 134.409C169.336 135.227 169.726 136.182 169.878 137.273H167.196C166.991 136.477 166.537 135.773 165.832 135.159C165.135 134.538 164.196 134.227 163.014 134.227C161.969 134.227 161.052 134.5 160.264 135.045C159.484 135.583 158.874 136.345 158.435 137.33C158.003 138.307 157.787 139.455 157.787 140.773C157.787 142.121 157.999 143.295 158.423 144.295C158.855 145.295 159.461 146.072 160.241 146.625C161.029 147.178 161.954 147.455 163.014 147.455C163.711 147.455 164.344 147.333 164.912 147.091C165.48 146.848 165.961 146.5 166.355 146.045C166.749 145.591 167.029 145.045 167.196 144.409H169.878C169.726 145.439 169.351 146.367 168.753 147.193C168.162 148.011 167.378 148.663 166.401 149.148C165.431 149.625 164.302 149.864 163.014 149.864ZM181.116 149.864C179.435 149.864 177.984 149.492 176.764 148.75C175.552 148 174.616 146.955 173.957 145.614C173.306 144.265 172.98 142.697 172.98 140.909C172.98 139.121 173.306 137.545 173.957 136.182C174.616 134.811 175.533 133.742 176.707 132.977C177.889 132.205 179.268 131.818 180.844 131.818C181.753 131.818 182.651 131.97 183.537 132.273C184.423 132.576 185.23 133.068 185.957 133.75C186.685 134.424 187.264 135.318 187.696 136.432C188.128 137.545 188.344 138.917 188.344 140.545V141.682H174.889V139.364H185.616C185.616 138.379 185.42 137.5 185.026 136.727C184.639 135.955 184.086 135.345 183.366 134.898C182.654 134.451 181.813 134.227 180.844 134.227C179.776 134.227 178.851 134.492 178.071 135.023C177.298 135.545 176.704 136.227 176.287 137.068C175.87 137.909 175.662 138.811 175.662 139.773V141.318C175.662 142.636 175.889 143.754 176.344 144.67C176.806 145.58 177.446 146.273 178.264 146.75C179.082 147.22 180.033 147.455 181.116 147.455C181.821 147.455 182.457 147.356 183.026 147.159C183.601 146.955 184.098 146.652 184.514 146.25C184.931 145.841 185.253 145.333 185.48 144.727L188.071 145.455C187.798 146.333 187.34 147.106 186.696 147.773C186.052 148.432 185.257 148.947 184.31 149.318C183.363 149.682 182.298 149.864 181.116 149.864ZM204.787 135.955L202.378 136.636C202.226 136.235 202.003 135.845 201.707 135.466C201.42 135.08 201.026 134.761 200.526 134.511C200.026 134.261 199.385 134.136 198.605 134.136C197.537 134.136 196.647 134.383 195.935 134.875C195.23 135.36 194.878 135.977 194.878 136.727C194.878 137.394 195.12 137.92 195.605 138.307C196.09 138.693 196.848 139.015 197.878 139.273L200.469 139.909C202.029 140.288 203.192 140.867 203.957 141.648C204.723 142.42 205.105 143.417 205.105 144.636C205.105 145.636 204.817 146.53 204.241 147.318C203.673 148.106 202.878 148.727 201.855 149.182C200.832 149.636 199.643 149.864 198.287 149.864C196.507 149.864 195.033 149.477 193.866 148.705C192.7 147.932 191.961 146.803 191.651 145.318L194.196 144.682C194.438 145.621 194.897 146.326 195.571 146.795C196.253 147.265 197.143 147.5 198.241 147.5C199.491 147.5 200.484 147.235 201.219 146.705C201.961 146.167 202.332 145.523 202.332 144.773C202.332 144.167 202.12 143.659 201.696 143.25C201.272 142.833 200.62 142.523 199.741 142.318L196.832 141.636C195.234 141.258 194.06 140.67 193.31 139.875C192.567 139.072 192.196 138.068 192.196 136.864C192.196 135.879 192.473 135.008 193.026 134.25C193.586 133.492 194.348 132.898 195.31 132.466C196.279 132.034 197.378 131.818 198.605 131.818C200.332 131.818 201.688 132.197 202.673 132.955C203.666 133.712 204.37 134.712 204.787 135.955ZM221.506 135.955L219.097 136.636C218.945 136.235 218.722 135.845 218.426 135.466C218.138 135.08 217.744 134.761 217.244 134.511C216.744 134.261 216.104 134.136 215.324 134.136C214.256 134.136 213.366 134.383 212.653 134.875C211.949 135.36 211.597 135.977 211.597 136.727C211.597 137.394 211.839 137.92 212.324 138.307C212.809 138.693 213.566 139.015 214.597 139.273L217.188 139.909C218.748 140.288 219.911 140.867 220.676 141.648C221.441 142.42 221.824 143.417 221.824 144.636C221.824 145.636 221.536 146.53 220.96 147.318C220.392 148.106 219.597 148.727 218.574 149.182C217.551 149.636 216.362 149.864 215.006 149.864C213.225 149.864 211.752 149.477 210.585 148.705C209.419 147.932 208.68 146.803 208.369 145.318L210.915 144.682C211.157 145.621 211.616 146.326 212.29 146.795C212.972 147.265 213.862 147.5 214.96 147.5C216.21 147.5 217.203 147.235 217.938 146.705C218.68 146.167 219.051 145.523 219.051 144.773C219.051 144.167 218.839 143.659 218.415 143.25C217.991 142.833 217.339 142.523 216.46 142.318L213.551 141.636C211.953 141.258 210.778 140.67 210.028 139.875C209.286 139.072 208.915 138.068 208.915 136.864C208.915 135.879 209.191 135.008 209.744 134.25C210.305 133.492 211.066 132.898 212.028 132.466C212.998 132.034 214.097 131.818 215.324 131.818C217.051 131.818 218.407 132.197 219.392 132.955C220.384 133.712 221.089 134.712 221.506 135.955Z" fill="white"/>
<path d="M256.585 174.542C256.967 173.38 258.611 173.38 258.993 174.542L260.883 180.289C261.009 180.671 261.308 180.971 261.691 181.097L267.437 182.987C268.599 183.369 268.599 185.013 267.437 185.395L261.691 187.285C261.308 187.411 261.009 187.71 260.883 188.093L258.993 193.839C258.611 195.001 256.967 195.001 256.585 193.839L254.695 188.093C254.569 187.71 254.269 187.411 253.887 187.285L248.14 185.395C246.978 185.013 246.978 183.369 248.14 182.987L253.887 181.097C254.269 180.971 254.569 180.671 254.695 180.289L256.585 174.542Z" fill="white"/>
<path d="M60.1057 43.9778C60.4879 42.8157 62.1318 42.8157 62.514 43.9778L64.4039 49.7241C64.5296 50.1065 64.8296 50.4065 65.212 50.5322L70.9584 52.4221C72.1205 52.8043 72.1205 54.4482 70.9584 54.8304L65.212 56.7203C64.8296 56.8461 64.5296 57.146 64.4039 57.5284L62.514 63.2748C62.1318 64.4369 60.4879 64.4369 60.1057 63.2748L58.2158 57.5284C58.0901 57.146 57.7901 56.8461 57.4077 56.7203L51.6614 54.8304C50.4993 54.4482 50.4993 52.8043 51.6614 52.4221L57.4077 50.5322C57.7901 50.4065 58.0901 50.1065 58.2158 49.7241L60.1057 43.9778Z" fill="white"/>
<path d="M82.9226 174.542C83.3048 173.38 84.9487 173.38 85.3309 174.542L86.2796 177.427C86.4054 177.809 86.7053 178.109 87.0878 178.235L89.9724 179.184C91.1345 179.566 91.1345 181.21 89.9724 181.592L87.0878 182.541C86.7053 182.667 86.4054 182.966 86.2796 183.349L85.3309 186.234C84.9487 187.396 83.3048 187.396 82.9226 186.234L81.9739 183.349C81.8481 182.966 81.5482 182.667 81.1658 182.541L78.2811 181.592C77.119 181.21 77.119 179.566 78.2811 179.184L81.1658 178.235C81.5482 178.109 81.8481 177.809 81.9739 177.427L82.9226 174.542Z" fill="white"/>
<path d="M248.345 98.4856C248.727 97.3235 250.371 97.3235 250.753 98.4856L251.232 99.9394C251.357 100.322 251.657 100.622 252.04 100.748L253.494 101.226C254.656 101.608 254.656 103.252 253.494 103.634L252.04 104.112C251.657 104.238 251.357 104.538 251.232 104.92L250.753 106.374C250.371 107.536 248.727 107.536 248.345 106.374L247.867 104.92C247.741 104.538 247.441 104.238 247.059 104.112L245.605 103.634C244.443 103.252 244.443 101.608 245.605 101.226L247.059 100.748C247.441 100.622 247.741 100.322 247.867 99.9394L248.345 98.4856Z" fill="white"/>
<path d="M145.035 21.1614C145.417 19.9993 147.061 19.9993 147.444 21.1614L148.392 24.046C148.518 24.4285 148.818 24.7284 149.2 24.8542L152.085 25.8029C153.247 26.1851 153.247 27.829 152.085 28.2112L149.2 29.1599C148.818 29.2857 148.518 29.5856 148.392 29.968L147.444 32.8527C147.061 34.0148 145.417 34.0148 145.035 32.8527L144.087 29.968C143.961 29.5856 143.661 29.2857 143.278 29.1599L140.394 28.2112C139.232 27.829 139.232 26.1851 140.394 25.8029L143.278 24.8542C143.661 24.7284 143.961 24.4285 144.087 24.046L145.035 21.1614Z" fill="white"/>
</svg>
