<svg width="28" height="29" viewBox="0 0 28 29" fill="none" xmlns="http://www.w3.org/2000/svg">
<rect x="6.48073" y="7.33613" width="14.7493" height="15.7615" fill="white"/>
<path d="M14 0.5C15.9688 0.5 17.7188 1.64844 18.5938 3.34375C20.3984 2.74219 22.4219 3.17969 23.8984 4.60156C25.3203 6.02344 25.7031 8.10156 25.1562 9.90625C26.8516 10.7812 28 12.5312 28 14.5C28 16.5234 26.8516 18.2734 25.1562 19.1484C25.7578 20.9531 25.3203 22.9766 23.8984 24.3984C22.4219 25.8203 20.3984 26.2578 18.5938 25.7109C17.7188 27.4062 15.9688 28.5 14 28.5C11.9766 28.5 10.2266 27.4062 9.35156 25.7109C7.54688 26.2578 5.52344 25.8203 4.04688 24.3984C2.625 22.9766 2.24219 20.9531 2.78906 19.1484C1.09375 18.2734 0 16.5234 0 14.5C0 12.5312 1.09375 10.7812 2.78906 9.90625C2.1875 8.10156 2.625 6.02344 4.04688 4.60156C5.52344 3.17969 7.54688 2.74219 9.35156 3.34375C10.2266 1.64844 11.9766 0.5 14 0.5ZM19.25 12.8047C19.7969 12.3125 19.7969 11.4922 19.25 10.9453C18.7578 10.4531 17.9375 10.4531 17.4453 10.9453L12.25 16.1953L10.0625 14.0078C9.57031 13.5156 8.75 13.5156 8.25781 14.0078C7.71094 14.5547 7.71094 15.375 8.25781 15.8672L11.3203 18.9297C11.8125 19.4766 12.6328 19.4766 13.125 18.9297L19.25 12.8047Z" fill="#0DBA48"/>
</svg>
