<svg width="53" height="53" viewBox="0 0 53 53" fill="none" xmlns="http://www.w3.org/2000/svg">
<path d="M11.4772 21.4746L7.82781 18.2308C6.87841 17.3869 5.42465 17.4724 4.58074 18.4218C3.73683 19.3712 3.82234 20.8249 4.77174 21.6688L8.00343 24.5415L8.16149 24.4009C9.31641 23.3742 10.4195 22.3936 11.4772 21.4746Z" fill="black"/>
<path d="M16.7545 32.1503C17.5914 32.819 18.386 33.4165 19.1492 33.9382C21.7171 35.6932 24.173 36.7633 26.9998 36.7633C29.8266 36.7633 32.2824 35.6932 34.8503 33.9382C37.3363 32.2392 40.154 29.7345 43.6883 26.5928L49.2278 21.6688C50.1772 20.8249 50.2627 19.3712 49.4188 18.4218C48.5749 17.4724 47.1211 17.3869 46.1717 18.2308L40.7521 23.0482C37.0706 26.3206 34.4699 28.6265 32.2548 30.1404C30.0936 31.6174 28.5452 32.1633 26.9998 32.1633C25.4543 32.1633 23.9059 31.6174 21.7448 30.1404C21.2765 29.8204 20.7911 29.465 20.2818 29.0726C19.2565 29.9412 18.0987 30.9586 16.7545 32.1503Z" fill="black"/>
<path d="M37.245 21.5485C36.4081 20.8799 35.6135 20.2823 34.8503 19.7607C32.2824 18.0057 29.8266 16.9355 26.9998 16.9355C24.173 16.9355 21.7171 18.0057 19.1492 19.7607C16.6632 21.4597 13.8455 23.9644 10.3111 27.1061L4.77174 32.03C3.82234 32.8739 3.73683 34.3277 4.58074 35.2771C5.42465 36.2265 6.87841 36.312 7.82781 35.4681L13.2474 30.6506C16.9289 27.3782 19.5297 25.0723 21.7448 23.5585C23.9059 22.0814 25.4543 21.5355 26.9998 21.5355C28.5452 21.5355 30.0936 22.0814 32.2548 23.5585C32.723 23.8785 33.2084 24.2339 33.7177 24.6263C34.743 23.7577 35.9008 22.7403 37.245 21.5485Z" fill="black"/>
<path d="M45.9961 29.1574L45.838 29.2979C44.6831 30.3246 43.58 31.3053 42.5224 32.2242L46.1717 35.4681C47.1211 36.312 48.5749 36.2265 49.4188 35.2771C50.2627 34.3277 50.1772 32.8739 49.2278 32.03L45.9961 29.1574Z" fill="black"/>
</svg>
