<svg width="53" height="52" viewBox="0 0 53 52" fill="none" xmlns="http://www.w3.org/2000/svg">
<path fill-rule="evenodd" clip-rule="evenodd" d="M27.0953 8.92353C26.7063 8.81238 26.2939 8.81238 25.9049 8.92353L15.0715 12.0188C14.1414 12.2845 13.5001 13.1347 13.5001 14.1021V25.7467C13.5001 30.6448 15.8656 35.2414 19.8513 38.0883L25.2407 41.9379C25.9941 42.476 27.0061 42.476 27.7594 41.9379L33.1489 38.0883C37.1346 35.2414 39.5001 30.6448 39.5001 25.7467V14.1021C39.5001 13.1347 38.8588 12.2845 37.9286 12.0188L27.0953 8.92353ZM24.7144 4.75693C25.8815 4.42347 27.1187 4.42347 28.2858 4.75693L39.1191 7.85217C41.9096 8.64944 43.8334 11.2 43.8334 14.1021V25.7467C43.8334 32.0443 40.7921 37.9541 35.6676 41.6145L30.2781 45.4641C28.0181 47.0784 24.9821 47.0784 22.722 45.4641L17.3326 41.6145C12.2081 37.9541 9.16675 32.0443 9.16675 25.7467V14.1021C9.16675 11.2 11.0906 8.64944 13.8811 7.85217L24.7144 4.75693Z" fill="white"/>
<path fill-rule="evenodd" clip-rule="evenodd" d="M34.4819 17.9193C35.3548 18.7377 35.3991 20.1088 34.5807 20.9818L26.4557 29.6485C25.6795 30.4764 24.3959 30.5651 23.5132 29.8518L18.6382 25.9124C17.7075 25.1603 17.5627 23.7961 18.3148 22.8654C19.0669 21.9347 20.4311 21.7899 21.3618 22.542L24.6711 25.2162L31.4193 18.0181C32.2377 17.1451 33.6089 17.1008 34.4819 17.9193Z" fill="white"/>
</svg>
