<svg width="32" height="32" viewBox="0 0 32 32" fill="none" xmlns="http://www.w3.org/2000/svg">
<path d="M5.5 12C4.94772 12 4.5 12.4477 4.5 13C4.5 13.5523 4.94772 14 5.5 14V12ZM26.5 14C27.0523 14 27.5 13.5523 27.5 13C27.5 12.4477 27.0523 12 26.5 12V14ZM5.62597 18.7499C5.07369 18.7499 4.62597 19.1976 4.62597 19.7499C4.62597 20.3022 5.07369 20.7499 5.62597 20.7499V18.7499ZM26.626 20.7499C27.1783 20.7499 27.626 20.3022 27.626 19.7499C27.626 19.1976 27.1783 18.7499 26.626 18.7499V20.7499ZM27 16C27 22.0751 22.0751 27 16 27V29C23.1797 29 29 23.1797 29 16H27ZM16 27C9.92487 27 5 22.0751 5 16H3C3 23.1797 8.8203 29 16 29V27ZM5 16C5 9.92487 9.92487 5 16 5V3C8.8203 3 3 8.8203 3 16H5ZM16 5C22.0751 5 27 9.92487 27 16H29C29 8.8203 23.1797 3 16 3V5ZM16 27C15.606 27 15.1518 26.8217 14.6515 26.338C14.1464 25.8497 13.6459 25.0949 13.2038 24.0845C12.3211 22.0667 11.75 19.2091 11.75 16H9.75C9.75 19.4183 10.3542 22.5608 11.3715 24.8861C11.8796 26.0473 12.5103 27.0498 13.2614 27.7759C14.0173 28.5067 14.9443 29 16 29V27ZM11.75 16C11.75 12.7909 12.3211 9.93334 13.2038 7.91554C13.6459 6.90515 14.1464 6.15028 14.6515 5.66197C15.1518 5.17831 15.606 5 16 5V3C14.9443 3 14.0173 3.49326 13.2614 4.22407C12.5103 4.95023 11.8796 5.95271 11.3715 7.1139C10.3542 9.43924 9.75 12.5817 9.75 16H11.75ZM16 29C17.0557 29 17.9827 28.5067 18.7386 27.7759C19.4897 27.0498 20.1204 26.0473 20.6285 24.8861C21.6458 22.5608 22.25 19.4183 22.25 16H20.25C20.25 19.2091 19.6789 22.0667 18.7962 24.0845C18.3541 25.0949 17.8536 25.8497 17.3485 26.338C16.8482 26.8217 16.394 27 16 27V29ZM22.25 16C22.25 12.5817 21.6458 9.43924 20.6285 7.1139C20.1204 5.95271 19.4897 4.95023 18.7386 4.22407C17.9827 3.49326 17.0557 3 16 3V5C16.394 5 16.8482 5.17831 17.3485 5.66197C17.8536 6.15028 18.3541 6.90515 18.7962 7.91554C19.6789 9.93334 20.25 12.7909 20.25 16H22.25ZM5.5 14H26.5V12H5.5V14ZM5.62597 20.7499H26.626V18.7499H5.62597V20.7499Z" fill="#FF8D07"/>
</svg>
