<svg width="53" height="52" viewBox="0 0 53 52" fill="none" xmlns="http://www.w3.org/2000/svg">
<path fill-rule="evenodd" clip-rule="evenodd" d="M26.4999 8.66659C16.927 8.66659 9.16659 16.427 9.16659 25.9999C9.16659 35.5729 16.927 43.3333 26.4999 43.3333C36.0729 43.3333 43.8333 35.5729 43.8333 25.9999C43.8333 16.427 36.0729 8.66659 26.4999 8.66659ZM4.83325 25.9999C4.83325 14.0337 14.5337 4.33325 26.4999 4.33325C38.4661 4.33325 48.1666 14.0337 48.1666 25.9999C48.1666 37.9661 38.4661 47.6666 26.4999 47.6666C14.5337 47.6666 4.83325 37.9661 4.83325 25.9999Z" fill="white"/>
<path fill-rule="evenodd" clip-rule="evenodd" d="M22.3517 13.0913C20.9329 16.2837 20.0001 20.8457 20.0001 25.9999C20.0001 31.1541 20.9329 35.7162 22.3517 38.9085C23.0624 40.5075 23.8524 41.6673 24.6203 42.398C25.377 43.1181 26.0085 43.3333 26.5001 43.3333C26.9917 43.3333 27.6232 43.1181 28.3799 42.398C29.1477 41.6673 29.9378 40.5075 30.6484 38.9085C32.0672 35.7162 33.0001 31.1541 33.0001 25.9999C33.0001 20.8457 32.0672 16.2837 30.6484 13.0913C29.9378 11.4924 29.1477 10.3326 28.3799 9.60185C27.6232 8.88173 26.9917 8.66659 26.5001 8.66659C26.0085 8.66659 25.377 8.88173 24.6203 9.60185C23.8524 10.3326 23.0624 11.4924 22.3517 13.0913ZM21.633 6.4628C22.95 5.20941 24.5985 4.33325 26.5001 4.33325C28.4017 4.33325 30.0502 5.20941 31.3672 6.4628C32.6731 7.70557 33.7505 9.40148 34.6083 11.3314C36.3262 15.1966 37.3334 20.3846 37.3334 25.9999C37.3334 31.6153 36.3262 36.8032 34.6083 40.6685C33.7505 42.5984 32.6731 44.2943 31.3672 45.537C30.0502 46.7904 28.4017 47.6666 26.5001 47.6666C24.5985 47.6666 22.95 46.7904 21.633 45.537C20.3271 44.2943 19.2496 42.5984 18.3919 40.6685C16.674 36.8032 15.6667 31.6153 15.6667 25.9999C15.6667 20.3846 16.674 15.1966 18.3919 11.3314C19.2496 9.40148 20.3271 7.70557 21.633 6.4628Z" fill="white"/>
<path fill-rule="evenodd" clip-rule="evenodd" d="M26.8431 34.6666C19.7199 34.6666 13.7067 36.3419 10.394 38.6188L7.93945 35.0477C12.227 32.1008 19.2103 30.3333 26.8431 30.3333C34.0496 30.3333 40.6492 31.9074 44.9621 34.5397L42.7046 38.2386C39.2802 36.1485 33.5392 34.6666 26.8431 34.6666Z" fill="white"/>
<path fill-rule="evenodd" clip-rule="evenodd" d="M26.6388 21.6666C19.0871 21.6666 12.175 19.8974 7.92969 16.9455L10.4036 13.3877C13.6708 15.6596 19.605 17.3332 26.6388 17.3332C33.4953 17.3332 39.319 15.7421 42.6383 13.5475L45.0283 17.1622C40.767 19.9796 34.0145 21.6666 26.6388 21.6666Z" fill="white"/>
</svg>
