<svg width="28" height="29" viewBox="0 0 28 29" fill="none" xmlns="http://www.w3.org/2000/svg">
<path d="M20.3675 11.0139C20.24 10.3102 19.6325 9.79766 18.9275 9.63766C17.8725 9.41391 15.92 9.25391 13.8075 9.25391C11.6962 9.25391 9.71246 9.41391 8.65621 9.63766C7.95246 9.79766 7.34371 10.2777 7.21621 11.0139C7.08746 11.8139 6.95996 12.9339 6.95996 14.3739C6.95996 15.8139 7.08746 16.9339 7.24746 17.7339C7.37621 18.4377 7.98371 18.9502 8.68746 19.1102C9.80746 19.3339 11.7275 19.4939 13.84 19.4939C15.9525 19.4939 17.8725 19.3339 18.9925 19.1102C19.6962 18.9502 20.3037 18.4702 20.4325 17.7339C20.56 16.9339 20.72 15.7814 20.7525 14.3739C20.6875 12.9339 20.5275 11.8139 20.3675 11.0139ZM12.08 16.6139V12.1339L15.9837 14.3739L12.08 16.6139Z" fill="black"/>
</svg>
